  0
SECTION
  2
HEADER
  9
$ACADVER
  1
AC1009
  9
$DWGCODEPAGE
  3
ANSI_1252
  9
$INSBASE
 10
0.0
 20
0.0
 30
0.0
  9
$EXTMIN
 10
0.0
 20
0.0
 30
0.0
  9
$EXTMAX
 10
0.0
 20
0.0
 30
0.0
  9
$TDCREATE
 40
2459856.845428241
  9
$TDUPDATE
 40
2459856.845428241
  0
ENDSEC
  0
SECTION
  2
TABLES
  0
TABLE
  2
VPORT
 70
1
  0
VPORT
  2
*Active
 70
0
 10
0.0
 20
0.0
 11
1.0
 21
1.0
 12
70.0
 22
50.0
 13
0.0
 23
0.0
 14
0.5
 24
0.5
 15
0.5
 25
0.5
 16
0.0
 26
0.0
 36
1.0
 17
0.0
 27
0.0
 37
0.0
 40
1.0
 41
1.34
 42
50.0
 43
0.0
 44
0.0
 50
0.0
 51
0.0
 71
0
 72
1000
 73
1
 74
3
 75
0
 76
0
 77
0
 78
0
  0
ENDTAB
  0
TABLE
  2
LTYPE
 70
3
  0
LTYPE
  2
CONTINUOUS
 70
0
  3
Solid line
 72
65
 73
0
 40
0.0
  0
LTYPE
  2
ByBlock
 70
0
  3

 72
65
 73
0
 40
0.0
  0
LTYPE
  2
ByLayer
 70
0
  3

 72
65
 73
0
 40
0.0
  0
ENDTAB
  0
TABLE
  2
LAYER
 70
8
  0
LAYER
  2
0
 70
64
 62
7
  6
continuous
  0
LAYER
  2
Defpoints
 70
0
 62
7
  6
Continuous
  0
LAYER
  2
color_0
 70
0
 62
255
  6
Continuous
  0
LAYER
  2
color_2
 70
0
 62
253
  6
Continuous
  0
LAYER
  2
color_1
 70
0
 62
254
  6
Continuous
  0
LAYER
  2
color_3
 70
0
 62
252
  6
Continuous
  0
LAYER
  2
color_6
 70
0
 62
249
  6
Continuous
  0
LAYER
  2
color_4
 70
0
 62
251
  6
Continuous
  0
ENDTAB
  0
TABLE
  2
STYLE
 70
1
  0
STYLE
  2
STANDARD
 70
0
 40
0.0
 41
1.0
 50
0.0
 71
0
 42
1.0
  3
ARIAL.TTF
  4

  0
ENDTAB
  0
TABLE
  2
VIEW
 70
0
  0
ENDTAB
  0
TABLE
  2
UCS
 70
0
  0
ENDTAB
  0
TABLE
  2
APPID
 70
2
  0
APPID
  2
ACAD
 70
0
  0
APPID
  2
HATCHBACKGROUNDCOLOR
 70
0
  0
ENDTAB
  0
TABLE
  2
DIMSTYLE
 70
1
  0
DIMSTYLE
  2
Standard
 70
0
  3

  4

  5

  6

  7

 40
1.0
 41
2.5
 42
0.625
 43
3.75
 44
1.25
 45
0.0
 46
0.0
 47
0.0
 48
0.0
140
2.5
141
2.5
142
0.0
143
0.03937007874
144
1.0
145
0.0
146
1.0
147
0.625
 71
0
 72
0
 73
0
 74
0
 75
0
 76
0
 77
1
 78
8
170
0
171
3
172
1
173
0
174
0
175
0
176
0
177
0
178
0
  0
ENDTAB
  0
ENDSEC
  0
SECTION
  2
BLOCKS
  0
BLOCK
  8
0
  2
$Model_Space
 70
0
 10
0.0
 20
0.0
 30
0.0
  3
$Model_Space
  1

  0
ENDBLK
  8
0
  0
BLOCK
  8
0
  2
$Paper_Space
 70
0
 10
0.0
 20
0.0
 30
0.0
  3
$Paper_Space
  1

  0
ENDBLK
  8
0
  0
BLOCK
  8
0
  2
SHAPE
 70
0
 10
0.0
 20
0.0
 30
0.0
  3
SHAPE
  1

  0
LINE
  8
0
 62
0
 10
0.0
 20
0.0
 30
0.0
 11
0.0
 21
2.5999999999999996
 31
0.0
  0
LINE
  8
0
 62
0
 10
0.0
 20
2.5999999999999996
 30
0.0
 11
4.1
 21
2.5999999999999996
 31
0.0
  0
LINE
  8
0
 62
0
 10
4.1
 20
2.5999999999999996
 30
0.0
 11
4.1
 21
0.0
 31
0.0
  0
LINE
  8
0
 62
0
 10
4.1
 20
0.0
 30
0.0
 11
0.0
 21
0.0
 31
0.0
  0
ENDBLK
  8
0
  0
BLOCK
  8
0
  2
SHAPE001
 70
0
 10
0.0
 20
0.0
 30
0.0
  3
SHAPE001
  1

  0
LINE
  8
0
 62
0
 10
0.4
 20
0.3
 30
0.0
 11
0.30000000000000004
 21
0.4
 31
0.0
  0
LINE
  8
0
 62
0
 10
0.30000000000000004
 20
0.4
 30
0.0
 11
0.30000000000000004
 21
2.1999999999999997
 31
0.0
  0
LINE
  8
0
 62
0
 10
0.30000000000000004
 20
2.1999999999999997
 30
0.0
 11
0.4
 21
2.3
 31
0.0
  0
LINE
  8
0
 62
0
 10
0.4
 20
2.3
 30
0.0
 11
3.6999999999999997
 21
2.3
 31
0.0
  0
LINE
  8
0
 62
0
 10
3.6999999999999997
 20
2.3
 30
0.0
 11
3.8
 21
2.1999999999999997
 31
0.0
  0
LINE
  8
0
 62
0
 10
3.8
 20
2.1999999999999997
 30
0.0
 11
3.8
 21
0.3999999999999999
 31
0.0
  0
LINE
  8
0
 62
0
 10
3.8
 20
0.4
 30
0.0
 11
3.6999999999999997
 21
0.3
 31
0.0
  0
LINE
  8
0
 62
0
 10
3.6999999999999997
 20
0.3
 30
0.0
 11
0.3999999999999999
 21
0.3
 31
0.0
  0
ENDBLK
  8
0
  0
BLOCK
  8
0
  2
WIRE
 70
0
 10
0.0
 20
0.0
 30
0.0
  3
WIRE
  1

  0
LINE
  8
0
 62
2
 10
5.199999999999999
 20
0.038
 30
0.0
 11
8.2
 21
-0.262
 31
0.0
  0
LINE
  8
0
 62
2
 10
8.2
 20
-0.262
 30
0.0
 11
8.274999999999999
 21
-0.262
 31
0.0
  0
ENDBLK
  8
0
  0
BLOCK
  8
0
  2
CIRCLE
 70
0
 10
0.0
 20
0.0
 30
0.0
  3
CIRCLE
  1

  0
CIRCLE
  8
0
 62
2
 10
8.349999999999998
 20
-0.262
 30
0.0
 40
0.075
  0
ENDBLK
  8
0
  0
BLOCK
  8
0
  2
CIRCLE001
 70
0
 10
0.0
 20
0.0
 30
0.0
  3
CIRCLE001
  1

  0
CIRCLE
  8
0
 62
1
 10
5.199999999999999
 20
0.038
 30
0.0
 40
0.008
  0
ENDBLK
  8
0
  0
BLOCK
  8
0
  2
CIRCLE002
 70
0
 10
0.0
 20
0.0
 30
0.0
  3
CIRCLE002
  1

  0
CIRCLE
  8
0
 62
1
 10
5.499999999999999
 20
0.038
 30
0.0
 40
0.008
  0
ENDBLK
  8
0
  0
BLOCK
  8
0
  2
CIRCLE003
 70
0
 10
0.0
 20
0.0
 30
0.0
  3
CIRCLE003
  1

  0
CIRCLE
  8
0
 62
1
 10
5.799999999999999
 20
0.038
 30
0.0
 40
0.008
  0
ENDBLK
  8
0
  0
BLOCK
  8
0
  2
CIRCLE004
 70
0
 10
0.0
 20
0.0
 30
0.0
  3
CIRCLE004
  1

  0
CIRCLE
  8
0
 62
1
 10
6.099999999999999
 20
0.038
 30
0.0
 40
0.008
  0
ENDBLK
  8
0
  0
BLOCK
  8
0
  2
CIRCLE005
 70
0
 10
0.0
 20
0.0
 30
0.0
  3
CIRCLE005
  1

  0
CIRCLE
  8
0
 62
1
 10
6.399999999999999
 20
0.038
 30
0.0
 40
0.008
  0
ENDBLK
  8
0
  0
BLOCK
  8
0
  2
CIRCLE006
 70
0
 10
0.0
 20
0.0
 30
0.0
  3
CIRCLE006
  1

  0
CIRCLE
  8
0
 62
1
 10
6.699999999999998
 20
0.038
 30
0.0
 40
0.008
  0
ENDBLK
  8
0
  0
BLOCK
  8
0
  2
CIRCLE007
 70
0
 10
0.0
 20
0.0
 30
0.0
  3
CIRCLE007
  1

  0
CIRCLE
  8
0
 62
1
 10
6.999999999999998
 20
0.038
 30
0.0
 40
0.008
  0
ENDBLK
  8
0
  0
BLOCK
  8
0
  2
CIRCLE008
 70
0
 10
0.0
 20
0.0
 30
0.0
  3
CIRCLE008
  1

  0
CIRCLE
  8
0
 62
1
 10
7.299999999999998
 20
0.038
 30
0.0
 40
0.008
  0
ENDBLK
  8
0
  0
BLOCK
  8
0
  2
CIRCLE009
 70
0
 10
0.0
 20
0.0
 30
0.0
  3
CIRCLE009
  1

  0
CIRCLE
  8
0
 62
1
 10
7.599999999999998
 20
0.038
 30
0.0
 40
0.008
  0
ENDBLK
  8
0
  0
BLOCK
  8
0
  2
CIRCLE010
 70
0
 10
0.0
 20
0.0
 30
0.0
  3
CIRCLE010
  1

  0
CIRCLE
  8
0
 62
1
 10
7.899999999999998
 20
0.038
 30
0.0
 40
0.008
  0
ENDBLK
  8
0
  0
BLOCK
  8
0
  2
CIRCLE011
 70
0
 10
0.0
 20
0.0
 30
0.0
  3
CIRCLE011
  1

  0
CIRCLE
  8
0
 62
1
 10
8.199999999999998
 20
0.038
 30
0.0
 40
0.008
  0
ENDBLK
  8
0
  0
BLOCK
  8
0
  2
CIRCLE012
 70
0
 10
0.0
 20
0.0
 30
0.0
  3
CIRCLE012
  1

  0
CIRCLE
  8
0
 62
1
 10
8.499999999999998
 20
0.038
 30
0.0
 40
0.008
  0
ENDBLK
  8
0
  0
BLOCK
  8
0
  2
CIRCLE013
 70
0
 10
0.0
 20
0.0
 30
0.0
  3
CIRCLE013
  1

  0
CIRCLE
  8
0
 62
1
 10
8.799999999999999
 20
0.038
 30
0.0
 40
0.008
  0
ENDBLK
  8
0
  0
BLOCK
  8
0
  2
CIRCLE014
 70
0
 10
0.0
 20
0.0
 30
0.0
  3
CIRCLE014
  1

  0
CIRCLE
  8
0
 62
1
 10
9.1
 20
0.038
 30
0.0
 40
0.008
  0
ENDBLK
  8
0
  0
BLOCK
  8
0
  2
CIRCLE015
 70
0
 10
0.0
 20
0.0
 30
0.0
  3
CIRCLE015
  1

  0
CIRCLE
  8
0
 62
1
 10
9.4
 20
0.038
 30
0.0
 40
0.008
  0
ENDBLK
  8
0
  0
BLOCK
  8
0
  2
CIRCLE016
 70
0
 10
0.0
 20
0.0
 30
0.0
  3
CIRCLE016
  1

  0
CIRCLE
  8
0
 62
1
 10
9.700000000000001
 20
0.038
 30
0.0
 40
0.008
  0
ENDBLK
  8
0
  0
BLOCK
  8
0
  2
CIRCLE017
 70
0
 10
0.0
 20
0.0
 30
0.0
  3
CIRCLE017
  1

  0
CIRCLE
  8
0
 62
1
 10
10.000000000000002
 20
0.038
 30
0.0
 40
0.008
  0
ENDBLK
  8
0
  0
BLOCK
  8
0
  2
LINE
 70
0
 10
0.0
 20
0.0
 30
0.0
  3
LINE
  1

  0
LINE
  8
0
 62
2
 10
8.2
 20
-0.262
 30
0.0
 11
10.0
 21
0.03799999999999998
 31
0.0
  0
ENDBLK
  8
0
  0
BLOCK
  8
0
  2
WIRE001
 70
0
 10
0.0
 20
0.0
 30
0.0
  3
WIRE001
  1

  0
LINE
  8
0
 62
3
 10
0.038
 20
0.24
 30
0.0
 11
0.038
 21
0.07
 31
0.0
  0
ARC
  8
0
 62
3
 10
0.07000000000000003
 20
0.07000000000000003
 30
0.0
 40
0.032000000000000035
 50
-180.0
 51
-90.00000000000006
  0
LINE
  8
0
 62
3
 10
0.07
 20
0.038000000000000006
 30
0.0
 11
4.029999999999999
 21
0.038
 31
0.0
  0
ARC
  8
0
 62
3
 10
4.029999999999999
 20
0.07000000000000019
 30
0.0
 40
0.0320000000000001
 50
-90.0
 51
-0.0
  0
LINE
  8
0
 62
3
 10
4.061999999999999
 20
0.07
 30
0.0
 11
4.061999999999999
 21
0.24
 31
0.0
  0
ENDBLK
  8
0
  0
BLOCK
  8
0
  2
LINE001
 70
0
 10
0.0
 20
0.0
 30
0.0
  3
LINE001
  1

  0
LINE
  8
0
 62
6
 10
0.038
 20
0.24000000000000002
 30
0.0
 11
0.04447047612756302
 21
0.21585185434277332
 31
0.0
  0
ENDBLK
  8
0
  0
BLOCK
  8
0
  2
LINE002
 70
0
 10
0.0
 20
0.0
 30
0.0
  3
LINE002
  1

  0
LINE
  8
0
 62
6
 10
4.061999999999999
 20
0.24000000000000044
 30
0.0
 11
4.055529523872436
 21
0.2158518543427736
 31
0.0
  0
ENDBLK
  8
0
  0
BLOCK
  8
0
  2
WIRE002
 70
0
 10
0.0
 20
0.0
 30
0.0
  3
WIRE002
  1

  0
LINE
  8
0
 62
2
 10
2.05
 20
0.038
 30
0.0
 11
1.7499999999999998
 21
-0.36200000000000004
 31
0.0
  0
LINE
  8
0
 62
2
 10
1.7499999999999998
 20
-0.36200000000000004
 30
0.0
 11
1.6749999999999998
 21
-0.36200000000000004
 31
0.0
  0
ENDBLK
  8
0
  0
BLOCK
  8
0
  2
CIRCLE018
 70
0
 10
0.0
 20
0.0
 30
0.0
  3
CIRCLE018
  1

  0
CIRCLE
  8
0
 62
2
 10
1.5999999999999999
 20
-0.36200000000000004
 30
0.0
 40
0.075
  0
ENDBLK
  8
0
  0
BLOCK
  8
0
  2
SHAPE002
 70
0
 10
0.0
 20
0.0
 30
0.0
  3
SHAPE002
  1

  0
LINE
  8
0
 62
0
 10
0.6324999999999998
 20
-0.3815342006228214
 30
0.0
 11
0.6324999999999998
 21
-0.400358753306718
 31
0.0
  0
LINE
  8
0
 62
0
 10
0.6324999999999998
 20
-0.400358753306718
 30
0.0
 11
1.0074999999999998
 21
-0.400358753306718
 31
0.0
  0
LINE
  8
0
 62
0
 10
1.0074999999999998
 20
-0.400358753306718
 30
0.0
 11
1.0074999999999998
 21
-0.3815342006228214
 31
0.0
  0
ENDBLK
  8
0
  0
BLOCK
  8
0
  2
WIRE003
 70
0
 10
0.0
 20
0.0
 30
0.0
  3
WIRE003
  1

  0
LINE
  8
0
 62
2
 10
5.199999999999999
 20
0.262
 30
0.0
 11
8.2
 21
0.562
 31
0.0
  0
LINE
  8
0
 62
2
 10
8.2
 20
0.562
 30
0.0
 11
8.274999999999999
 21
0.562
 31
0.0
  0
ENDBLK
  8
0
  0
BLOCK
  8
0
  2
CIRCLE019
 70
0
 10
0.0
 20
0.0
 30
0.0
  3
CIRCLE019
  1

  0
CIRCLE
  8
0
 62
2
 10
8.349999999999998
 20
0.562
 30
0.0
 40
0.075
  0
ENDBLK
  8
0
  0
BLOCK
  8
0
  2
CIRCLE020
 70
0
 10
0.0
 20
0.0
 30
0.0
  3
CIRCLE020
  1

  0
CIRCLE
  8
0
 62
1
 10
5.199999999999999
 20
0.262
 30
0.0
 40
0.008
  0
ENDBLK
  8
0
  0
BLOCK
  8
0
  2
CIRCLE021
 70
0
 10
0.0
 20
0.0
 30
0.0
  3
CIRCLE021
  1

  0
CIRCLE
  8
0
 62
1
 10
5.499999999999999
 20
0.262
 30
0.0
 40
0.008
  0
ENDBLK
  8
0
  0
BLOCK
  8
0
  2
CIRCLE022
 70
0
 10
0.0
 20
0.0
 30
0.0
  3
CIRCLE022
  1

  0
CIRCLE
  8
0
 62
1
 10
5.799999999999999
 20
0.262
 30
0.0
 40
0.008
  0
ENDBLK
  8
0
  0
BLOCK
  8
0
  2
CIRCLE023
 70
0
 10
0.0
 20
0.0
 30
0.0
  3
CIRCLE023
  1

  0
CIRCLE
  8
0
 62
1
 10
6.099999999999999
 20
0.262
 30
0.0
 40
0.008
  0
ENDBLK
  8
0
  0
BLOCK
  8
0
  2
CIRCLE024
 70
0
 10
0.0
 20
0.0
 30
0.0
  3
CIRCLE024
  1

  0
CIRCLE
  8
0
 62
1
 10
6.399999999999999
 20
0.262
 30
0.0
 40
0.008
  0
ENDBLK
  8
0
  0
BLOCK
  8
0
  2
CIRCLE025
 70
0
 10
0.0
 20
0.0
 30
0.0
  3
CIRCLE025
  1

  0
CIRCLE
  8
0
 62
1
 10
6.699999999999998
 20
0.262
 30
0.0
 40
0.008
  0
ENDBLK
  8
0
  0
BLOCK
  8
0
  2
CIRCLE026
 70
0
 10
0.0
 20
0.0
 30
0.0
  3
CIRCLE026
  1

  0
CIRCLE
  8
0
 62
1
 10
6.999999999999998
 20
0.262
 30
0.0
 40
0.008
  0
ENDBLK
  8
0
  0
BLOCK
  8
0
  2
CIRCLE027
 70
0
 10
0.0
 20
0.0
 30
0.0
  3
CIRCLE027
  1

  0
CIRCLE
  8
0
 62
1
 10
7.299999999999998
 20
0.262
 30
0.0
 40
0.008
  0
ENDBLK
  8
0
  0
BLOCK
  8
0
  2
CIRCLE028
 70
0
 10
0.0
 20
0.0
 30
0.0
  3
CIRCLE028
  1

  0
CIRCLE
  8
0
 62
1
 10
7.599999999999998
 20
0.262
 30
0.0
 40
0.008
  0
ENDBLK
  8
0
  0
BLOCK
  8
0
  2
CIRCLE029
 70
0
 10
0.0
 20
0.0
 30
0.0
  3
CIRCLE029
  1

  0
CIRCLE
  8
0
 62
1
 10
7.899999999999998
 20
0.262
 30
0.0
 40
0.008
  0
ENDBLK
  8
0
  0
BLOCK
  8
0
  2
CIRCLE030
 70
0
 10
0.0
 20
0.0
 30
0.0
  3
CIRCLE030
  1

  0
CIRCLE
  8
0
 62
1
 10
8.199999999999998
 20
0.262
 30
0.0
 40
0.008
  0
ENDBLK
  8
0
  0
BLOCK
  8
0
  2
CIRCLE031
 70
0
 10
0.0
 20
0.0
 30
0.0
  3
CIRCLE031
  1

  0
CIRCLE
  8
0
 62
1
 10
8.499999999999998
 20
0.262
 30
0.0
 40
0.008
  0
ENDBLK
  8
0
  0
BLOCK
  8
0
  2
CIRCLE032
 70
0
 10
0.0
 20
0.0
 30
0.0
  3
CIRCLE032
  1

  0
CIRCLE
  8
0
 62
1
 10
8.799999999999999
 20
0.262
 30
0.0
 40
0.008
  0
ENDBLK
  8
0
  0
BLOCK
  8
0
  2
CIRCLE033
 70
0
 10
0.0
 20
0.0
 30
0.0
  3
CIRCLE033
  1

  0
CIRCLE
  8
0
 62
1
 10
9.1
 20
0.262
 30
0.0
 40
0.008
  0
ENDBLK
  8
0
  0
BLOCK
  8
0
  2
CIRCLE034
 70
0
 10
0.0
 20
0.0
 30
0.0
  3
CIRCLE034
  1

  0
CIRCLE
  8
0
 62
1
 10
9.4
 20
0.262
 30
0.0
 40
0.008
  0
ENDBLK
  8
0
  0
BLOCK
  8
0
  2
CIRCLE035
 70
0
 10
0.0
 20
0.0
 30
0.0
  3
CIRCLE035
  1

  0
CIRCLE
  8
0
 62
1
 10
9.700000000000001
 20
0.262
 30
0.0
 40
0.008
  0
ENDBLK
  8
0
  0
BLOCK
  8
0
  2
CIRCLE036
 70
0
 10
0.0
 20
0.0
 30
0.0
  3
CIRCLE036
  1

  0
CIRCLE
  8
0
 62
1
 10
10.000000000000002
 20
0.262
 30
0.0
 40
0.008
  0
ENDBLK
  8
0
  0
BLOCK
  8
0
  2
LINE003
 70
0
 10
0.0
 20
0.0
 30
0.0
  3
LINE003
  1

  0
LINE
  8
0
 62
2
 10
8.2
 20
0.562
 30
0.0
 11
10.0
 21
0.26200000000000007
 31
0.0
  0
ENDBLK
  8
0
  0
BLOCK
  8
0
  2
WIRE004
 70
0
 10
0.0
 20
0.0
 30
0.0
  3
WIRE004
  1

  0
LINE
  8
0
 62
3
 10
0.038
 20
0.06
 30
0.0
 11
0.038
 21
0.22999999999999998
 31
0.0
  0
ARC
  8
0
 62
3
 10
0.07
 20
0.23
 30
0.0
 40
0.03200000000000001
 50
90.0
 51
-180.0
  0
LINE
  8
0
 62
3
 10
0.07
 20
0.262
 30
0.0
 11
4.029999999999999
 21
0.262
 31
0.0
  0
ARC
  8
0
 62
3
 10
4.029999999999999
 20
0.22999999999999982
 30
0.0
 40
0.032000000000000105
 50
0.0
 51
90.0
  0
LINE
  8
0
 62
3
 10
4.061999999999999
 20
0.22999999999999998
 30
0.0
 11
4.061999999999999
 21
0.06
 31
0.0
  0
ENDBLK
  8
0
  0
BLOCK
  8
0
  2
LINE004
 70
0
 10
0.0
 20
0.0
 30
0.0
  3
LINE004
  1

  0
LINE
  8
0
 62
6
 10
0.038
 20
0.06000000000000001
 30
0.0
 11
0.03152952387243698
 21
0.08414814565722671
 31
0.0
  0
ENDBLK
  8
0
  0
BLOCK
  8
0
  2
LINE005
 70
0
 10
0.0
 20
0.0
 30
0.0
  3
LINE005
  1

  0
LINE
  8
0
 62
6
 10
4.0619999999999985
 20
0.060000000000000386
 30
0.0
 11
4.068470476127562
 21
0.084148145657227
 31
0.0
  0
ENDBLK
  8
0
  0
BLOCK
  8
0
  2
WIRE005
 70
0
 10
0.0
 20
0.0
 30
0.0
  3
WIRE005
  1

  0
LINE
  8
0
 62
2
 10
2.05
 20
0.262
 30
0.0
 11
1.7499999999999998
 21
0.662
 31
0.0
  0
LINE
  8
0
 62
2
 10
1.7499999999999998
 20
0.662
 30
0.0
 11
1.6749999999999998
 21
0.662
 31
0.0
  0
ENDBLK
  8
0
  0
BLOCK
  8
0
  2
CIRCLE037
 70
0
 10
0.0
 20
0.0
 30
0.0
  3
CIRCLE037
  1

  0
CIRCLE
  8
0
 62
2
 10
1.5999999999999999
 20
0.662
 30
0.0
 40
0.075
  0
ENDBLK
  8
0
  0
BLOCK
  8
0
  2
SHAPE003
 70
0
 10
0.0
 20
0.0
 30
0.0
  3
SHAPE003
  1

  0
LINE
  8
0
 62
0
 10
0.6324999999999998
 20
0.6065342006228214
 30
0.0
 11
0.6324999999999998
 21
0.625358753306718
 31
0.0
  0
LINE
  8
0
 62
0
 10
0.6324999999999998
 20
0.625358753306718
 30
0.0
 11
1.0074999999999998
 21
0.625358753306718
 31
0.0
  0
LINE
  8
0
 62
0
 10
1.0074999999999998
 20
0.625358753306718
 30
0.0
 11
1.0074999999999998
 21
0.6065342006228214
 31
0.0
  0
ENDBLK
  8
0
  0
BLOCK
  8
0
  2
WIRE006
 70
0
 10
0.0
 20
0.0
 30
0.0
  3
WIRE006
  1

  0
LINE
  8
0
 62
2
 10
0.09999999999999987
 20
0.052
 30
0.0
 11
2.5599999999999996
 21
-0.248
 31
0.0
  0
LINE
  8
0
 62
2
 10
2.5599999999999996
 20
-0.248
 30
0.0
 11
2.635
 21
-0.248
 31
0.0
  0
ENDBLK
  8
0
  0
BLOCK
  8
0
  2
CIRCLE038
 70
0
 10
0.0
 20
0.0
 30
0.0
  3
CIRCLE038
  1

  0
CIRCLE
  8
0
 62
2
 10
2.71
 20
-0.248
 30
0.0
 40
0.075
  0
ENDBLK
  8
0
  0
BLOCK
  8
0
  2
CIRCLE039
 70
0
 10
0.0
 20
0.0
 30
0.0
  3
CIRCLE039
  1

  0
CIRCLE
  8
0
 62
1
 10
0.09999999999999987
 20
0.052
 30
0.0
 40
0.006
  0
ENDBLK
  8
0
  0
BLOCK
  8
0
  2
CIRCLE040
 70
0
 10
0.0
 20
0.0
 30
0.0
  3
CIRCLE040
  1

  0
CIRCLE
  8
0
 62
1
 10
0.39999999999999986
 20
0.052
 30
0.0
 40
0.006
  0
ENDBLK
  8
0
  0
BLOCK
  8
0
  2
CIRCLE041
 70
0
 10
0.0
 20
0.0
 30
0.0
  3
CIRCLE041
  1

  0
CIRCLE
  8
0
 62
1
 10
0.6999999999999998
 20
0.052
 30
0.0
 40
0.006
  0
ENDBLK
  8
0
  0
BLOCK
  8
0
  2
CIRCLE042
 70
0
 10
0.0
 20
0.0
 30
0.0
  3
CIRCLE042
  1

  0
CIRCLE
  8
0
 62
1
 10
0.9999999999999998
 20
0.052
 30
0.0
 40
0.006
  0
ENDBLK
  8
0
  0
BLOCK
  8
0
  2
CIRCLE043
 70
0
 10
0.0
 20
0.0
 30
0.0
  3
CIRCLE043
  1

  0
CIRCLE
  8
0
 62
1
 10
1.2999999999999998
 20
0.052
 30
0.0
 40
0.006
  0
ENDBLK
  8
0
  0
BLOCK
  8
0
  2
CIRCLE044
 70
0
 10
0.0
 20
0.0
 30
0.0
  3
CIRCLE044
  1

  0
CIRCLE
  8
0
 62
1
 10
1.5999999999999999
 20
0.052
 30
0.0
 40
0.006
  0
ENDBLK
  8
0
  0
BLOCK
  8
0
  2
CIRCLE045
 70
0
 10
0.0
 20
0.0
 30
0.0
  3
CIRCLE045
  1

  0
CIRCLE
  8
0
 62
1
 10
1.9
 20
0.052
 30
0.0
 40
0.006
  0
ENDBLK
  8
0
  0
BLOCK
  8
0
  2
CIRCLE046
 70
0
 10
0.0
 20
0.0
 30
0.0
  3
CIRCLE046
  1

  0
CIRCLE
  8
0
 62
1
 10
2.1999999999999997
 20
0.052
 30
0.0
 40
0.006
  0
ENDBLK
  8
0
  0
BLOCK
  8
0
  2
CIRCLE047
 70
0
 10
0.0
 20
0.0
 30
0.0
  3
CIRCLE047
  1

  0
CIRCLE
  8
0
 62
1
 10
2.4999999999999996
 20
0.052
 30
0.0
 40
0.006
  0
ENDBLK
  8
0
  0
BLOCK
  8
0
  2
CIRCLE048
 70
0
 10
0.0
 20
0.0
 30
0.0
  3
CIRCLE048
  1

  0
CIRCLE
  8
0
 62
1
 10
2.7999999999999994
 20
0.052
 30
0.0
 40
0.006
  0
ENDBLK
  8
0
  0
BLOCK
  8
0
  2
CIRCLE049
 70
0
 10
0.0
 20
0.0
 30
0.0
  3
CIRCLE049
  1

  0
CIRCLE
  8
0
 62
1
 10
3.099999999999999
 20
0.052
 30
0.0
 40
0.006
  0
ENDBLK
  8
0
  0
BLOCK
  8
0
  2
CIRCLE050
 70
0
 10
0.0
 20
0.0
 30
0.0
  3
CIRCLE050
  1

  0
CIRCLE
  8
0
 62
1
 10
3.399999999999999
 20
0.052
 30
0.0
 40
0.006
  0
ENDBLK
  8
0
  0
BLOCK
  8
0
  2
CIRCLE051
 70
0
 10
0.0
 20
0.0
 30
0.0
  3
CIRCLE051
  1

  0
CIRCLE
  8
0
 62
1
 10
3.699999999999999
 20
0.052
 30
0.0
 40
0.006
  0
ENDBLK
  8
0
  0
BLOCK
  8
0
  2
CIRCLE052
 70
0
 10
0.0
 20
0.0
 30
0.0
  3
CIRCLE052
  1

  0
CIRCLE
  8
0
 62
1
 10
3.9999999999999987
 20
0.052
 30
0.0
 40
0.006
  0
ENDBLK
  8
0
  0
BLOCK
  8
0
  2
LINE006
 70
0
 10
0.0
 20
0.0
 30
0.0
  3
LINE006
  1

  0
LINE
  8
0
 62
2
 10
2.5599999999999996
 20
-0.248
 30
0.0
 11
3.9999999999999996
 21
0.05199999999999999
 31
0.0
  0
ENDBLK
  8
0
  0
BLOCK
  8
0
  2
WIRE007
 70
0
 10
0.0
 20
0.0
 30
0.0
  3
WIRE007
  1

  0
LINE
  8
0
 62
3
 10
5.135999999999999
 20
0.24
 30
0.0
 11
5.135999999999999
 21
0.07600000000000001
 31
0.0
  0
ARC
  8
0
 62
3
 10
5.159999999999999
 20
0.0760000000000003
 30
0.0
 40
0.02400000000000012
 50
-180.0
 51
-90.0
  0
LINE
  8
0
 62
3
 10
5.159999999999999
 20
0.05199999999999999
 30
0.0
 11
10.040000000000001
 21
0.052
 31
0.0
  0
ARC
  8
0
 62
3
 10
10.04
 20
0.07600000000000008
 30
0.0
 40
0.024000000000000493
 50
-89.99999999999577
 51
-0.0
  0
LINE
  8
0
 62
3
 10
10.064
 20
0.076
 30
0.0
 11
10.064
 21
0.24
 31
0.0
  0
ENDBLK
  8
0
  0
BLOCK
  8
0
  2
LINE007
 70
0
 10
0.0
 20
0.0
 30
0.0
  3
LINE007
  1

  0
LINE
  8
0
 62
6
 10
5.135999999999999
 20
0.24
 30
0.0
 11
5.1424704761275635
 21
0.21585185434277332
 31
0.0
  0
ENDBLK
  8
0
  0
BLOCK
  8
0
  2
LINE008
 70
0
 10
0.0
 20
0.0
 30
0.0
  3
LINE008
  1

  0
LINE
  8
0
 62
6
 10
10.064000000000002
 20
0.2400000000000011
 30
0.0
 11
10.05752952387244
 21
0.21585185434277362
 31
0.0
  0
ENDBLK
  8
0
  0
BLOCK
  8
0
  2
WIRE008
 70
0
 10
0.0
 20
0.0
 30
0.0
  3
WIRE008
  1

  0
LINE
  8
0
 62
2
 10
7.6
 20
0.052
 30
0.0
 11
7.3
 21
-0.34800000000000003
 31
0.0
  0
LINE
  8
0
 62
2
 10
7.3
 20
-0.34800000000000003
 30
0.0
 11
7.225
 21
-0.34800000000000003
 31
0.0
  0
ENDBLK
  8
0
  0
BLOCK
  8
0
  2
CIRCLE053
 70
0
 10
0.0
 20
0.0
 30
0.0
  3
CIRCLE053
  1

  0
CIRCLE
  8
0
 62
2
 10
7.1499999999999995
 20
-0.34800000000000003
 30
0.0
 40
0.075
  0
ENDBLK
  8
0
  0
BLOCK
  8
0
  2
SHAPE004
 70
0
 10
0.0
 20
0.0
 30
0.0
  3
SHAPE004
  1

  0
LINE
  8
0
 62
0
 10
6.1825
 20
-0.37170106915143686
 30
0.0
 11
6.1825
 21
-0.38600707564494335
 31
0.0
  0
LINE
  8
0
 62
0
 10
6.1825
 20
-0.3860070756449433
 30
0.0
 11
6.5575
 21
-0.3860070756449433
 31
0.0
  0
LINE
  8
0
 62
0
 10
6.5575
 20
-0.3860070756449433
 30
0.0
 11
6.5575
 21
-0.3717010691514368
 31
0.0
  0
ENDBLK
  8
0
  0
BLOCK
  8
0
  2
WIRE009
 70
0
 10
0.0
 20
0.0
 30
0.0
  3
WIRE009
  1

  0
LINE
  8
0
 62
2
 10
0.4000000000000001
 20
0.246
 30
0.0
 11
2.8599999999999994
 21
0.546
 31
0.0
  0
LINE
  8
0
 62
2
 10
2.8599999999999994
 20
0.546
 30
0.0
 11
2.9349999999999996
 21
0.546
 31
0.0
  0
ENDBLK
  8
0
  0
BLOCK
  8
0
  2
CIRCLE054
 70
0
 10
0.0
 20
0.0
 30
0.0
  3
CIRCLE054
  1

  0
CIRCLE
  8
0
 62
2
 10
3.01
 20
0.546
 30
0.0
 40
0.075
  0
ENDBLK
  8
0
  0
BLOCK
  8
0
  2
CIRCLE055
 70
0
 10
0.0
 20
0.0
 30
0.0
  3
CIRCLE055
  1

  0
CIRCLE
  8
0
 62
1
 10
0.4000000000000001
 20
0.246
 30
0.0
 40
0.008
  0
ENDBLK
  8
0
  0
BLOCK
  8
0
  2
CIRCLE056
 70
0
 10
0.0
 20
0.0
 30
0.0
  3
CIRCLE056
  1

  0
CIRCLE
  8
0
 62
1
 10
0.7000000000000001
 20
0.246
 30
0.0
 40
0.008
  0
ENDBLK
  8
0
  0
BLOCK
  8
0
  2
CIRCLE057
 70
0
 10
0.0
 20
0.0
 30
0.0
  3
CIRCLE057
  1

  0
CIRCLE
  8
0
 62
1
 10
1.0
 20
0.246
 30
0.0
 40
0.008
  0
ENDBLK
  8
0
  0
BLOCK
  8
0
  2
CIRCLE058
 70
0
 10
0.0
 20
0.0
 30
0.0
  3
CIRCLE058
  1

  0
CIRCLE
  8
0
 62
1
 10
1.3
 20
0.246
 30
0.0
 40
0.008
  0
ENDBLK
  8
0
  0
BLOCK
  8
0
  2
CIRCLE059
 70
0
 10
0.0
 20
0.0
 30
0.0
  3
CIRCLE059
  1

  0
CIRCLE
  8
0
 62
1
 10
1.6
 20
0.246
 30
0.0
 40
0.008
  0
ENDBLK
  8
0
  0
BLOCK
  8
0
  2
CIRCLE060
 70
0
 10
0.0
 20
0.0
 30
0.0
  3
CIRCLE060
  1

  0
CIRCLE
  8
0
 62
1
 10
1.9000000000000001
 20
0.246
 30
0.0
 40
0.008
  0
ENDBLK
  8
0
  0
BLOCK
  8
0
  2
CIRCLE061
 70
0
 10
0.0
 20
0.0
 30
0.0
  3
CIRCLE061
  1

  0
CIRCLE
  8
0
 62
1
 10
2.2
 20
0.246
 30
0.0
 40
0.008
  0
ENDBLK
  8
0
  0
BLOCK
  8
0
  2
CIRCLE062
 70
0
 10
0.0
 20
0.0
 30
0.0
  3
CIRCLE062
  1

  0
CIRCLE
  8
0
 62
1
 10
2.5
 20
0.246
 30
0.0
 40
0.008
  0
ENDBLK
  8
0
  0
BLOCK
  8
0
  2
CIRCLE063
 70
0
 10
0.0
 20
0.0
 30
0.0
  3
CIRCLE063
  1

  0
CIRCLE
  8
0
 62
1
 10
2.8
 20
0.246
 30
0.0
 40
0.008
  0
ENDBLK
  8
0
  0
BLOCK
  8
0
  2
CIRCLE064
 70
0
 10
0.0
 20
0.0
 30
0.0
  3
CIRCLE064
  1

  0
CIRCLE
  8
0
 62
1
 10
3.0999999999999996
 20
0.246
 30
0.0
 40
0.008
  0
ENDBLK
  8
0
  0
BLOCK
  8
0
  2
CIRCLE065
 70
0
 10
0.0
 20
0.0
 30
0.0
  3
CIRCLE065
  1

  0
CIRCLE
  8
0
 62
1
 10
3.3999999999999995
 20
0.246
 30
0.0
 40
0.008
  0
ENDBLK
  8
0
  0
BLOCK
  8
0
  2
CIRCLE066
 70
0
 10
0.0
 20
0.0
 30
0.0
  3
CIRCLE066
  1

  0
CIRCLE
  8
0
 62
1
 10
3.6999999999999993
 20
0.246
 30
0.0
 40
0.008
  0
ENDBLK
  8
0
  0
BLOCK
  8
0
  2
LINE009
 70
0
 10
0.0
 20
0.0
 30
0.0
  3
LINE009
  1

  0
LINE
  8
0
 62
2
 10
2.8599999999999994
 20
0.546
 30
0.0
 11
3.6999999999999997
 21
0.24600000000000005
 31
0.0
  0
ENDBLK
  8
0
  0
BLOCK
  8
0
  2
WIRE010
 70
0
 10
0.0
 20
0.0
 30
0.0
  3
WIRE010
  1

  0
LINE
  8
0
 62
3
 10
5.138
 20
0.06
 30
0.0
 11
5.138
 21
0.21399999999999997
 31
0.0
  0
ARC
  8
0
 62
3
 10
5.17
 20
0.2139999999999998
 30
0.0
 40
0.032000000000000105
 50
90.0
 51
180.0
  0
LINE
  8
0
 62
3
 10
5.17
 20
0.246
 30
0.0
 11
10.03
 21
0.246
 31
0.0
  0
ARC
  8
0
 62
3
 10
10.030000000000001
 20
0.2140000000000013
 30
0.0
 40
0.031999999999998446
 50
-0.0
 51
90.00000000000318
  0
LINE
  8
0
 62
3
 10
10.062
 20
0.21399999999999997
 30
0.0
 11
10.062
 21
0.06
 31
0.0
  0
ENDBLK
  8
0
  0
BLOCK
  8
0
  2
LINE010
 70
0
 10
0.0
 20
0.0
 30
0.0
  3
LINE010
  1

  0
LINE
  8
0
 62
6
 10
5.138
 20
0.05999999999999961
 30
0.0
 11
5.1315295238724365
 21
0.08414814565722666
 31
0.0
  0
ENDBLK
  8
0
  0
BLOCK
  8
0
  2
LINE011
 70
0
 10
0.0
 20
0.0
 30
0.0
  3
LINE011
  1

  0
LINE
  8
0
 62
6
 10
10.062
 20
0.06000000000000005
 30
0.0
 11
10.068470476127564
 21
0.08414814565722659
 31
0.0
  0
ENDBLK
  8
0
  0
BLOCK
  8
0
  2
WIRE011
 70
0
 10
0.0
 20
0.0
 30
0.0
  3
WIRE011
  1

  0
LINE
  8
0
 62
2
 10
7.6
 20
0.24600000000000002
 30
0.0
 11
7.3
 21
0.646
 31
0.0
  0
LINE
  8
0
 62
2
 10
7.3
 20
0.646
 30
0.0
 11
7.225
 21
0.646
 31
0.0
  0
ENDBLK
  8
0
  0
BLOCK
  8
0
  2
CIRCLE067
 70
0
 10
0.0
 20
0.0
 30
0.0
  3
CIRCLE067
  1

  0
CIRCLE
  8
0
 62
2
 10
7.1499999999999995
 20
0.646
 30
0.0
 40
0.075
  0
ENDBLK
  8
0
  0
BLOCK
  8
0
  2
SHAPE005
 70
0
 10
0.0
 20
0.0
 30
0.0
  3
SHAPE005
  1

  0
LINE
  8
0
 62
0
 10
6.182499999999999
 20
0.5948321850127988
 30
0.0
 11
6.182499999999999
 21
0.6089974977666575
 31
0.0
  0
LINE
  8
0
 62
0
 10
6.182499999999999
 20
0.6089974977666575
 30
0.0
 11
6.557499999999999
 21
0.6089974977666575
 31
0.0
  0
LINE
  8
0
 62
0
 10
6.557499999999999
 20
0.6089974977666575
 30
0.0
 11
6.557499999999999
 21
0.5948321850127988
 31
0.0
  0
ENDBLK
  8
0
  0
BLOCK
  8
0
  2
SHAPE006
 70
0
 10
0.0
 20
0.0
 30
0.0
  3
SHAPE006
  1

  0
LINE
  8
0
 62
4
 10
5.1
 20
0.0
 30
0.0
 11
5.1
 21
0.3
 31
0.0
  0
LINE
  8
0
 62
4
 10
5.1
 20
0.3
 30
0.0
 11
10.1
 21
0.3
 31
0.0
  0
LINE
  8
0
 62
4
 10
10.1
 20
0.3
 30
0.0
 11
10.1
 21
0.0
 31
0.0
  0
LINE
  8
0
 62
4
 10
10.1
 20
0.0
 30
0.0
 11
5.1
 21
0.0
 31
0.0
  0
ENDBLK
  8
0
  0
BLOCK
  8
0
  2
WIRE012
 70
0
 10
0.0
 20
0.0
 30
0.0
  3
WIRE012
  1

  0
LINE
  8
0
 62
2
 10
5.199999999999999
 20
2.3379999999999996
 30
0.0
 11
8.2
 21
2.038
 31
0.0
  0
LINE
  8
0
 62
2
 10
8.2
 20
2.038
 30
0.0
 11
8.274999999999999
 21
2.038
 31
0.0
  0
ENDBLK
  8
0
  0
BLOCK
  8
0
  2
SHAPE007
 70
0
 10
0.0
 20
0.0
 30
0.0
  3
SHAPE007
  1

  0
LINE
  8
0
 62
0
 10
8.349999999999998
 20
2.113
 30
0.0
 11
8.424999999999997
 21
2.113
 31
0.0
  0
ARC
  8
0
 62
0
 10
8.349999999999998
 20
2.038
 30
0.0
 40
0.0749999999999998
 50
90.0
 51
-90.0
  0
LINE
  8
0
 62
0
 10
8.349999999999998
 20
1.9629999999999999
 30
0.0
 11
8.424999999999997
 21
1.9629999999999999
 31
0.0
  0
ARC
  8
0
 62
0
 10
8.424999999999999
 20
2.038
 30
0.0
 40
0.0749999999999998
 50
-90.00000000000136
 51
90.00000000000136
  0
ENDBLK
  8
0
  0
BLOCK
  8
0
  2
CIRCLE068
 70
0
 10
0.0
 20
0.0
 30
0.0
  3
CIRCLE068
  1

  0
CIRCLE
  8
0
 62
1
 10
5.199999999999999
 20
2.3379999999999996
 30
0.0
 40
0.008
  0
ENDBLK
  8
0
  0
BLOCK
  8
0
  2
CIRCLE069
 70
0
 10
0.0
 20
0.0
 30
0.0
  3
CIRCLE069
  1

  0
CIRCLE
  8
0
 62
1
 10
5.499999999999999
 20
2.3379999999999996
 30
0.0
 40
0.008
  0
ENDBLK
  8
0
  0
BLOCK
  8
0
  2
CIRCLE070
 70
0
 10
0.0
 20
0.0
 30
0.0
  3
CIRCLE070
  1

  0
CIRCLE
  8
0
 62
1
 10
5.799999999999999
 20
2.3379999999999996
 30
0.0
 40
0.008
  0
ENDBLK
  8
0
  0
BLOCK
  8
0
  2
CIRCLE071
 70
0
 10
0.0
 20
0.0
 30
0.0
  3
CIRCLE071
  1

  0
CIRCLE
  8
0
 62
1
 10
6.099999999999999
 20
2.3379999999999996
 30
0.0
 40
0.008
  0
ENDBLK
  8
0
  0
BLOCK
  8
0
  2
CIRCLE072
 70
0
 10
0.0
 20
0.0
 30
0.0
  3
CIRCLE072
  1

  0
CIRCLE
  8
0
 62
1
 10
6.399999999999999
 20
2.3379999999999996
 30
0.0
 40
0.008
  0
ENDBLK
  8
0
  0
BLOCK
  8
0
  2
CIRCLE073
 70
0
 10
0.0
 20
0.0
 30
0.0
  3
CIRCLE073
  1

  0
CIRCLE
  8
0
 62
1
 10
6.699999999999998
 20
2.3379999999999996
 30
0.0
 40
0.008
  0
ENDBLK
  8
0
  0
BLOCK
  8
0
  2
CIRCLE074
 70
0
 10
0.0
 20
0.0
 30
0.0
  3
CIRCLE074
  1

  0
CIRCLE
  8
0
 62
1
 10
6.999999999999998
 20
2.3379999999999996
 30
0.0
 40
0.008
  0
ENDBLK
  8
0
  0
BLOCK
  8
0
  2
CIRCLE075
 70
0
 10
0.0
 20
0.0
 30
0.0
  3
CIRCLE075
  1

  0
CIRCLE
  8
0
 62
1
 10
7.299999999999998
 20
2.3379999999999996
 30
0.0
 40
0.008
  0
ENDBLK
  8
0
  0
BLOCK
  8
0
  2
CIRCLE076
 70
0
 10
0.0
 20
0.0
 30
0.0
  3
CIRCLE076
  1

  0
CIRCLE
  8
0
 62
1
 10
7.599999999999998
 20
2.3379999999999996
 30
0.0
 40
0.008
  0
ENDBLK
  8
0
  0
BLOCK
  8
0
  2
CIRCLE077
 70
0
 10
0.0
 20
0.0
 30
0.0
  3
CIRCLE077
  1

  0
CIRCLE
  8
0
 62
1
 10
7.899999999999998
 20
2.3379999999999996
 30
0.0
 40
0.008
  0
ENDBLK
  8
0
  0
BLOCK
  8
0
  2
CIRCLE078
 70
0
 10
0.0
 20
0.0
 30
0.0
  3
CIRCLE078
  1

  0
CIRCLE
  8
0
 62
1
 10
8.199999999999998
 20
2.3379999999999996
 30
0.0
 40
0.008
  0
ENDBLK
  8
0
  0
BLOCK
  8
0
  2
CIRCLE079
 70
0
 10
0.0
 20
0.0
 30
0.0
  3
CIRCLE079
  1

  0
CIRCLE
  8
0
 62
1
 10
8.499999999999998
 20
2.3379999999999996
 30
0.0
 40
0.008
  0
ENDBLK
  8
0
  0
BLOCK
  8
0
  2
CIRCLE080
 70
0
 10
0.0
 20
0.0
 30
0.0
  3
CIRCLE080
  1

  0
CIRCLE
  8
0
 62
1
 10
8.799999999999999
 20
2.3379999999999996
 30
0.0
 40
0.008
  0
ENDBLK
  8
0
  0
BLOCK
  8
0
  2
CIRCLE081
 70
0
 10
0.0
 20
0.0
 30
0.0
  3
CIRCLE081
  1

  0
CIRCLE
  8
0
 62
1
 10
9.1
 20
2.3379999999999996
 30
0.0
 40
0.008
  0
ENDBLK
  8
0
  0
BLOCK
  8
0
  2
CIRCLE082
 70
0
 10
0.0
 20
0.0
 30
0.0
  3
CIRCLE082
  1

  0
CIRCLE
  8
0
 62
1
 10
9.4
 20
2.3379999999999996
 30
0.0
 40
0.008
  0
ENDBLK
  8
0
  0
BLOCK
  8
0
  2
CIRCLE083
 70
0
 10
0.0
 20
0.0
 30
0.0
  3
CIRCLE083
  1

  0
CIRCLE
  8
0
 62
1
 10
9.700000000000001
 20
2.3379999999999996
 30
0.0
 40
0.008
  0
ENDBLK
  8
0
  0
BLOCK
  8
0
  2
CIRCLE084
 70
0
 10
0.0
 20
0.0
 30
0.0
  3
CIRCLE084
  1

  0
CIRCLE
  8
0
 62
1
 10
10.000000000000002
 20
2.3379999999999996
 30
0.0
 40
0.008
  0
ENDBLK
  8
0
  0
BLOCK
  8
0
  2
LINE012
 70
0
 10
0.0
 20
0.0
 30
0.0
  3
LINE012
  1

  0
LINE
  8
0
 62
2
 10
8.2
 20
2.038
 30
0.0
 11
10.0
 21
2.3379999999999996
 31
0.0
  0
ENDBLK
  8
0
  0
BLOCK
  8
0
  2
WIRE013
 70
0
 10
0.0
 20
0.0
 30
0.0
  3
WIRE013
  1

  0
LINE
  8
0
 62
3
 10
0.038
 20
2.5399999999999996
 30
0.0
 11
0.038
 21
2.3699999999999997
 31
0.0
  0
ARC
  8
0
 62
3
 10
0.07000000000000019
 20
2.3699999999999997
 30
0.0
 40
0.0320000000000001
 50
-180.0
 51
-90.00000000000033
  0
LINE
  8
0
 62
3
 10
0.07
 20
2.3379999999999996
 30
0.0
 11
4.029999999999999
 21
2.3379999999999996
 31
0.0
  0
ARC
  8
0
 62
3
 10
4.029999999999999
 20
2.37
 30
0.0
 40
0.03200000000000023
 50
-90.0
 51
-0.0
  0
LINE
  8
0
 62
3
 10
4.061999999999999
 20
2.3699999999999997
 30
0.0
 11
4.061999999999999
 21
2.5399999999999996
 31
0.0
  0
ENDBLK
  8
0
  0
BLOCK
  8
0
  2
LINE013
 70
0
 10
0.0
 20
0.0
 30
0.0
  3
LINE013
  1

  0
LINE
  8
0
 62
6
 10
0.038000000000000145
 20
2.539999999999999
 30
0.0
 11
0.044470476127563024
 21
2.515851854342773
 31
0.0
  0
ENDBLK
  8
0
  0
BLOCK
  8
0
  2
LINE014
 70
0
 10
0.0
 20
0.0
 30
0.0
  3
LINE014
  1

  0
LINE
  8
0
 62
6
 10
4.061999999999999
 20
2.54
 30
0.0
 11
4.055529523872437
 21
2.5158518543427735
 31
0.0
  0
ENDBLK
  8
0
  0
BLOCK
  8
0
  2
WIRE014
 70
0
 10
0.0
 20
0.0
 30
0.0
  3
WIRE014
  1

  0
LINE
  8
0
 62
2
 10
2.05
 20
2.3379999999999996
 30
0.0
 11
1.7499999999999998
 21
1.9379999999999997
 31
0.0
  0
LINE
  8
0
 62
2
 10
1.7499999999999998
 20
1.9379999999999997
 30
0.0
 11
1.6749999999999998
 21
1.9379999999999997
 31
0.0
  0
ENDBLK
  8
0
  0
BLOCK
  8
0
  2
SHAPE008
 70
0
 10
0.0
 20
0.0
 30
0.0
  3
SHAPE008
  1

  0
LINE
  8
0
 62
0
 10
1.5999999999999999
 20
2.013
 30
0.0
 11
1.525
 21
2.013
 31
0.0
  0
ARC
  8
0
 62
0
 10
1.5999999999999996
 20
1.9379999999999997
 30
0.0
 40
0.07500000000000011
 50
-89.99999999999983
 51
89.99999999999983
  0
LINE
  8
0
 62
0
 10
1.5999999999999999
 20
1.8629999999999998
 30
0.0
 11
1.525
 21
1.8629999999999998
 31
0.0
  0
ARC
  8
0
 62
0
 10
1.525
 20
1.9379999999999997
 30
0.0
 40
0.07500000000000002
 50
90.0
 51
-90.0
  0
ENDBLK
  8
0
  0
BLOCK
  8
0
  2
SHAPE009
 70
0
 10
0.0
 20
0.0
 30
0.0
  3
SHAPE009
  1

  0
LINE
  8
0
 62
0
 10
0.5799999999999996
 20
1.9184657993771785
 30
0.0
 11
0.5799999999999996
 21
1.899641246693282
 31
0.0
  0
LINE
  8
0
 62
0
 10
0.5799999999999996
 20
1.8996412466932817
 30
0.0
 11
0.9549999999999996
 21
1.8996412466932817
 31
0.0
  0
LINE
  8
0
 62
0
 10
0.9549999999999996
 20
1.8996412466932817
 30
0.0
 11
0.9549999999999996
 21
1.9184657993771783
 31
0.0
  0
ENDBLK
  8
0
  0
BLOCK
  8
0
  2
WIRE015
 70
0
 10
0.0
 20
0.0
 30
0.0
  3
WIRE015
  1

  0
LINE
  8
0
 62
2
 10
5.199999999999999
 20
2.562
 30
0.0
 11
8.2
 21
2.8619999999999997
 31
0.0
  0
LINE
  8
0
 62
2
 10
8.2
 20
2.8619999999999997
 30
0.0
 11
8.274999999999999
 21
2.8619999999999997
 31
0.0
  0
ENDBLK
  8
0
  0
BLOCK
  8
0
  2
SHAPE010
 70
0
 10
0.0
 20
0.0
 30
0.0
  3
SHAPE010
  1

  0
LINE
  8
0
 62
0
 10
8.349999999999998
 20
2.937
 30
0.0
 11
8.424999999999997
 21
2.937
 31
0.0
  0
ARC
  8
0
 62
0
 10
8.349999999999998
 20
2.8619999999999997
 30
0.0
 40
0.07499999999999989
 50
90.0
 51
-90.0
  0
LINE
  8
0
 62
0
 10
8.349999999999998
 20
2.7869999999999995
 30
0.0
 11
8.424999999999997
 21
2.7869999999999995
 31
0.0
  0
ARC
  8
0
 62
0
 10
8.424999999999999
 20
2.8619999999999997
 30
0.0
 40
0.07499999999999989
 50
-90.00000000000136
 51
90.00000000000136
  0
ENDBLK
  8
0
  0
BLOCK
  8
0
  2
CIRCLE085
 70
0
 10
0.0
 20
0.0
 30
0.0
  3
CIRCLE085
  1

  0
CIRCLE
  8
0
 62
1
 10
5.199999999999999
 20
2.562
 30
0.0
 40
0.008
  0
ENDBLK
  8
0
  0
BLOCK
  8
0
  2
CIRCLE086
 70
0
 10
0.0
 20
0.0
 30
0.0
  3
CIRCLE086
  1

  0
CIRCLE
  8
0
 62
1
 10
5.499999999999999
 20
2.562
 30
0.0
 40
0.008
  0
ENDBLK
  8
0
  0
BLOCK
  8
0
  2
CIRCLE087
 70
0
 10
0.0
 20
0.0
 30
0.0
  3
CIRCLE087
  1

  0
CIRCLE
  8
0
 62
1
 10
5.799999999999999
 20
2.562
 30
0.0
 40
0.008
  0
ENDBLK
  8
0
  0
BLOCK
  8
0
  2
CIRCLE088
 70
0
 10
0.0
 20
0.0
 30
0.0
  3
CIRCLE088
  1

  0
CIRCLE
  8
0
 62
1
 10
6.099999999999999
 20
2.562
 30
0.0
 40
0.008
  0
ENDBLK
  8
0
  0
BLOCK
  8
0
  2
CIRCLE089
 70
0
 10
0.0
 20
0.0
 30
0.0
  3
CIRCLE089
  1

  0
CIRCLE
  8
0
 62
1
 10
6.399999999999999
 20
2.562
 30
0.0
 40
0.008
  0
ENDBLK
  8
0
  0
BLOCK
  8
0
  2
CIRCLE090
 70
0
 10
0.0
 20
0.0
 30
0.0
  3
CIRCLE090
  1

  0
CIRCLE
  8
0
 62
1
 10
6.699999999999998
 20
2.562
 30
0.0
 40
0.008
  0
ENDBLK
  8
0
  0
BLOCK
  8
0
  2
CIRCLE091
 70
0
 10
0.0
 20
0.0
 30
0.0
  3
CIRCLE091
  1

  0
CIRCLE
  8
0
 62
1
 10
6.999999999999998
 20
2.562
 30
0.0
 40
0.008
  0
ENDBLK
  8
0
  0
BLOCK
  8
0
  2
CIRCLE092
 70
0
 10
0.0
 20
0.0
 30
0.0
  3
CIRCLE092
  1

  0
CIRCLE
  8
0
 62
1
 10
7.299999999999998
 20
2.562
 30
0.0
 40
0.008
  0
ENDBLK
  8
0
  0
BLOCK
  8
0
  2
CIRCLE093
 70
0
 10
0.0
 20
0.0
 30
0.0
  3
CIRCLE093
  1

  0
CIRCLE
  8
0
 62
1
 10
7.599999999999998
 20
2.562
 30
0.0
 40
0.008
  0
ENDBLK
  8
0
  0
BLOCK
  8
0
  2
CIRCLE094
 70
0
 10
0.0
 20
0.0
 30
0.0
  3
CIRCLE094
  1

  0
CIRCLE
  8
0
 62
1
 10
7.899999999999998
 20
2.562
 30
0.0
 40
0.008
  0
ENDBLK
  8
0
  0
BLOCK
  8
0
  2
CIRCLE095
 70
0
 10
0.0
 20
0.0
 30
0.0
  3
CIRCLE095
  1

  0
CIRCLE
  8
0
 62
1
 10
8.199999999999998
 20
2.562
 30
0.0
 40
0.008
  0
ENDBLK
  8
0
  0
BLOCK
  8
0
  2
CIRCLE096
 70
0
 10
0.0
 20
0.0
 30
0.0
  3
CIRCLE096
  1

  0
CIRCLE
  8
0
 62
1
 10
8.499999999999998
 20
2.562
 30
0.0
 40
0.008
  0
ENDBLK
  8
0
  0
BLOCK
  8
0
  2
CIRCLE097
 70
0
 10
0.0
 20
0.0
 30
0.0
  3
CIRCLE097
  1

  0
CIRCLE
  8
0
 62
1
 10
8.799999999999999
 20
2.562
 30
0.0
 40
0.008
  0
ENDBLK
  8
0
  0
BLOCK
  8
0
  2
CIRCLE098
 70
0
 10
0.0
 20
0.0
 30
0.0
  3
CIRCLE098
  1

  0
CIRCLE
  8
0
 62
1
 10
9.1
 20
2.562
 30
0.0
 40
0.008
  0
ENDBLK
  8
0
  0
BLOCK
  8
0
  2
CIRCLE099
 70
0
 10
0.0
 20
0.0
 30
0.0
  3
CIRCLE099
  1

  0
CIRCLE
  8
0
 62
1
 10
9.4
 20
2.562
 30
0.0
 40
0.008
  0
ENDBLK
  8
0
  0
BLOCK
  8
0
  2
CIRCLE100
 70
0
 10
0.0
 20
0.0
 30
0.0
  3
CIRCLE100
  1

  0
CIRCLE
  8
0
 62
1
 10
9.700000000000001
 20
2.562
 30
0.0
 40
0.008
  0
ENDBLK
  8
0
  0
BLOCK
  8
0
  2
CIRCLE101
 70
0
 10
0.0
 20
0.0
 30
0.0
  3
CIRCLE101
  1

  0
CIRCLE
  8
0
 62
1
 10
10.000000000000002
 20
2.562
 30
0.0
 40
0.008
  0
ENDBLK
  8
0
  0
BLOCK
  8
0
  2
LINE015
 70
0
 10
0.0
 20
0.0
 30
0.0
  3
LINE015
  1

  0
LINE
  8
0
 62
2
 10
8.2
 20
2.8619999999999997
 30
0.0
 11
10.0
 21
2.562
 31
0.0
  0
ENDBLK
  8
0
  0
BLOCK
  8
0
  2
WIRE016
 70
0
 10
0.0
 20
0.0
 30
0.0
  3
WIRE016
  1

  0
LINE
  8
0
 62
3
 10
0.038
 20
2.36
 30
0.0
 11
0.038
 21
2.53
 31
0.0
  0
ARC
  8
0
 62
3
 10
0.07000000000000019
 20
2.53
 30
0.0
 40
0.0320000000000001
 50
90.00000000000033
 51
-180.0
  0
LINE
  8
0
 62
3
 10
0.07
 20
2.562
 30
0.0
 11
4.029999999999999
 21
2.562
 31
0.0
  0
ARC
  8
0
 62
3
 10
4.029999999999999
 20
2.5299999999999994
 30
0.0
 40
0.03200000000000023
 50
0.0
 51
90.0
  0
LINE
  8
0
 62
3
 10
4.061999999999999
 20
2.53
 30
0.0
 11
4.061999999999999
 21
2.36
 31
0.0
  0
ENDBLK
  8
0
  0
BLOCK
  8
0
  2
LINE016
 70
0
 10
0.0
 20
0.0
 30
0.0
  3
LINE016
  1

  0
LINE
  8
0
 62
6
 10
0.038000000000000145
 20
2.36
 30
0.0
 11
0.031529523872437
 21
2.384148145657227
 31
0.0
  0
ENDBLK
  8
0
  0
BLOCK
  8
0
  2
LINE017
 70
0
 10
0.0
 20
0.0
 30
0.0
  3
LINE017
  1

  0
LINE
  8
0
 62
6
 10
4.062
 20
2.3600000000000003
 30
0.0
 11
4.068470476127564
 21
2.3841481456572273
 31
0.0
  0
ENDBLK
  8
0
  0
BLOCK
  8
0
  2
WIRE017
 70
0
 10
0.0
 20
0.0
 30
0.0
  3
WIRE017
  1

  0
LINE
  8
0
 62
2
 10
2.05
 20
2.562
 30
0.0
 11
1.7499999999999998
 21
2.9619999999999997
 31
0.0
  0
LINE
  8
0
 62
2
 10
1.7499999999999998
 20
2.9619999999999997
 30
0.0
 11
1.6749999999999998
 21
2.9619999999999997
 31
0.0
  0
ENDBLK
  8
0
  0
BLOCK
  8
0
  2
SHAPE011
 70
0
 10
0.0
 20
0.0
 30
0.0
  3
SHAPE011
  1

  0
LINE
  8
0
 62
0
 10
1.5999999999999999
 20
3.037
 30
0.0
 11
1.525
 21
3.037
 31
0.0
  0
ARC
  8
0
 62
0
 10
1.5999999999999996
 20
2.9619999999999997
 30
0.0
 40
0.07500000000000018
 50
-89.99999999999983
 51
89.99999999999983
  0
LINE
  8
0
 62
0
 10
1.5999999999999999
 20
2.8869999999999996
 30
0.0
 11
1.525
 21
2.8869999999999996
 31
0.0
  0
ARC
  8
0
 62
0
 10
1.525
 20
2.9619999999999997
 30
0.0
 40
0.07500000000000011
 50
90.0
 51
-90.0
  0
ENDBLK
  8
0
  0
BLOCK
  8
0
  2
SHAPE012
 70
0
 10
0.0
 20
0.0
 30
0.0
  3
SHAPE012
  1

  0
LINE
  8
0
 62
0
 10
0.5799999999999996
 20
2.906534200622821
 30
0.0
 11
0.5799999999999996
 21
2.925358753306718
 31
0.0
  0
LINE
  8
0
 62
0
 10
0.5799999999999996
 20
2.925358753306718
 30
0.0
 11
0.9549999999999996
 21
2.925358753306718
 31
0.0
  0
LINE
  8
0
 62
0
 10
0.9549999999999996
 20
2.925358753306718
 30
0.0
 11
0.9549999999999996
 21
2.906534200622821
 31
0.0
  0
ENDBLK
  8
0
  0
BLOCK
  8
0
  2
WIRE018
 70
0
 10
0.0
 20
0.0
 30
0.0
  3
WIRE018
  1

  0
LINE
  8
0
 62
2
 10
0.4000000000000001
 20
2.3539999999999996
 30
0.0
 11
2.86
 21
2.054
 31
0.0
  0
LINE
  8
0
 62
2
 10
2.8599999999999994
 20
2.054
 30
0.0
 11
2.9349999999999996
 21
2.054
 31
0.0
  0
ENDBLK
  8
0
  0
BLOCK
  8
0
  2
SHAPE013
 70
0
 10
0.0
 20
0.0
 30
0.0
  3
SHAPE013
  1

  0
LINE
  8
0
 62
0
 10
3.01
 20
2.129
 30
0.0
 11
3.085
 21
2.129
 31
0.0
  0
ARC
  8
0
 62
0
 10
3.01
 20
2.054
 30
0.0
 40
0.07500000000000011
 50
90.0
 51
-90.0
  0
LINE
  8
0
 62
0
 10
3.01
 20
1.9789999999999999
 30
0.0
 11
3.085
 21
1.9789999999999999
 31
0.0
  0
ARC
  8
0
 62
0
 10
3.0849999999999995
 20
2.054
 30
0.0
 40
0.07500000000000011
 50
-89.99999999999967
 51
89.99999999999967
  0
ENDBLK
  8
0
  0
BLOCK
  8
0
  2
CIRCLE102
 70
0
 10
0.0
 20
0.0
 30
0.0
  3
CIRCLE102
  1

  0
CIRCLE
  8
0
 62
1
 10
0.4000000000000001
 20
2.3539999999999996
 30
0.0
 40
0.008
  0
ENDBLK
  8
0
  0
BLOCK
  8
0
  2
CIRCLE103
 70
0
 10
0.0
 20
0.0
 30
0.0
  3
CIRCLE103
  1

  0
CIRCLE
  8
0
 62
1
 10
0.7000000000000001
 20
2.3539999999999996
 30
0.0
 40
0.008
  0
ENDBLK
  8
0
  0
BLOCK
  8
0
  2
CIRCLE104
 70
0
 10
0.0
 20
0.0
 30
0.0
  3
CIRCLE104
  1

  0
CIRCLE
  8
0
 62
1
 10
1.0
 20
2.3539999999999996
 30
0.0
 40
0.008
  0
ENDBLK
  8
0
  0
BLOCK
  8
0
  2
CIRCLE105
 70
0
 10
0.0
 20
0.0
 30
0.0
  3
CIRCLE105
  1

  0
CIRCLE
  8
0
 62
1
 10
1.3
 20
2.3539999999999996
 30
0.0
 40
0.008
  0
ENDBLK
  8
0
  0
BLOCK
  8
0
  2
CIRCLE106
 70
0
 10
0.0
 20
0.0
 30
0.0
  3
CIRCLE106
  1

  0
CIRCLE
  8
0
 62
1
 10
1.6
 20
2.3539999999999996
 30
0.0
 40
0.008
  0
ENDBLK
  8
0
  0
BLOCK
  8
0
  2
CIRCLE107
 70
0
 10
0.0
 20
0.0
 30
0.0
  3
CIRCLE107
  1

  0
CIRCLE
  8
0
 62
1
 10
1.9000000000000001
 20
2.3539999999999996
 30
0.0
 40
0.008
  0
ENDBLK
  8
0
  0
BLOCK
  8
0
  2
CIRCLE108
 70
0
 10
0.0
 20
0.0
 30
0.0
  3
CIRCLE108
  1

  0
CIRCLE
  8
0
 62
1
 10
2.2
 20
2.3539999999999996
 30
0.0
 40
0.008
  0
ENDBLK
  8
0
  0
BLOCK
  8
0
  2
CIRCLE109
 70
0
 10
0.0
 20
0.0
 30
0.0
  3
CIRCLE109
  1

  0
CIRCLE
  8
0
 62
1
 10
2.5
 20
2.3539999999999996
 30
0.0
 40
0.008
  0
ENDBLK
  8
0
  0
BLOCK
  8
0
  2
CIRCLE110
 70
0
 10
0.0
 20
0.0
 30
0.0
  3
CIRCLE110
  1

  0
CIRCLE
  8
0
 62
1
 10
2.8
 20
2.3539999999999996
 30
0.0
 40
0.008
  0
ENDBLK
  8
0
  0
BLOCK
  8
0
  2
CIRCLE111
 70
0
 10
0.0
 20
0.0
 30
0.0
  3
CIRCLE111
  1

  0
CIRCLE
  8
0
 62
1
 10
3.0999999999999996
 20
2.3539999999999996
 30
0.0
 40
0.008
  0
ENDBLK
  8
0
  0
BLOCK
  8
0
  2
CIRCLE112
 70
0
 10
0.0
 20
0.0
 30
0.0
  3
CIRCLE112
  1

  0
CIRCLE
  8
0
 62
1
 10
3.3999999999999995
 20
2.3539999999999996
 30
0.0
 40
0.008
  0
ENDBLK
  8
0
  0
BLOCK
  8
0
  2
CIRCLE113
 70
0
 10
0.0
 20
0.0
 30
0.0
  3
CIRCLE113
  1

  0
CIRCLE
  8
0
 62
1
 10
3.6999999999999993
 20
2.3539999999999996
 30
0.0
 40
0.008
  0
ENDBLK
  8
0
  0
BLOCK
  8
0
  2
LINE018
 70
0
 10
0.0
 20
0.0
 30
0.0
  3
LINE018
  1

  0
LINE
  8
0
 62
2
 10
2.8599999999999994
 20
2.054
 30
0.0
 11
3.6999999999999997
 21
2.3539999999999996
 31
0.0
  0
ENDBLK
  8
0
  0
BLOCK
  8
0
  2
WIRE019
 70
0
 10
0.0
 20
0.0
 30
0.0
  3
WIRE019
  1

  0
LINE
  8
0
 62
3
 10
5.138
 20
2.5399999999999996
 30
0.0
 11
5.138
 21
2.3859999999999997
 31
0.0
  0
ARC
  8
0
 62
3
 10
5.17
 20
2.386
 30
0.0
 40
0.03200000000000023
 50
-180.0
 51
-90.0
  0
LINE
  8
0
 62
3
 10
5.17
 20
2.3539999999999996
 30
0.0
 11
10.03
 21
2.3539999999999996
 31
0.0
  0
ARC
  8
0
 62
3
 10
10.030000000000001
 20
2.3859999999999983
 30
0.0
 40
0.03199999999999842
 50
-90.00000000000318
 51
0.0
  0
LINE
  8
0
 62
3
 10
10.062
 20
2.3859999999999997
 30
0.0
 11
10.062
 21
2.5399999999999996
 31
0.0
  0
ENDBLK
  8
0
  0
BLOCK
  8
0
  2
LINE019
 70
0
 10
0.0
 20
0.0
 30
0.0
  3
LINE019
  1

  0
LINE
  8
0
 62
6
 10
5.137999999999999
 20
2.5399999999999987
 30
0.0
 11
5.1444704761275615
 21
2.5158518543427726
 31
0.0
  0
ENDBLK
  8
0
  0
BLOCK
  8
0
  2
LINE020
 70
0
 10
0.0
 20
0.0
 30
0.0
  3
LINE020
  1

  0
LINE
  8
0
 62
6
 10
10.062000000000001
 20
2.539999999999999
 30
0.0
 11
10.055529523872439
 21
2.515851854342772
 31
0.0
  0
ENDBLK
  8
0
  0
BLOCK
  8
0
  2
WIRE020
 70
0
 10
0.0
 20
0.0
 30
0.0
  3
WIRE020
  1

  0
LINE
  8
0
 62
2
 10
7.6
 20
2.3539999999999996
 30
0.0
 11
7.3
 21
1.9539999999999997
 31
0.0
  0
LINE
  8
0
 62
2
 10
7.3
 20
1.9539999999999997
 30
0.0
 11
7.225
 21
1.9539999999999997
 31
0.0
  0
ENDBLK
  8
0
  0
BLOCK
  8
0
  2
SHAPE014
 70
0
 10
0.0
 20
0.0
 30
0.0
  3
SHAPE014
  1

  0
LINE
  8
0
 62
0
 10
7.1499999999999995
 20
2.029
 30
0.0
 11
7.074999999999999
 21
2.029
 31
0.0
  0
ARC
  8
0
 62
0
 10
7.15
 20
1.9539999999999997
 30
0.0
 40
0.0749999999999998
 50
-90.00000000000068
 51
90.00000000000068
  0
LINE
  8
0
 62
0
 10
7.1499999999999995
 20
1.8789999999999998
 30
0.0
 11
7.074999999999999
 21
1.8789999999999998
 31
0.0
  0
ARC
  8
0
 62
0
 10
7.074999999999999
 20
1.9539999999999997
 30
0.0
 40
0.07500000000000011
 50
90.0
 51
-90.0
  0
ENDBLK
  8
0
  0
BLOCK
  8
0
  2
SHAPE015
 70
0
 10
0.0
 20
0.0
 30
0.0
  3
SHAPE015
  1

  0
LINE
  8
0
 62
0
 10
6.129999999999999
 20
1.9301678149872008
 30
0.0
 11
6.129999999999999
 21
1.9160025022333422
 31
0.0
  0
LINE
  8
0
 62
0
 10
6.129999999999999
 20
1.9160025022333422
 30
0.0
 11
6.504999999999999
 21
1.9160025022333422
 31
0.0
  0
LINE
  8
0
 62
0
 10
6.504999999999999
 20
1.9160025022333422
 30
0.0
 11
6.504999999999999
 21
1.9301678149872008
 31
0.0
  0
ENDBLK
  8
0
  0
BLOCK
  8
0
  2
WIRE021
 70
0
 10
0.0
 20
0.0
 30
0.0
  3
WIRE021
  1

  0
LINE
  8
0
 62
2
 10
0.09999999999999987
 20
2.546
 30
0.0
 11
2.5600000000000005
 21
2.8459999999999996
 31
0.0
  0
LINE
  8
0
 62
2
 10
2.5599999999999996
 20
2.8459999999999996
 30
0.0
 11
2.635
 21
2.8459999999999996
 31
0.0
  0
ENDBLK
  8
0
  0
BLOCK
  8
0
  2
SHAPE016
 70
0
 10
0.0
 20
0.0
 30
0.0
  3
SHAPE016
  1

  0
LINE
  8
0
 62
0
 10
2.71
 20
2.921
 30
0.0
 11
2.785
 21
2.921
 31
0.0
  0
ARC
  8
0
 62
0
 10
2.71
 20
2.8459999999999996
 30
0.0
 40
0.07500000000000018
 50
90.0
 51
-90.0
  0
LINE
  8
0
 62
0
 10
2.71
 20
2.7709999999999995
 30
0.0
 11
2.785
 21
2.7709999999999995
 31
0.0
  0
ARC
  8
0
 62
0
 10
2.7849999999999993
 20
2.8459999999999996
 30
0.0
 40
0.07500000000000033
 50
-89.99999999999933
 51
89.99999999999933
  0
ENDBLK
  8
0
  0
BLOCK
  8
0
  2
CIRCLE114
 70
0
 10
0.0
 20
0.0
 30
0.0
  3
CIRCLE114
  1

  0
CIRCLE
  8
0
 62
1
 10
0.09999999999999987
 20
2.546
 30
0.0
 40
0.008
  0
ENDBLK
  8
0
  0
BLOCK
  8
0
  2
CIRCLE115
 70
0
 10
0.0
 20
0.0
 30
0.0
  3
CIRCLE115
  1

  0
CIRCLE
  8
0
 62
1
 10
0.39999999999999986
 20
2.546
 30
0.0
 40
0.008
  0
ENDBLK
  8
0
  0
BLOCK
  8
0
  2
CIRCLE116
 70
0
 10
0.0
 20
0.0
 30
0.0
  3
CIRCLE116
  1

  0
CIRCLE
  8
0
 62
1
 10
0.6999999999999998
 20
2.546
 30
0.0
 40
0.008
  0
ENDBLK
  8
0
  0
BLOCK
  8
0
  2
CIRCLE117
 70
0
 10
0.0
 20
0.0
 30
0.0
  3
CIRCLE117
  1

  0
CIRCLE
  8
0
 62
1
 10
0.9999999999999998
 20
2.546
 30
0.0
 40
0.008
  0
ENDBLK
  8
0
  0
BLOCK
  8
0
  2
CIRCLE118
 70
0
 10
0.0
 20
0.0
 30
0.0
  3
CIRCLE118
  1

  0
CIRCLE
  8
0
 62
1
 10
1.2999999999999998
 20
2.546
 30
0.0
 40
0.008
  0
ENDBLK
  8
0
  0
BLOCK
  8
0
  2
CIRCLE119
 70
0
 10
0.0
 20
0.0
 30
0.0
  3
CIRCLE119
  1

  0
CIRCLE
  8
0
 62
1
 10
1.5999999999999999
 20
2.546
 30
0.0
 40
0.008
  0
ENDBLK
  8
0
  0
BLOCK
  8
0
  2
CIRCLE120
 70
0
 10
0.0
 20
0.0
 30
0.0
  3
CIRCLE120
  1

  0
CIRCLE
  8
0
 62
1
 10
1.9
 20
2.546
 30
0.0
 40
0.008
  0
ENDBLK
  8
0
  0
BLOCK
  8
0
  2
CIRCLE121
 70
0
 10
0.0
 20
0.0
 30
0.0
  3
CIRCLE121
  1

  0
CIRCLE
  8
0
 62
1
 10
2.1999999999999997
 20
2.546
 30
0.0
 40
0.008
  0
ENDBLK
  8
0
  0
BLOCK
  8
0
  2
CIRCLE122
 70
0
 10
0.0
 20
0.0
 30
0.0
  3
CIRCLE122
  1

  0
CIRCLE
  8
0
 62
1
 10
2.4999999999999996
 20
2.546
 30
0.0
 40
0.008
  0
ENDBLK
  8
0
  0
BLOCK
  8
0
  2
CIRCLE123
 70
0
 10
0.0
 20
0.0
 30
0.0
  3
CIRCLE123
  1

  0
CIRCLE
  8
0
 62
1
 10
2.7999999999999994
 20
2.546
 30
0.0
 40
0.008
  0
ENDBLK
  8
0
  0
BLOCK
  8
0
  2
CIRCLE124
 70
0
 10
0.0
 20
0.0
 30
0.0
  3
CIRCLE124
  1

  0
CIRCLE
  8
0
 62
1
 10
3.099999999999999
 20
2.546
 30
0.0
 40
0.008
  0
ENDBLK
  8
0
  0
BLOCK
  8
0
  2
CIRCLE125
 70
0
 10
0.0
 20
0.0
 30
0.0
  3
CIRCLE125
  1

  0
CIRCLE
  8
0
 62
1
 10
3.399999999999999
 20
2.546
 30
0.0
 40
0.008
  0
ENDBLK
  8
0
  0
BLOCK
  8
0
  2
CIRCLE126
 70
0
 10
0.0
 20
0.0
 30
0.0
  3
CIRCLE126
  1

  0
CIRCLE
  8
0
 62
1
 10
3.699999999999999
 20
2.546
 30
0.0
 40
0.008
  0
ENDBLK
  8
0
  0
BLOCK
  8
0
  2
CIRCLE127
 70
0
 10
0.0
 20
0.0
 30
0.0
  3
CIRCLE127
  1

  0
CIRCLE
  8
0
 62
1
 10
3.9999999999999987
 20
2.546
 30
0.0
 40
0.008
  0
ENDBLK
  8
0
  0
BLOCK
  8
0
  2
LINE021
 70
0
 10
0.0
 20
0.0
 30
0.0
  3
LINE021
  1

  0
LINE
  8
0
 62
2
 10
2.5599999999999996
 20
2.8459999999999996
 30
0.0
 11
3.9999999999999996
 21
2.546
 31
0.0
  0
ENDBLK
  8
0
  0
BLOCK
  8
0
  2
WIRE022
 70
0
 10
0.0
 20
0.0
 30
0.0
  3
WIRE022
  1

  0
LINE
  8
0
 62
3
 10
5.138
 20
2.36
 30
0.0
 11
5.138
 21
2.514
 31
0.0
  0
ARC
  8
0
 62
3
 10
5.17
 20
2.5139999999999993
 30
0.0
 40
0.03200000000000023
 50
90.0
 51
180.0
  0
LINE
  8
0
 62
3
 10
5.17
 20
2.546
 30
0.0
 11
10.03
 21
2.546
 31
0.0
  0
ARC
  8
0
 62
3
 10
10.030000000000001
 20
2.514000000000001
 30
0.0
 40
0.03199999999999842
 50
-0.0
 51
90.00000000000318
  0
LINE
  8
0
 62
3
 10
10.062
 20
2.514
 30
0.0
 11
10.062
 21
2.36
 31
0.0
  0
ENDBLK
  8
0
  0
BLOCK
  8
0
  2
LINE022
 70
0
 10
0.0
 20
0.0
 30
0.0
  3
LINE022
  1

  0
LINE
  8
0
 62
6
 10
5.137999999999999
 20
2.3599999999999994
 30
0.0
 11
5.131529523872436
 21
2.3841481456572264
 31
0.0
  0
ENDBLK
  8
0
  0
BLOCK
  8
0
  2
LINE023
 70
0
 10
0.0
 20
0.0
 30
0.0
  3
LINE023
  1

  0
LINE
  8
0
 62
6
 10
10.062000000000001
 20
2.3599999999999994
 30
0.0
 11
10.068470476127564
 21
2.3841481456572264
 31
0.0
  0
ENDBLK
  8
0
  0
BLOCK
  8
0
  2
WIRE023
 70
0
 10
0.0
 20
0.0
 30
0.0
  3
WIRE023
  1

  0
LINE
  8
0
 62
2
 10
7.6
 20
2.546
 30
0.0
 11
7.3
 21
2.9459999999999997
 31
0.0
  0
LINE
  8
0
 62
2
 10
7.3
 20
2.9459999999999997
 30
0.0
 11
7.225
 21
2.9459999999999997
 31
0.0
  0
ENDBLK
  8
0
  0
BLOCK
  8
0
  2
SHAPE017
 70
0
 10
0.0
 20
0.0
 30
0.0
  3
SHAPE017
  1

  0
LINE
  8
0
 62
0
 10
7.1499999999999995
 20
3.021
 30
0.0
 11
7.074999999999999
 21
3.021
 31
0.0
  0
ARC
  8
0
 62
0
 10
7.1499999999999995
 20
2.9459999999999997
 30
0.0
 40
0.07500000000000018
 50
-90.0
 51
90.0
  0
LINE
  8
0
 62
0
 10
7.1499999999999995
 20
2.8709999999999996
 30
0.0
 11
7.074999999999999
 21
2.8709999999999996
 31
0.0
  0
ARC
  8
0
 62
0
 10
7.075
 20
2.9459999999999997
 30
0.0
 40
0.07500000000000047
 50
90.00000000000068
 51
-90.00000000000068
  0
ENDBLK
  8
0
  0
BLOCK
  8
0
  2
SHAPE018
 70
0
 10
0.0
 20
0.0
 30
0.0
  3
SHAPE018
  1

  0
LINE
  8
0
 62
0
 10
6.129999999999999
 20
2.894832185012798
 30
0.0
 11
6.129999999999999
 21
2.9089974977666566
 31
0.0
  0
LINE
  8
0
 62
0
 10
6.129999999999999
 20
2.908997497766657
 30
0.0
 11
6.504999999999999
 21
2.908997497766657
 31
0.0
  0
LINE
  8
0
 62
0
 10
6.504999999999999
 20
2.908997497766657
 30
0.0
 11
6.504999999999999
 21
2.8948321850127985
 31
0.0
  0
ENDBLK
  8
0
  0
BLOCK
  8
0
  2
SHAPE019
 70
0
 10
0.0
 20
0.0
 30
0.0
  3
SHAPE019
  1

  0
LINE
  8
0
 62
4
 10
5.1
 20
2.3
 30
0.0
 11
5.1
 21
2.5999999999999996
 31
0.0
  0
LINE
  8
0
 62
4
 10
5.1
 20
2.5999999999999996
 30
0.0
 11
10.1
 21
2.5999999999999996
 31
0.0
  0
LINE
  8
0
 62
4
 10
10.1
 20
2.5999999999999996
 30
0.0
 11
10.1
 21
2.3
 31
0.0
  0
LINE
  8
0
 62
4
 10
10.1
 20
2.3
 30
0.0
 11
5.1
 21
2.3
 31
0.0
  0
ENDBLK
  8
0
  0
BLOCK
  8
0
  2
WIRE024
 70
0
 10
0.0
 20
0.0
 30
0.0
  3
WIRE024
  1

  0
LINE
  8
0
 62
2
 10
-0.03799999999999999
 20
5.299999999999999
 30
0.0
 11
0.26200000000000007
 21
7.799999999999999
 31
0.0
  0
LINE
  8
0
 62
2
 10
0.262
 20
7.799999999999999
 30
0.0
 11
0.337
 21
7.799999999999999
 31
0.0
  0
ENDBLK
  8
0
  0
BLOCK
  8
0
  2
SHAPE020
 70
0
 10
0.0
 20
0.0
 30
0.0
  3
SHAPE020
  1

  0
LINE
  8
0
 62
0
 10
0.41200000000000003
 20
7.874999999999999
 30
0.0
 11
0.48700000000000004
 21
7.874999999999999
 31
0.0
  0
ARC
  8
0
 62
0
 10
0.4119999999999998
 20
7.799999999999999
 30
0.0
 40
0.07500000000000005
 50
89.99999999999983
 51
-89.99999999999983
  0
LINE
  8
0
 62
0
 10
0.41200000000000003
 20
7.724999999999999
 30
0.0
 11
0.48700000000000004
 21
7.724999999999999
 31
0.0
  0
ARC
  8
0
 62
0
 10
0.4870000000000003
 20
7.799999999999999
 30
0.0
 40
0.07500000000000002
 50
-90.00000000000021
 51
90.00000000000021
  0
ENDBLK
  8
0
  0
BLOCK
  8
0
  2
CIRCLE128
 70
0
 10
0.0
 20
0.0
 30
0.0
  3
CIRCLE128
  1

  0
CIRCLE
  8
0
 62
1
 10
-0.03799999999999999
 20
5.299999999999999
 30
0.0
 40
0.008
  0
ENDBLK
  8
0
  0
BLOCK
  8
0
  2
CIRCLE129
 70
0
 10
0.0
 20
0.0
 30
0.0
  3
CIRCLE129
  1

  0
CIRCLE
  8
0
 62
1
 10
-0.03799999999999997
 20
5.599999999999999
 30
0.0
 40
0.008
  0
ENDBLK
  8
0
  0
BLOCK
  8
0
  2
CIRCLE130
 70
0
 10
0.0
 20
0.0
 30
0.0
  3
CIRCLE130
  1

  0
CIRCLE
  8
0
 62
1
 10
-0.03799999999999995
 20
5.899999999999999
 30
0.0
 40
0.008
  0
ENDBLK
  8
0
  0
BLOCK
  8
0
  2
CIRCLE131
 70
0
 10
0.0
 20
0.0
 30
0.0
  3
CIRCLE131
  1

  0
CIRCLE
  8
0
 62
1
 10
-0.03799999999999993
 20
6.199999999999998
 30
0.0
 40
0.008
  0
ENDBLK
  8
0
  0
BLOCK
  8
0
  2
CIRCLE132
 70
0
 10
0.0
 20
0.0
 30
0.0
  3
CIRCLE132
  1

  0
CIRCLE
  8
0
 62
1
 10
-0.03799999999999991
 20
6.499999999999998
 30
0.0
 40
0.008
  0
ENDBLK
  8
0
  0
BLOCK
  8
0
  2
CIRCLE133
 70
0
 10
0.0
 20
0.0
 30
0.0
  3
CIRCLE133
  1

  0
CIRCLE
  8
0
 62
1
 10
-0.03799999999999989
 20
6.799999999999998
 30
0.0
 40
0.008
  0
ENDBLK
  8
0
  0
BLOCK
  8
0
  2
CIRCLE134
 70
0
 10
0.0
 20
0.0
 30
0.0
  3
CIRCLE134
  1

  0
CIRCLE
  8
0
 62
1
 10
-0.03799999999999987
 20
7.099999999999998
 30
0.0
 40
0.008
  0
ENDBLK
  8
0
  0
BLOCK
  8
0
  2
CIRCLE135
 70
0
 10
0.0
 20
0.0
 30
0.0
  3
CIRCLE135
  1

  0
CIRCLE
  8
0
 62
1
 10
-0.037999999999999846
 20
7.399999999999998
 30
0.0
 40
0.008
  0
ENDBLK
  8
0
  0
BLOCK
  8
0
  2
CIRCLE136
 70
0
 10
0.0
 20
0.0
 30
0.0
  3
CIRCLE136
  1

  0
CIRCLE
  8
0
 62
1
 10
-0.037999999999999826
 20
7.6999999999999975
 30
0.0
 40
0.008
  0
ENDBLK
  8
0
  0
BLOCK
  8
0
  2
CIRCLE137
 70
0
 10
0.0
 20
0.0
 30
0.0
  3
CIRCLE137
  1

  0
CIRCLE
  8
0
 62
1
 10
-0.037999999999999805
 20
7.999999999999997
 30
0.0
 40
0.008
  0
ENDBLK
  8
0
  0
BLOCK
  8
0
  2
CIRCLE138
 70
0
 10
0.0
 20
0.0
 30
0.0
  3
CIRCLE138
  1

  0
CIRCLE
  8
0
 62
1
 10
-0.037999999999999784
 20
8.299999999999997
 30
0.0
 40
0.008
  0
ENDBLK
  8
0
  0
BLOCK
  8
0
  2
CIRCLE139
 70
0
 10
0.0
 20
0.0
 30
0.0
  3
CIRCLE139
  1

  0
CIRCLE
  8
0
 62
1
 10
-0.03799999999999976
 20
8.599999999999998
 30
0.0
 40
0.008
  0
ENDBLK
  8
0
  0
BLOCK
  8
0
  2
CIRCLE140
 70
0
 10
0.0
 20
0.0
 30
0.0
  3
CIRCLE140
  1

  0
CIRCLE
  8
0
 62
1
 10
-0.03799999999999974
 20
8.899999999999999
 30
0.0
 40
0.008
  0
ENDBLK
  8
0
  0
BLOCK
  8
0
  2
CIRCLE141
 70
0
 10
0.0
 20
0.0
 30
0.0
  3
CIRCLE141
  1

  0
CIRCLE
  8
0
 62
1
 10
-0.03799999999999972
 20
9.2
 30
0.0
 40
0.008
  0
ENDBLK
  8
0
  0
BLOCK
  8
0
  2
CIRCLE142
 70
0
 10
0.0
 20
0.0
 30
0.0
  3
CIRCLE142
  1

  0
CIRCLE
  8
0
 62
1
 10
-0.0379999999999997
 20
9.5
 30
0.0
 40
0.008
  0
ENDBLK
  8
0
  0
BLOCK
  8
0
  2
CIRCLE143
 70
0
 10
0.0
 20
0.0
 30
0.0
  3
CIRCLE143
  1

  0
CIRCLE
  8
0
 62
1
 10
-0.03799999999999968
 20
9.8
 30
0.0
 40
0.008
  0
ENDBLK
  8
0
  0
BLOCK
  8
0
  2
CIRCLE144
 70
0
 10
0.0
 20
0.0
 30
0.0
  3
CIRCLE144
  1

  0
CIRCLE
  8
0
 62
1
 10
-0.03799999999999966
 20
10.100000000000001
 30
0.0
 40
0.008
  0
ENDBLK
  8
0
  0
BLOCK
  8
0
  2
LINE024
 70
0
 10
0.0
 20
0.0
 30
0.0
  3
LINE024
  1

  0
LINE
  8
0
 62
2
 10
0.262
 20
7.799999999999999
 30
0.0
 11
-0.037999999999999756
 21
10.099999999999998
 31
0.0
  0
ENDBLK
  8
0
  0
BLOCK
  8
0
  2
WIRE025
 70
0
 10
0.0
 20
0.0
 30
0.0
  3
WIRE025
  1

  0
LINE
  8
0
 62
3
 10
0.262
 20
0.3
 30
0.0
 11
0.2620000000000002
 21
2.4979999999999998
 31
0.0
  0
ARC
  8
0
 62
3
 10
0.22999999999999998
 20
2.4979999999999998
 30
0.0
 40
0.032000000000000105
 50
-0.0
 51
89.9999999999997
  0
LINE
  8
0
 62
3
 10
0.23000000000000015
 20
2.53
 30
0.0
 11
0.11200000000000018
 21
2.53
 31
0.0
  0
ENDBLK
  8
0
  0
BLOCK
  8
0
  2
LINE025
 70
0
 10
0.0
 20
0.0
 30
0.0
  3
LINE025
  1

  0
LINE
  8
0
 62
6
 10
0.262
 20
0.30000000000000004
 30
0.0
 11
0.255529523872437
 21
0.32414814565722677
 31
0.0
  0
ENDBLK
  8
0
  0
BLOCK
  8
0
  2
LINE026
 70
0
 10
0.0
 20
0.0
 30
0.0
  3
LINE026
  1

  0
LINE
  8
0
 62
6
 10
0.11200000000000021
 20
2.53
 30
0.0
 11
0.1361481456572269
 21
2.523529523872437
 31
0.0
  0
ENDBLK
  8
0
  0
BLOCK
  8
0
  2
WIRE026
 70
0
 10
0.0
 20
0.0
 30
0.0
  3
WIRE026
  1

  0
LINE
  8
0
 62
2
 10
0.2620000000000001
 20
1.415
 30
0.0
 11
0.562
 21
1.715
 31
0.0
  0
LINE
  8
0
 62
2
 10
0.562
 20
1.715
 30
0.0
 11
0.637
 21
1.715
 31
0.0
  0
ENDBLK
  8
0
  0
BLOCK
  8
0
  2
SHAPE021
 70
0
 10
0.0
 20
0.0
 30
0.0
  3
SHAPE021
  1

  0
LINE
  8
0
 62
0
 10
0.712
 20
1.79
 30
0.0
 11
0.7869999999999999
 21
1.79
 31
0.0
  0
ARC
  8
0
 62
0
 10
0.7119999999999999
 20
1.715
 30
0.0
 40
0.07499999999999991
 50
89.99999999999993
 51
-89.99999999999993
  0
LINE
  8
0
 62
0
 10
0.712
 20
1.6400000000000001
 30
0.0
 11
0.7869999999999999
 21
1.6400000000000001
 31
0.0
  0
ARC
  8
0
 62
0
 10
0.7870000000000001
 20
1.715
 30
0.0
 40
0.07499999999999991
 50
-90.00000000000018
 51
90.00000000000018
  0
ENDBLK
  8
0
  0
BLOCK
  8
0
  2
SHAPE022
 70
0
 10
0.0
 20
0.0
 30
0.0
  3
SHAPE022
  1

  0
LINE
  8
0
 62
0
 10
1.3179069883558805
 20
1.4781827731092436
 30
0.0
 11
1.3179069883558805
 21
1.8531827731092436
 31
0.0
  0
LINE
  8
0
 62
0
 10
1.3179069883558805
 20
1.8531827731092436
 30
0.0
 11
1.2926827731092436
 21
1.8531827731092436
 31
0.0
  0
ENDBLK
  8
0
  0
BLOCK
  8
0
  2
WIRE027
 70
0
 10
0.0
 20
0.0
 30
0.0
  3
WIRE027
  1

  0
LINE
  8
0
 62
2
 10
-0.262
 20
5.299999999999999
 30
0.0
 11
-0.562
 21
7.799999999999999
 31
0.0
  0
LINE
  8
0
 62
2
 10
-0.562
 20
7.799999999999999
 30
0.0
 11
-0.637
 21
7.799999999999999
 31
0.0
  0
ENDBLK
  8
0
  0
BLOCK
  8
0
  2
SHAPE023
 70
0
 10
0.0
 20
0.0
 30
0.0
  3
SHAPE023
  1

  0
LINE
  8
0
 62
0
 10
-0.712
 20
7.874999999999999
 30
0.0
 11
-0.862
 21
7.874999999999999
 31
0.0
  0
ARC
  8
0
 62
0
 10
-0.7119999999999997
 20
7.799999999999999
 30
0.0
 40
0.07500000000000002
 50
-90.00000000000018
 51
90.00000000000018
  0
LINE
  8
0
 62
0
 10
-0.712
 20
7.724999999999999
 30
0.0
 11
-0.862
 21
7.724999999999999
 31
0.0
  0
ARC
  8
0
 62
0
 10
-0.8620000000000002
 20
7.799999999999999
 30
0.0
 40
0.07500000000000002
 50
89.99999999999983
 51
-89.99999999999983
  0
ENDBLK
  8
0
  0
BLOCK
  8
0
  2
CIRCLE145
 70
0
 10
0.0
 20
0.0
 30
0.0
  3
CIRCLE145
  1

  0
CIRCLE
  8
0
 62
1
 10
-0.262
 20
5.299999999999999
 30
0.0
 40
0.008
  0
ENDBLK
  8
0
  0
BLOCK
  8
0
  2
CIRCLE146
 70
0
 10
0.0
 20
0.0
 30
0.0
  3
CIRCLE146
  1

  0
CIRCLE
  8
0
 62
1
 10
-0.262
 20
5.599999999999999
 30
0.0
 40
0.008
  0
ENDBLK
  8
0
  0
BLOCK
  8
0
  2
CIRCLE147
 70
0
 10
0.0
 20
0.0
 30
0.0
  3
CIRCLE147
  1

  0
CIRCLE
  8
0
 62
1
 10
-0.262
 20
5.899999999999999
 30
0.0
 40
0.008
  0
ENDBLK
  8
0
  0
BLOCK
  8
0
  2
CIRCLE148
 70
0
 10
0.0
 20
0.0
 30
0.0
  3
CIRCLE148
  1

  0
CIRCLE
  8
0
 62
1
 10
-0.262
 20
6.199999999999998
 30
0.0
 40
0.008
  0
ENDBLK
  8
0
  0
BLOCK
  8
0
  2
CIRCLE149
 70
0
 10
0.0
 20
0.0
 30
0.0
  3
CIRCLE149
  1

  0
CIRCLE
  8
0
 62
1
 10
-0.262
 20
6.499999999999998
 30
0.0
 40
0.008
  0
ENDBLK
  8
0
  0
BLOCK
  8
0
  2
CIRCLE150
 70
0
 10
0.0
 20
0.0
 30
0.0
  3
CIRCLE150
  1

  0
CIRCLE
  8
0
 62
1
 10
-0.262
 20
6.799999999999998
 30
0.0
 40
0.008
  0
ENDBLK
  8
0
  0
BLOCK
  8
0
  2
CIRCLE151
 70
0
 10
0.0
 20
0.0
 30
0.0
  3
CIRCLE151
  1

  0
CIRCLE
  8
0
 62
1
 10
-0.262
 20
7.099999999999998
 30
0.0
 40
0.008
  0
ENDBLK
  8
0
  0
BLOCK
  8
0
  2
CIRCLE152
 70
0
 10
0.0
 20
0.0
 30
0.0
  3
CIRCLE152
  1

  0
CIRCLE
  8
0
 62
1
 10
-0.262
 20
7.399999999999998
 30
0.0
 40
0.008
  0
ENDBLK
  8
0
  0
BLOCK
  8
0
  2
CIRCLE153
 70
0
 10
0.0
 20
0.0
 30
0.0
  3
CIRCLE153
  1

  0
CIRCLE
  8
0
 62
1
 10
-0.262
 20
7.6999999999999975
 30
0.0
 40
0.008
  0
ENDBLK
  8
0
  0
BLOCK
  8
0
  2
CIRCLE154
 70
0
 10
0.0
 20
0.0
 30
0.0
  3
CIRCLE154
  1

  0
CIRCLE
  8
0
 62
1
 10
-0.262
 20
7.999999999999997
 30
0.0
 40
0.008
  0
ENDBLK
  8
0
  0
BLOCK
  8
0
  2
CIRCLE155
 70
0
 10
0.0
 20
0.0
 30
0.0
  3
CIRCLE155
  1

  0
CIRCLE
  8
0
 62
1
 10
-0.262
 20
8.299999999999997
 30
0.0
 40
0.008
  0
ENDBLK
  8
0
  0
BLOCK
  8
0
  2
CIRCLE156
 70
0
 10
0.0
 20
0.0
 30
0.0
  3
CIRCLE156
  1

  0
CIRCLE
  8
0
 62
1
 10
-0.262
 20
8.599999999999998
 30
0.0
 40
0.008
  0
ENDBLK
  8
0
  0
BLOCK
  8
0
  2
CIRCLE157
 70
0
 10
0.0
 20
0.0
 30
0.0
  3
CIRCLE157
  1

  0
CIRCLE
  8
0
 62
1
 10
-0.262
 20
8.899999999999999
 30
0.0
 40
0.008
  0
ENDBLK
  8
0
  0
BLOCK
  8
0
  2
CIRCLE158
 70
0
 10
0.0
 20
0.0
 30
0.0
  3
CIRCLE158
  1

  0
CIRCLE
  8
0
 62
1
 10
-0.262
 20
9.2
 30
0.0
 40
0.008
  0
ENDBLK
  8
0
  0
BLOCK
  8
0
  2
CIRCLE159
 70
0
 10
0.0
 20
0.0
 30
0.0
  3
CIRCLE159
  1

  0
CIRCLE
  8
0
 62
1
 10
-0.262
 20
9.5
 30
0.0
 40
0.008
  0
ENDBLK
  8
0
  0
BLOCK
  8
0
  2
CIRCLE160
 70
0
 10
0.0
 20
0.0
 30
0.0
  3
CIRCLE160
  1

  0
CIRCLE
  8
0
 62
1
 10
-0.262
 20
9.8
 30
0.0
 40
0.008
  0
ENDBLK
  8
0
  0
BLOCK
  8
0
  2
CIRCLE161
 70
0
 10
0.0
 20
0.0
 30
0.0
  3
CIRCLE161
  1

  0
CIRCLE
  8
0
 62
1
 10
-0.262
 20
10.100000000000001
 30
0.0
 40
0.008
  0
ENDBLK
  8
0
  0
BLOCK
  8
0
  2
LINE027
 70
0
 10
0.0
 20
0.0
 30
0.0
  3
LINE027
  1

  0
LINE
  8
0
 62
2
 10
-0.562
 20
7.799999999999999
 30
0.0
 11
-0.2619999999999997
 21
10.099999999999998
 31
0.0
  0
ENDBLK
  8
0
  0
BLOCK
  8
0
  2
WIRE028
 70
0
 10
0.0
 20
0.0
 30
0.0
  3
WIRE028
  1

  0
LINE
  8
0
 62
3
 10
0.03800000000000002
 20
0.3
 30
0.0
 11
0.03800000000000016
 21
2.53
 31
0.0
  0
ARC
  8
0
 62
3
 10
0.07000000000000034
 20
2.53
 30
0.0
 40
0.03200000000000009
 50
90.0000000000003
 51
-180.0
  0
LINE
  8
0
 62
3
 10
0.07000000000000017
 20
2.562
 30
0.0
 11
1.2401250092031608
 21
2.5619999999999994
 31
0.0
  0
ENDBLK
  8
0
  0
BLOCK
  8
0
  2
LINE028
 70
0
 10
0.0
 20
0.0
 30
0.0
  3
LINE028
  1

  0
LINE
  8
0
 62
6
 10
0.03800000000000002
 20
0.30000000000000004
 30
0.0
 11
0.031529523872436994
 21
0.32414814565722677
 31
0.0
  0
ENDBLK
  8
0
  0
BLOCK
  8
0
  2
LINE029
 70
0
 10
0.0
 20
0.0
 30
0.0
  3
LINE029
  1

  0
LINE
  8
0
 62
6
 10
1.2401250092031608
 20
2.562
 30
0.0
 11
1.2159768635459343
 21
2.5684704761275627
 31
0.0
  0
ENDBLK
  8
0
  0
BLOCK
  8
0
  2
WIRE029
 70
0
 10
0.0
 20
0.0
 30
0.0
  3
WIRE029
  1

  0
LINE
  8
0
 62
2
 10
0.03800000000000009
 20
1.4309999999999998
 30
0.0
 11
-0.2619999999999999
 21
1.831
 31
0.0
  0
LINE
  8
0
 62
2
 10
-0.2619999999999999
 20
1.831
 30
0.0
 11
-0.3369999999999999
 21
1.831
 31
0.0
  0
ENDBLK
  8
0
  0
BLOCK
  8
0
  2
SHAPE024
 70
0
 10
0.0
 20
0.0
 30
0.0
  3
SHAPE024
  1

  0
LINE
  8
0
 62
0
 10
-0.4119999999999999
 20
1.906
 30
0.0
 11
-0.5619999999999999
 21
1.906
 31
0.0
  0
ARC
  8
0
 62
0
 10
-0.41200000000000003
 20
1.831
 30
0.0
 40
0.07500000000000001
 50
-89.99999999999993
 51
89.99999999999993
  0
LINE
  8
0
 62
0
 10
-0.4119999999999999
 20
1.756
 30
0.0
 11
-0.5619999999999999
 21
1.756
 31
0.0
  0
ARC
  8
0
 62
0
 10
-0.5619999999999998
 20
1.831
 30
0.0
 40
0.075
 50
90.00000000000009
 51
-90.00000000000009
  0
ENDBLK
  8
0
  0
BLOCK
  8
0
  2
SHAPE025
 70
0
 10
0.0
 20
0.0
 30
0.0
  3
SHAPE025
  1

  0
LINE
  8
0
 62
0
 10
-1.2437247959981812
 20
1.5409335146316097
 30
0.0
 11
-1.2437247959981812
 21
1.9159335146316097
 31
0.0
  0
LINE
  8
0
 62
0
 10
-1.2437247959981812
 20
1.9159335146316097
 30
0.0
 11
-1.0444335146316095
 21
1.9159335146316097
 31
0.0
  0
ENDBLK
  8
0
  0
BLOCK
  8
0
  2
WIRE030
 70
0
 10
0.0
 20
0.0
 30
0.0
  3
WIRE030
  1

  0
LINE
  8
0
 62
2
 10
0.246
 20
0.39999999999999997
 30
0.0
 11
0.546
 21
1.0999999999999999
 31
0.0
  0
LINE
  8
0
 62
2
 10
0.546
 20
1.0999999999999999
 30
0.0
 11
0.621
 21
1.0999999999999999
 31
0.0
  0
ENDBLK
  8
0
  0
BLOCK
  8
0
  2
SHAPE026
 70
0
 10
0.0
 20
0.0
 30
0.0
  3
SHAPE026
  1

  0
LINE
  8
0
 62
0
 10
0.696
 20
1.1749999999999998
 30
0.0
 11
0.7709999999999999
 21
1.1749999999999998
 31
0.0
  0
ARC
  8
0
 62
0
 10
0.6959999999999998
 20
1.0999999999999999
 30
0.0
 40
0.07499999999999991
 50
89.99999999999993
 51
-89.99999999999993
  0
LINE
  8
0
 62
0
 10
0.696
 20
1.025
 30
0.0
 11
0.7709999999999999
 21
1.025
 31
0.0
  0
ARC
  8
0
 62
0
 10
0.7710000000000001
 20
1.0999999999999999
 30
0.0
 40
0.07499999999999991
 50
-90.00000000000018
 51
90.00000000000018
  0
ENDBLK
  8
0
  0
BLOCK
  8
0
  2
CIRCLE162
 70
0
 10
0.0
 20
0.0
 30
0.0
  3
CIRCLE162
  1

  0
CIRCLE
  8
0
 62
1
 10
0.246
 20
0.39999999999999997
 30
0.0
 40
0.008
  0
ENDBLK
  8
0
  0
BLOCK
  8
0
  2
CIRCLE163
 70
0
 10
0.0
 20
0.0
 30
0.0
  3
CIRCLE163
  1

  0
CIRCLE
  8
0
 62
1
 10
0.24600000000000002
 20
0.7
 30
0.0
 40
0.008
  0
ENDBLK
  8
0
  0
BLOCK
  8
0
  2
CIRCLE164
 70
0
 10
0.0
 20
0.0
 30
0.0
  3
CIRCLE164
  1

  0
CIRCLE
  8
0
 62
1
 10
0.24600000000000005
 20
1.0
 30
0.0
 40
0.008
  0
ENDBLK
  8
0
  0
BLOCK
  8
0
  2
CIRCLE165
 70
0
 10
0.0
 20
0.0
 30
0.0
  3
CIRCLE165
  1

  0
CIRCLE
  8
0
 62
1
 10
0.24600000000000008
 20
1.3
 30
0.0
 40
0.008
  0
ENDBLK
  8
0
  0
BLOCK
  8
0
  2
CIRCLE166
 70
0
 10
0.0
 20
0.0
 30
0.0
  3
CIRCLE166
  1

  0
CIRCLE
  8
0
 62
1
 10
0.2460000000000001
 20
1.6
 30
0.0
 40
0.008
  0
ENDBLK
  8
0
  0
BLOCK
  8
0
  2
CIRCLE167
 70
0
 10
0.0
 20
0.0
 30
0.0
  3
CIRCLE167
  1

  0
CIRCLE
  8
0
 62
1
 10
0.24600000000000014
 20
1.9000000000000001
 30
0.0
 40
0.008
  0
ENDBLK
  8
0
  0
BLOCK
  8
0
  2
CIRCLE168
 70
0
 10
0.0
 20
0.0
 30
0.0
  3
CIRCLE168
  1

  0
CIRCLE
  8
0
 62
1
 10
0.24600000000000016
 20
2.2
 30
0.0
 40
0.008
  0
ENDBLK
  8
0
  0
BLOCK
  8
0
  2
LINE030
 70
0
 10
0.0
 20
0.0
 30
0.0
  3
LINE030
  1

  0
LINE
  8
0
 62
2
 10
0.546
 20
1.0999999999999999
 30
0.0
 11
0.2460000000000001
 21
2.1999999999999993
 31
0.0
  0
ENDBLK
  8
0
  0
BLOCK
  8
0
  2
WIRE031
 70
0
 10
0.0
 20
0.0
 30
0.0
  3
WIRE031
  1

  0
LINE
  8
0
 62
3
 10
-0.179
 20
5.2379999999999995
 30
0.0
 11
-0.086
 21
5.2379999999999995
 31
0.0
  0
ARC
  8
0
 62
3
 10
-0.08600000000000016
 20
5.27
 30
0.0
 40
0.032000000000000084
 50
-89.9999999999997
 51
-0.0
  0
LINE
  8
0
 62
3
 10
-0.05399999999999999
 20
5.27
 30
0.0
 11
-0.053999999999999694
 21
10.13
 31
0.0
  0
ARC
  8
0
 62
3
 10
-0.08599999999999838
 20
10.130000000000003
 30
0.0
 40
0.03199999999999844
 50
-0.0
 51
90.00000000000239
  0
LINE
  8
0
 62
3
 10
-0.08599999999999972
 20
10.162
 30
0.0
 11
-0.1789999999999997
 21
10.162
 31
0.0
  0
ENDBLK
  8
0
  0
BLOCK
  8
0
  2
LINE031
 70
0
 10
0.0
 20
0.0
 30
0.0
  3
LINE031
  1

  0
LINE
  8
0
 62
6
 10
-0.17900000000000005
 20
5.2379999999999995
 30
0.0
 11
-0.15485185434277304
 21
5.244470476127562
 31
0.0
  0
ENDBLK
  8
0
  0
BLOCK
  8
0
  2
LINE032
 70
0
 10
0.0
 20
0.0
 30
0.0
  3
LINE032
  1

  0
LINE
  8
0
 62
6
 10
-0.17899999999999938
 20
10.162000000000004
 30
0.0
 11
-0.15485185434277232
 21
10.155529523872442
 31
0.0
  0
ENDBLK
  8
0
  0
BLOCK
  8
0
  2
WIRE032
 70
0
 10
0.0
 20
0.0
 30
0.0
  3
WIRE032
  1

  0
LINE
  8
0
 62
2
 10
-0.05399999999999985
 20
7.700000000000001
 30
0.0
 11
0.24600000000000002
 21
8.200000000000001
 31
0.0
  0
LINE
  8
0
 62
2
 10
0.24600000000000014
 20
8.200000000000001
 30
0.0
 11
0.3210000000000001
 21
8.200000000000001
 31
0.0
  0
ENDBLK
  8
0
  0
BLOCK
  8
0
  2
SHAPE027
 70
0
 10
0.0
 20
0.0
 30
0.0
  3
SHAPE027
  1

  0
LINE
  8
0
 62
0
 10
0.39600000000000013
 20
8.275
 30
0.0
 11
0.47100000000000014
 21
8.275
 31
0.0
  0
ARC
  8
0
 62
0
 10
0.39599999999999946
 20
8.200000000000001
 30
0.0
 40
0.0749999999999993
 50
89.99999999999949
 51
-89.99999999999949
  0
LINE
  8
0
 62
0
 10
0.39600000000000013
 20
8.125000000000002
 30
0.0
 11
0.47100000000000014
 21
8.125000000000002
 31
0.0
  0
ARC
  8
0
 62
0
 10
0.47100000000000086
 20
8.200000000000001
 30
0.0
 40
0.07499999999999929
 50
-90.00000000000055
 51
90.00000000000055
  0
ENDBLK
  8
0
  0
BLOCK
  8
0
  2
SHAPE028
 70
0
 10
0.0
 20
0.0
 30
0.0
  3
SHAPE028
  1

  0
LINE
  8
0
 62
0
 10
0.983970139157325
 20
7.975000000000001
 30
0.0
 11
0.9934898385886817
 21
7.975000000000001
 31
0.0
  0
LINE
  8
0
 62
0
 10
0.9934898385886817
 20
7.975000000000001
 30
0.0
 11
0.9934898385886817
 21
8.350000000000001
 31
0.0
  0
LINE
  8
0
 62
0
 10
0.9934898385886817
 20
8.350000000000001
 30
0.0
 11
0.983970139157325
 21
8.350000000000001
 31
0.0
  0
ENDBLK
  8
0
  0
BLOCK
  8
0
  2
WIRE033
 70
0
 10
0.0
 20
0.0
 30
0.0
  3
WIRE033
  1

  0
LINE
  8
0
 62
2
 10
0.054000000000000006
 20
0.09999999999999988
 30
0.0
 11
-0.24600000000000005
 21
1.0999999999999999
 31
0.0
  0
LINE
  8
0
 62
2
 10
-0.246
 20
1.0999999999999999
 30
0.0
 11
-0.321
 21
1.0999999999999999
 31
0.0
  0
ENDBLK
  8
0
  0
BLOCK
  8
0
  2
SHAPE029
 70
0
 10
0.0
 20
0.0
 30
0.0
  3
SHAPE029
  1

  0
LINE
  8
0
 62
0
 10
-0.396
 20
1.1749999999999998
 30
0.0
 11
-0.47100000000000003
 21
1.1749999999999998
 31
0.0
  0
ARC
  8
0
 62
0
 10
-0.3959999999999999
 20
1.0999999999999999
 30
0.0
 40
0.07499999999999994
 50
-90.00000000000009
 51
90.00000000000009
  0
LINE
  8
0
 62
0
 10
-0.396
 20
1.025
 30
0.0
 11
-0.47100000000000003
 21
1.025
 31
0.0
  0
ARC
  8
0
 62
0
 10
-0.4710000000000002
 20
1.0999999999999999
 30
0.0
 40
0.07499999999999991
 50
89.99999999999987
 51
-89.99999999999987
  0
ENDBLK
  8
0
  0
BLOCK
  8
0
  2
CIRCLE169
 70
0
 10
0.0
 20
0.0
 30
0.0
  3
CIRCLE169
  1

  0
CIRCLE
  8
0
 62
1
 10
0.054000000000000006
 20
0.09999999999999988
 30
0.0
 40
0.008
  0
ENDBLK
  8
0
  0
BLOCK
  8
0
  2
CIRCLE170
 70
0
 10
0.0
 20
0.0
 30
0.0
  3
CIRCLE170
  1

  0
CIRCLE
  8
0
 62
1
 10
0.05400000000000003
 20
0.39999999999999986
 30
0.0
 40
0.008
  0
ENDBLK
  8
0
  0
BLOCK
  8
0
  2
CIRCLE171
 70
0
 10
0.0
 20
0.0
 30
0.0
  3
CIRCLE171
  1

  0
CIRCLE
  8
0
 62
1
 10
0.05400000000000005
 20
0.6999999999999998
 30
0.0
 40
0.008
  0
ENDBLK
  8
0
  0
BLOCK
  8
0
  2
CIRCLE172
 70
0
 10
0.0
 20
0.0
 30
0.0
  3
CIRCLE172
  1

  0
CIRCLE
  8
0
 62
1
 10
0.05400000000000007
 20
0.9999999999999998
 30
0.0
 40
0.008
  0
ENDBLK
  8
0
  0
BLOCK
  8
0
  2
CIRCLE173
 70
0
 10
0.0
 20
0.0
 30
0.0
  3
CIRCLE173
  1

  0
CIRCLE
  8
0
 62
1
 10
0.05400000000000009
 20
1.2999999999999998
 30
0.0
 40
0.008
  0
ENDBLK
  8
0
  0
BLOCK
  8
0
  2
CIRCLE174
 70
0
 10
0.0
 20
0.0
 30
0.0
  3
CIRCLE174
  1

  0
CIRCLE
  8
0
 62
1
 10
0.05400000000000011
 20
1.5999999999999999
 30
0.0
 40
0.008
  0
ENDBLK
  8
0
  0
BLOCK
  8
0
  2
CIRCLE175
 70
0
 10
0.0
 20
0.0
 30
0.0
  3
CIRCLE175
  1

  0
CIRCLE
  8
0
 62
1
 10
0.05400000000000013
 20
1.9
 30
0.0
 40
0.008
  0
ENDBLK
  8
0
  0
BLOCK
  8
0
  2
CIRCLE176
 70
0
 10
0.0
 20
0.0
 30
0.0
  3
CIRCLE176
  1

  0
CIRCLE
  8
0
 62
1
 10
0.05400000000000015
 20
2.1999999999999997
 30
0.0
 40
0.008
  0
ENDBLK
  8
0
  0
BLOCK
  8
0
  2
CIRCLE177
 70
0
 10
0.0
 20
0.0
 30
0.0
  3
CIRCLE177
  1

  0
CIRCLE
  8
0
 62
1
 10
0.05400000000000017
 20
2.4999999999999996
 30
0.0
 40
0.008
  0
ENDBLK
  8
0
  0
BLOCK
  8
0
  2
LINE033
 70
0
 10
0.0
 20
0.0
 30
0.0
  3
LINE033
  1

  0
LINE
  8
0
 62
2
 10
-0.246
 20
1.0999999999999999
 30
0.0
 11
0.054000000000000214
 21
2.5
 31
0.0
  0
ENDBLK
  8
0
  0
BLOCK
  8
0
  2
WIRE034
 70
0
 10
0.0
 20
0.0
 30
0.0
  3
WIRE034
  1

  0
LINE
  8
0
 62
3
 10
-0.121
 20
5.2379999999999995
 30
0.0
 11
-0.21399999999999997
 21
5.2379999999999995
 31
0.0
  0
ARC
  8
0
 62
3
 10
-0.2139999999999998
 20
5.27
 30
0.0
 40
0.032000000000000105
 50
-180.0
 51
-90.0000000000003
  0
LINE
  8
0
 62
3
 10
-0.246
 20
5.27
 30
0.0
 11
-0.24599999999999966
 21
10.13
 31
0.0
  0
ARC
  8
0
 62
3
 10
-0.21400000000000097
 20
10.130000000000003
 30
0.0
 40
0.031999999999998446
 50
89.99999999999767
 51
-180.0
  0
LINE
  8
0
 62
3
 10
-0.21399999999999966
 20
10.162
 30
0.0
 11
-0.12099999999999966
 21
10.162
 31
0.0
  0
ENDBLK
  8
0
  0
BLOCK
  8
0
  2
LINE034
 70
0
 10
0.0
 20
0.0
 30
0.0
  3
LINE034
  1

  0
LINE
  8
0
 62
6
 10
-0.121
 20
5.2379999999999995
 30
0.0
 11
-0.1451481456572264
 21
5.231529523872435
 31
0.0
  0
ENDBLK
  8
0
  0
BLOCK
  8
0
  2
LINE035
 70
0
 10
0.0
 20
0.0
 30
0.0
  3
LINE035
  1

  0
LINE
  8
0
 62
6
 10
-0.12099999999999955
 20
10.162000000000006
 30
0.0
 11
-0.1451481456572262
 21
10.168470476127567
 31
0.0
  0
ENDBLK
  8
0
  0
BLOCK
  8
0
  2
WIRE035
 70
0
 10
0.0
 20
0.0
 30
0.0
  3
WIRE035
  1

  0
LINE
  8
0
 62
2
 10
-0.24599999999999983
 20
7.700000000000001
 30
0.0
 11
-0.5459999999999997
 21
8.200000000000001
 31
0.0
  0
LINE
  8
0
 62
2
 10
-0.5459999999999998
 20
8.200000000000001
 30
0.0
 11
-0.6209999999999998
 21
8.200000000000001
 31
0.0
  0
ENDBLK
  8
0
  0
BLOCK
  8
0
  2
SHAPE030
 70
0
 10
0.0
 20
0.0
 30
0.0
  3
SHAPE030
  1

  0
LINE
  8
0
 62
0
 10
-0.6959999999999997
 20
8.275
 30
0.0
 11
-0.7709999999999997
 21
8.275
 31
0.0
  0
ARC
  8
0
 62
0
 10
-0.6959999999999991
 20
8.200000000000001
 30
0.0
 40
0.07499999999999929
 50
-90.00000000000051
 51
90.00000000000051
  0
LINE
  8
0
 62
0
 10
-0.6959999999999997
 20
8.125000000000002
 30
0.0
 11
-0.7709999999999997
 21
8.125000000000002
 31
0.0
  0
ARC
  8
0
 62
0
 10
-0.7710000000000005
 20
8.200000000000001
 30
0.0
 40
0.07499999999999929
 50
89.99999999999942
 51
-89.99999999999942
  0
ENDBLK
  8
0
  0
BLOCK
  8
0
  2
SHAPE031
 70
0
 10
0.0
 20
0.0
 30
0.0
  3
SHAPE031
  1

  0
LINE
  8
0
 62
0
 10
-1.3364701391573246
 20
7.975000000000001
 30
0.0
 11
-1.3459898385886813
 21
7.975000000000001
 31
0.0
  0
LINE
  8
0
 62
0
 10
-1.3459898385886813
 20
7.975000000000001
 30
0.0
 11
-1.3459898385886813
 21
8.350000000000001
 31
0.0
  0
LINE
  8
0
 62
0
 10
-1.3459898385886813
 20
8.350000000000001
 30
0.0
 11
-1.3364701391573246
 21
8.350000000000001
 31
0.0
  0
ENDBLK
  8
0
  0
BLOCK
  8
0
  2
SHAPE032
 70
0
 10
0.0
 20
0.0
 30
0.0
  3
SHAPE032
  1

  0
LINE
  8
0
 62
4
 10
0.0
 20
5.199999999999999
 30
0.0
 11
-0.3
 21
5.199999999999999
 31
0.0
  0
LINE
  8
0
 62
4
 10
-0.3
 20
5.199999999999999
 30
0.0
 11
-0.29999999999999966
 21
10.2
 31
0.0
  0
LINE
  8
0
 62
4
 10
-0.29999999999999966
 20
10.2
 30
0.0
 11
3.3306690738754696e-16
 21
10.2
 31
0.0
  0
LINE
  8
0
 62
4
 10
3.061616997868383e-16
 20
10.2
 30
0.0
 11
0.0
 21
5.199999999999999
 31
0.0
  0
ENDBLK
  8
0
  0
BLOCK
  8
0
  2
WIRE036
 70
0
 10
0.0
 20
0.0
 30
0.0
  3
WIRE036
  1

  0
LINE
  8
0
 62
2
 10
4.061999999999999
 20
5.299999999999999
 30
0.0
 11
4.361999999999999
 21
7.799999999999999
 31
0.0
  0
LINE
  8
0
 62
2
 10
4.361999999999999
 20
7.799999999999999
 30
0.0
 11
4.436999999999999
 21
7.799999999999999
 31
0.0
  0
ENDBLK
  8
0
  0
BLOCK
  8
0
  2
SHAPE033
 70
0
 10
0.0
 20
0.0
 30
0.0
  3
SHAPE033
  1

  0
LINE
  8
0
 62
0
 10
4.512
 20
7.874999999999999
 30
0.0
 11
4.662
 21
7.874999999999999
 31
0.0
  0
ARC
  8
0
 62
0
 10
4.511999999999999
 20
7.799999999999999
 30
0.0
 40
0.07499999999999989
 50
89.99999999999933
 51
-89.99999999999933
  0
LINE
  8
0
 62
0
 10
4.512
 20
7.724999999999999
 30
0.0
 11
4.662
 21
7.724999999999999
 31
0.0
  0
ARC
  8
0
 62
0
 10
4.661999999999999
 20
7.799999999999999
 30
0.0
 40
0.07500000000000018
 50
-89.99999999999933
 51
89.99999999999933
  0
ENDBLK
  8
0
  0
BLOCK
  8
0
  2
CIRCLE178
 70
0
 10
0.0
 20
0.0
 30
0.0
  3
CIRCLE178
  1

  0
CIRCLE
  8
0
 62
1
 10
4.061999999999999
 20
5.299999999999999
 30
0.0
 40
0.008
  0
ENDBLK
  8
0
  0
BLOCK
  8
0
  2
CIRCLE179
 70
0
 10
0.0
 20
0.0
 30
0.0
  3
CIRCLE179
  1

  0
CIRCLE
  8
0
 62
1
 10
4.061999999999999
 20
5.599999999999999
 30
0.0
 40
0.008
  0
ENDBLK
  8
0
  0
BLOCK
  8
0
  2
CIRCLE180
 70
0
 10
0.0
 20
0.0
 30
0.0
  3
CIRCLE180
  1

  0
CIRCLE
  8
0
 62
1
 10
4.061999999999999
 20
5.899999999999999
 30
0.0
 40
0.008
  0
ENDBLK
  8
0
  0
BLOCK
  8
0
  2
CIRCLE181
 70
0
 10
0.0
 20
0.0
 30
0.0
  3
CIRCLE181
  1

  0
CIRCLE
  8
0
 62
1
 10
4.061999999999999
 20
6.199999999999998
 30
0.0
 40
0.008
  0
ENDBLK
  8
0
  0
BLOCK
  8
0
  2
CIRCLE182
 70
0
 10
0.0
 20
0.0
 30
0.0
  3
CIRCLE182
  1

  0
CIRCLE
  8
0
 62
1
 10
4.061999999999999
 20
6.499999999999998
 30
0.0
 40
0.008
  0
ENDBLK
  8
0
  0
BLOCK
  8
0
  2
CIRCLE183
 70
0
 10
0.0
 20
0.0
 30
0.0
  3
CIRCLE183
  1

  0
CIRCLE
  8
0
 62
1
 10
4.061999999999999
 20
6.799999999999998
 30
0.0
 40
0.008
  0
ENDBLK
  8
0
  0
BLOCK
  8
0
  2
CIRCLE184
 70
0
 10
0.0
 20
0.0
 30
0.0
  3
CIRCLE184
  1

  0
CIRCLE
  8
0
 62
1
 10
4.061999999999999
 20
7.099999999999998
 30
0.0
 40
0.008
  0
ENDBLK
  8
0
  0
BLOCK
  8
0
  2
CIRCLE185
 70
0
 10
0.0
 20
0.0
 30
0.0
  3
CIRCLE185
  1

  0
CIRCLE
  8
0
 62
1
 10
4.061999999999999
 20
7.399999999999998
 30
0.0
 40
0.008
  0
ENDBLK
  8
0
  0
BLOCK
  8
0
  2
CIRCLE186
 70
0
 10
0.0
 20
0.0
 30
0.0
  3
CIRCLE186
  1

  0
CIRCLE
  8
0
 62
1
 10
4.061999999999999
 20
7.6999999999999975
 30
0.0
 40
0.008
  0
ENDBLK
  8
0
  0
BLOCK
  8
0
  2
CIRCLE187
 70
0
 10
0.0
 20
0.0
 30
0.0
  3
CIRCLE187
  1

  0
CIRCLE
  8
0
 62
1
 10
4.061999999999999
 20
7.999999999999997
 30
0.0
 40
0.008
  0
ENDBLK
  8
0
  0
BLOCK
  8
0
  2
CIRCLE188
 70
0
 10
0.0
 20
0.0
 30
0.0
  3
CIRCLE188
  1

  0
CIRCLE
  8
0
 62
1
 10
4.061999999999999
 20
8.299999999999997
 30
0.0
 40
0.008
  0
ENDBLK
  8
0
  0
BLOCK
  8
0
  2
CIRCLE189
 70
0
 10
0.0
 20
0.0
 30
0.0
  3
CIRCLE189
  1

  0
CIRCLE
  8
0
 62
1
 10
4.061999999999999
 20
8.599999999999998
 30
0.0
 40
0.008
  0
ENDBLK
  8
0
  0
BLOCK
  8
0
  2
CIRCLE190
 70
0
 10
0.0
 20
0.0
 30
0.0
  3
CIRCLE190
  1

  0
CIRCLE
  8
0
 62
1
 10
4.061999999999999
 20
8.899999999999999
 30
0.0
 40
0.008
  0
ENDBLK
  8
0
  0
BLOCK
  8
0
  2
CIRCLE191
 70
0
 10
0.0
 20
0.0
 30
0.0
  3
CIRCLE191
  1

  0
CIRCLE
  8
0
 62
1
 10
4.061999999999999
 20
9.2
 30
0.0
 40
0.008
  0
ENDBLK
  8
0
  0
BLOCK
  8
0
  2
CIRCLE192
 70
0
 10
0.0
 20
0.0
 30
0.0
  3
CIRCLE192
  1

  0
CIRCLE
  8
0
 62
1
 10
4.061999999999999
 20
9.5
 30
0.0
 40
0.008
  0
ENDBLK
  8
0
  0
BLOCK
  8
0
  2
CIRCLE193
 70
0
 10
0.0
 20
0.0
 30
0.0
  3
CIRCLE193
  1

  0
CIRCLE
  8
0
 62
1
 10
4.061999999999999
 20
9.8
 30
0.0
 40
0.008
  0
ENDBLK
  8
0
  0
BLOCK
  8
0
  2
CIRCLE194
 70
0
 10
0.0
 20
0.0
 30
0.0
  3
CIRCLE194
  1

  0
CIRCLE
  8
0
 62
1
 10
4.061999999999999
 20
10.100000000000001
 30
0.0
 40
0.008
  0
ENDBLK
  8
0
  0
BLOCK
  8
0
  2
LINE036
 70
0
 10
0.0
 20
0.0
 30
0.0
  3
LINE036
  1

  0
LINE
  8
0
 62
2
 10
4.361999999999999
 20
7.799999999999999
 30
0.0
 11
4.061999999999999
 21
10.099999999999998
 31
0.0
  0
ENDBLK
  8
0
  0
BLOCK
  8
0
  2
WIRE037
 70
0
 10
0.0
 20
0.0
 30
0.0
  3
WIRE037
  1

  0
LINE
  8
0
 62
3
 10
4.061999999999999
 20
0.3
 30
0.0
 11
4.061999999999999
 21
2.53
 31
0.0
  0
ARC
  8
0
 62
3
 10
4.029999999999999
 20
2.5299999999999994
 30
0.0
 40
0.03200000000000023
 50
0.0
 51
90.0
  0
LINE
  8
0
 62
3
 10
4.029999999999999
 20
2.562
 30
0.0
 11
2.859874990796839
 21
2.562
 31
0.0
  0
ENDBLK
  8
0
  0
BLOCK
  8
0
  2
LINE037
 70
0
 10
0.0
 20
0.0
 30
0.0
  3
LINE037
  1

  0
LINE
  8
0
 62
6
 10
4.061999999999999
 20
0.2999999999999998
 30
0.0
 11
4.055529523872437
 21
0.3241481456572267
 31
0.0
  0
ENDBLK
  8
0
  0
BLOCK
  8
0
  2
LINE038
 70
0
 10
0.0
 20
0.0
 30
0.0
  3
LINE038
  1

  0
LINE
  8
0
 62
6
 10
2.8598749907968397
 20
2.5619999999999994
 30
0.0
 11
2.8840231364540663
 21
2.5555295238724365
 31
0.0
  0
ENDBLK
  8
0
  0
BLOCK
  8
0
  2
WIRE038
 70
0
 10
0.0
 20
0.0
 30
0.0
  3
WIRE038
  1

  0
LINE
  8
0
 62
2
 10
4.061999999999999
 20
1.4309999999999998
 30
0.0
 11
4.361999999999999
 21
1.7309999999999999
 31
0.0
  0
LINE
  8
0
 62
2
 10
4.361999999999999
 20
1.7309999999999999
 30
0.0
 11
4.436999999999999
 21
1.7309999999999999
 31
0.0
  0
ENDBLK
  8
0
  0
BLOCK
  8
0
  2
SHAPE034
 70
0
 10
0.0
 20
0.0
 30
0.0
  3
SHAPE034
  1

  0
LINE
  8
0
 62
0
 10
4.512
 20
1.8059999999999998
 30
0.0
 11
4.662
 21
1.8059999999999998
 31
0.0
  0
ARC
  8
0
 62
0
 10
4.511999999999999
 20
1.7309999999999999
 30
0.0
 40
0.07499999999999973
 50
89.99999999999933
 51
-89.99999999999933
  0
LINE
  8
0
 62
0
 10
4.512
 20
1.656
 30
0.0
 11
4.662
 21
1.656
 31
0.0
  0
ARC
  8
0
 62
0
 10
4.661999999999999
 20
1.7309999999999999
 30
0.0
 40
0.07500000000000002
 50
-89.99999999999933
 51
89.99999999999933
  0
ENDBLK
  8
0
  0
BLOCK
  8
0
  2
SHAPE035
 70
0
 10
0.0
 20
0.0
 30
0.0
  3
SHAPE035
  1

  0
LINE
  8
0
 62
0
 10
5.291224795998181
 20
1.4409335146316096
 30
0.0
 11
5.291224795998181
 21
1.8159335146316096
 31
0.0
  0
LINE
  8
0
 62
0
 10
5.291224795998181
 20
1.8159335146316096
 30
0.0
 11
5.091933514631609
 21
1.8159335146316096
 31
0.0
  0
ENDBLK
  8
0
  0
BLOCK
  8
0
  2
WIRE039
 70
0
 10
0.0
 20
0.0
 30
0.0
  3
WIRE039
  1

  0
LINE
  8
0
 62
2
 10
3.8379999999999996
 20
5.299999999999999
 30
0.0
 11
3.538
 21
7.799999999999999
 31
0.0
  0
LINE
  8
0
 62
2
 10
3.538
 20
7.799999999999999
 30
0.0
 11
3.4629999999999996
 21
7.799999999999999
 31
0.0
  0
ENDBLK
  8
0
  0
BLOCK
  8
0
  2
SHAPE036
 70
0
 10
0.0
 20
0.0
 30
0.0
  3
SHAPE036
  1

  0
LINE
  8
0
 62
0
 10
3.3879999999999995
 20
7.874999999999999
 30
0.0
 11
3.3129999999999993
 21
7.874999999999999
 31
0.0
  0
ARC
  8
0
 62
0
 10
3.388
 20
7.799999999999999
 30
0.0
 40
0.07500000000000002
 50
-90.00000000000034
 51
90.00000000000034
  0
LINE
  8
0
 62
0
 10
3.3879999999999995
 20
7.724999999999999
 30
0.0
 11
3.3129999999999993
 21
7.724999999999999
 31
0.0
  0
ARC
  8
0
 62
0
 10
3.312999999999999
 20
7.799999999999999
 30
0.0
 40
0.07499999999999989
 50
89.99999999999967
 51
-89.99999999999967
  0
ENDBLK
  8
0
  0
BLOCK
  8
0
  2
CIRCLE195
 70
0
 10
0.0
 20
0.0
 30
0.0
  3
CIRCLE195
  1

  0
CIRCLE
  8
0
 62
1
 10
3.8379999999999996
 20
5.299999999999999
 30
0.0
 40
0.008
  0
ENDBLK
  8
0
  0
BLOCK
  8
0
  2
CIRCLE196
 70
0
 10
0.0
 20
0.0
 30
0.0
  3
CIRCLE196
  1

  0
CIRCLE
  8
0
 62
1
 10
3.8379999999999996
 20
5.599999999999999
 30
0.0
 40
0.008
  0
ENDBLK
  8
0
  0
BLOCK
  8
0
  2
CIRCLE197
 70
0
 10
0.0
 20
0.0
 30
0.0
  3
CIRCLE197
  1

  0
CIRCLE
  8
0
 62
1
 10
3.8379999999999996
 20
5.899999999999999
 30
0.0
 40
0.008
  0
ENDBLK
  8
0
  0
BLOCK
  8
0
  2
CIRCLE198
 70
0
 10
0.0
 20
0.0
 30
0.0
  3
CIRCLE198
  1

  0
CIRCLE
  8
0
 62
1
 10
3.8379999999999996
 20
6.199999999999998
 30
0.0
 40
0.008
  0
ENDBLK
  8
0
  0
BLOCK
  8
0
  2
CIRCLE199
 70
0
 10
0.0
 20
0.0
 30
0.0
  3
CIRCLE199
  1

  0
CIRCLE
  8
0
 62
1
 10
3.8379999999999996
 20
6.499999999999998
 30
0.0
 40
0.008
  0
ENDBLK
  8
0
  0
BLOCK
  8
0
  2
CIRCLE200
 70
0
 10
0.0
 20
0.0
 30
0.0
  3
CIRCLE200
  1

  0
CIRCLE
  8
0
 62
1
 10
3.8379999999999996
 20
6.799999999999998
 30
0.0
 40
0.008
  0
ENDBLK
  8
0
  0
BLOCK
  8
0
  2
CIRCLE201
 70
0
 10
0.0
 20
0.0
 30
0.0
  3
CIRCLE201
  1

  0
CIRCLE
  8
0
 62
1
 10
3.8379999999999996
 20
7.099999999999998
 30
0.0
 40
0.008
  0
ENDBLK
  8
0
  0
BLOCK
  8
0
  2
CIRCLE202
 70
0
 10
0.0
 20
0.0
 30
0.0
  3
CIRCLE202
  1

  0
CIRCLE
  8
0
 62
1
 10
3.8379999999999996
 20
7.399999999999998
 30
0.0
 40
0.008
  0
ENDBLK
  8
0
  0
BLOCK
  8
0
  2
CIRCLE203
 70
0
 10
0.0
 20
0.0
 30
0.0
  3
CIRCLE203
  1

  0
CIRCLE
  8
0
 62
1
 10
3.8379999999999996
 20
7.6999999999999975
 30
0.0
 40
0.008
  0
ENDBLK
  8
0
  0
BLOCK
  8
0
  2
CIRCLE204
 70
0
 10
0.0
 20
0.0
 30
0.0
  3
CIRCLE204
  1

  0
CIRCLE
  8
0
 62
1
 10
3.8379999999999996
 20
7.999999999999997
 30
0.0
 40
0.008
  0
ENDBLK
  8
0
  0
BLOCK
  8
0
  2
CIRCLE205
 70
0
 10
0.0
 20
0.0
 30
0.0
  3
CIRCLE205
  1

  0
CIRCLE
  8
0
 62
1
 10
3.8379999999999996
 20
8.299999999999997
 30
0.0
 40
0.008
  0
ENDBLK
  8
0
  0
BLOCK
  8
0
  2
CIRCLE206
 70
0
 10
0.0
 20
0.0
 30
0.0
  3
CIRCLE206
  1

  0
CIRCLE
  8
0
 62
1
 10
3.8379999999999996
 20
8.599999999999998
 30
0.0
 40
0.008
  0
ENDBLK
  8
0
  0
BLOCK
  8
0
  2
CIRCLE207
 70
0
 10
0.0
 20
0.0
 30
0.0
  3
CIRCLE207
  1

  0
CIRCLE
  8
0
 62
1
 10
3.8379999999999996
 20
8.899999999999999
 30
0.0
 40
0.008
  0
ENDBLK
  8
0
  0
BLOCK
  8
0
  2
CIRCLE208
 70
0
 10
0.0
 20
0.0
 30
0.0
  3
CIRCLE208
  1

  0
CIRCLE
  8
0
 62
1
 10
3.8379999999999996
 20
9.2
 30
0.0
 40
0.008
  0
ENDBLK
  8
0
  0
BLOCK
  8
0
  2
CIRCLE209
 70
0
 10
0.0
 20
0.0
 30
0.0
  3
CIRCLE209
  1

  0
CIRCLE
  8
0
 62
1
 10
3.8379999999999996
 20
9.5
 30
0.0
 40
0.008
  0
ENDBLK
  8
0
  0
BLOCK
  8
0
  2
CIRCLE210
 70
0
 10
0.0
 20
0.0
 30
0.0
  3
CIRCLE210
  1

  0
CIRCLE
  8
0
 62
1
 10
3.8379999999999996
 20
9.8
 30
0.0
 40
0.008
  0
ENDBLK
  8
0
  0
BLOCK
  8
0
  2
CIRCLE211
 70
0
 10
0.0
 20
0.0
 30
0.0
  3
CIRCLE211
  1

  0
CIRCLE
  8
0
 62
1
 10
3.8379999999999996
 20
10.100000000000001
 30
0.0
 40
0.008
  0
ENDBLK
  8
0
  0
BLOCK
  8
0
  2
LINE039
 70
0
 10
0.0
 20
0.0
 30
0.0
  3
LINE039
  1

  0
LINE
  8
0
 62
2
 10
3.538
 20
7.799999999999999
 30
0.0
 11
3.838
 21
10.099999999999998
 31
0.0
  0
ENDBLK
  8
0
  0
BLOCK
  8
0
  2
WIRE040
 70
0
 10
0.0
 20
0.0
 30
0.0
  3
WIRE040
  1

  0
LINE
  8
0
 62
3
 10
3.8379999999999996
 20
0.3
 30
0.0
 11
3.8379999999999996
 21
2.4979999999999998
 31
0.0
  0
ARC
  8
0
 62
3
 10
3.87
 20
2.4979999999999993
 30
0.0
 40
0.032000000000000486
 50
90.0000000000008
 51
180.0
  0
LINE
  8
0
 62
3
 10
3.8699999999999997
 20
2.53
 30
0.0
 11
3.9879999999999995
 21
2.53
 31
0.0
  0
ENDBLK
  8
0
  0
BLOCK
  8
0
  2
LINE040
 70
0
 10
0.0
 20
0.0
 30
0.0
  3
LINE040
  1

  0
LINE
  8
0
 62
6
 10
3.837999999999999
 20
0.2999999999999998
 30
0.0
 11
3.8315295238724367
 21
0.32414814565722666
 31
0.0
  0
ENDBLK
  8
0
  0
BLOCK
  8
0
  2
LINE041
 70
0
 10
0.0
 20
0.0
 30
0.0
  3
LINE041
  1

  0
LINE
  8
0
 62
6
 10
3.9879999999999995
 20
2.5299999999999994
 30
0.0
 11
3.963851854342773
 21
2.5364704761275623
 31
0.0
  0
ENDBLK
  8
0
  0
BLOCK
  8
0
  2
WIRE041
 70
0
 10
0.0
 20
0.0
 30
0.0
  3
WIRE041
  1

  0
LINE
  8
0
 62
2
 10
3.837999999999999
 20
1.415
 30
0.0
 11
3.5379999999999994
 21
1.815
 31
0.0
  0
LINE
  8
0
 62
2
 10
3.5379999999999994
 20
1.815
 30
0.0
 11
3.462999999999999
 21
1.815
 31
0.0
  0
ENDBLK
  8
0
  0
BLOCK
  8
0
  2
SHAPE037
 70
0
 10
0.0
 20
0.0
 30
0.0
  3
SHAPE037
  1

  0
LINE
  8
0
 62
0
 10
3.387999999999999
 20
1.89
 30
0.0
 11
3.312999999999999
 21
1.89
 31
0.0
  0
ARC
  8
0
 62
0
 10
3.387999999999999
 20
1.815
 30
0.0
 40
0.07500000000000002
 50
-90.0
 51
90.0
  0
LINE
  8
0
 62
0
 10
3.387999999999999
 20
1.74
 30
0.0
 11
3.312999999999999
 21
1.74
 31
0.0
  0
ARC
  8
0
 62
0
 10
3.3129999999999993
 20
1.815
 30
0.0
 40
0.07500000000000002
 50
90.00000000000034
 51
-90.00000000000034
  0
ENDBLK
  8
0
  0
BLOCK
  8
0
  2
SHAPE038
 70
0
 10
0.0
 20
0.0
 30
0.0
  3
SHAPE038
  1

  0
LINE
  8
0
 62
0
 10
2.7295930116441185
 20
1.5781827731092435
 30
0.0
 11
2.7295930116441185
 21
1.9531827731092435
 31
0.0
  0
LINE
  8
0
 62
0
 10
2.7295930116441185
 20
1.9531827731092435
 30
0.0
 11
2.754817226890755
 21
1.9531827731092435
 31
0.0
  0
ENDBLK
  8
0
  0
BLOCK
  8
0
  2
WIRE042
 70
0
 10
0.0
 20
0.0
 30
0.0
  3
WIRE042
  1

  0
LINE
  8
0
 62
2
 10
4.045999999999999
 20
0.09999999999999987
 30
0.0
 11
4.345999999999999
 21
1.0999999999999999
 31
0.0
  0
LINE
  8
0
 62
2
 10
4.345999999999999
 20
1.0999999999999999
 30
0.0
 11
4.420999999999999
 21
1.0999999999999999
 31
0.0
  0
ENDBLK
  8
0
  0
BLOCK
  8
0
  2
SHAPE039
 70
0
 10
0.0
 20
0.0
 30
0.0
  3
SHAPE039
  1

  0
LINE
  8
0
 62
0
 10
4.4959999999999996
 20
1.1749999999999998
 30
0.0
 11
4.571
 21
1.1749999999999998
 31
0.0
  0
ARC
  8
0
 62
0
 10
4.495999999999999
 20
1.0999999999999999
 30
0.0
 40
0.07499999999999973
 50
89.99999999999933
 51
-89.99999999999933
  0
LINE
  8
0
 62
0
 10
4.4959999999999996
 20
1.025
 30
0.0
 11
4.571
 21
1.025
 31
0.0
  0
ARC
  8
0
 62
0
 10
4.571
 20
1.0999999999999999
 30
0.0
 40
0.07500000000000002
 50
-90.0
 51
90.0
  0
ENDBLK
  8
0
  0
BLOCK
  8
0
  2
CIRCLE212
 70
0
 10
0.0
 20
0.0
 30
0.0
  3
CIRCLE212
  1

  0
CIRCLE
  8
0
 62
1
 10
4.045999999999999
 20
0.09999999999999987
 30
0.0
 40
0.008
  0
ENDBLK
  8
0
  0
BLOCK
  8
0
  2
CIRCLE213
 70
0
 10
0.0
 20
0.0
 30
0.0
  3
CIRCLE213
  1

  0
CIRCLE
  8
0
 62
1
 10
4.045999999999999
 20
0.39999999999999986
 30
0.0
 40
0.008
  0
ENDBLK
  8
0
  0
BLOCK
  8
0
  2
CIRCLE214
 70
0
 10
0.0
 20
0.0
 30
0.0
  3
CIRCLE214
  1

  0
CIRCLE
  8
0
 62
1
 10
4.045999999999999
 20
0.6999999999999998
 30
0.0
 40
0.008
  0
ENDBLK
  8
0
  0
BLOCK
  8
0
  2
CIRCLE215
 70
0
 10
0.0
 20
0.0
 30
0.0
  3
CIRCLE215
  1

  0
CIRCLE
  8
0
 62
1
 10
4.045999999999999
 20
0.9999999999999998
 30
0.0
 40
0.008
  0
ENDBLK
  8
0
  0
BLOCK
  8
0
  2
CIRCLE216
 70
0
 10
0.0
 20
0.0
 30
0.0
  3
CIRCLE216
  1

  0
CIRCLE
  8
0
 62
1
 10
4.045999999999999
 20
1.2999999999999998
 30
0.0
 40
0.008
  0
ENDBLK
  8
0
  0
BLOCK
  8
0
  2
CIRCLE217
 70
0
 10
0.0
 20
0.0
 30
0.0
  3
CIRCLE217
  1

  0
CIRCLE
  8
0
 62
1
 10
4.045999999999999
 20
1.5999999999999999
 30
0.0
 40
0.008
  0
ENDBLK
  8
0
  0
BLOCK
  8
0
  2
CIRCLE218
 70
0
 10
0.0
 20
0.0
 30
0.0
  3
CIRCLE218
  1

  0
CIRCLE
  8
0
 62
1
 10
4.045999999999999
 20
1.9
 30
0.0
 40
0.008
  0
ENDBLK
  8
0
  0
BLOCK
  8
0
  2
CIRCLE219
 70
0
 10
0.0
 20
0.0
 30
0.0
  3
CIRCLE219
  1

  0
CIRCLE
  8
0
 62
1
 10
4.045999999999999
 20
2.1999999999999997
 30
0.0
 40
0.008
  0
ENDBLK
  8
0
  0
BLOCK
  8
0
  2
CIRCLE220
 70
0
 10
0.0
 20
0.0
 30
0.0
  3
CIRCLE220
  1

  0
CIRCLE
  8
0
 62
1
 10
4.045999999999999
 20
2.4999999999999996
 30
0.0
 40
0.008
  0
ENDBLK
  8
0
  0
BLOCK
  8
0
  2
LINE042
 70
0
 10
0.0
 20
0.0
 30
0.0
  3
LINE042
  1

  0
LINE
  8
0
 62
2
 10
4.345999999999999
 20
1.0999999999999999
 30
0.0
 11
4.045999999999999
 21
2.5
 31
0.0
  0
ENDBLK
  8
0
  0
BLOCK
  8
0
  2
WIRE043
 70
0
 10
0.0
 20
0.0
 30
0.0
  3
WIRE043
  1

  0
LINE
  8
0
 62
3
 10
3.9209999999999994
 20
5.2379999999999995
 30
0.0
 11
4.013999999999999
 21
5.2379999999999995
 31
0.0
  0
ARC
  8
0
 62
3
 10
4.013999999999999
 20
5.27
 30
0.0
 40
0.03199999999999998
 50
-90.0
 51
-0.0
  0
LINE
  8
0
 62
3
 10
4.045999999999999
 20
5.27
 30
0.0
 11
4.045999999999999
 21
10.13
 31
0.0
  0
ARC
  8
0
 62
3
 10
4.014000000000001
 20
10.130000000000003
 30
0.0
 40
0.03199999999999817
 50
-0.0
 51
90.00000000000318
  0
LINE
  8
0
 62
3
 10
4.013999999999999
 20
10.162
 30
0.0
 11
3.9209999999999994
 21
10.162
 31
0.0
  0
ENDBLK
  8
0
  0
BLOCK
  8
0
  2
LINE043
 70
0
 10
0.0
 20
0.0
 30
0.0
  3
LINE043
  1

  0
LINE
  8
0
 62
6
 10
3.9209999999999994
 20
5.2379999999999995
 30
0.0
 11
3.945148145657226
 21
5.244470476127561
 31
0.0
  0
ENDBLK
  8
0
  0
BLOCK
  8
0
  2
LINE044
 70
0
 10
0.0
 20
0.0
 30
0.0
  3
LINE044
  1

  0
LINE
  8
0
 62
6
 10
3.9210000000000003
 20
10.162000000000006
 30
0.0
 11
3.945148145657226
 21
10.155529523872444
 31
0.0
  0
ENDBLK
  8
0
  0
BLOCK
  8
0
  2
WIRE044
 70
0
 10
0.0
 20
0.0
 30
0.0
  3
WIRE044
  1

  0
LINE
  8
0
 62
2
 10
4.045999999999999
 20
7.700000000000001
 30
0.0
 11
4.345999999999999
 21
8.200000000000001
 31
0.0
  0
LINE
  8
0
 62
2
 10
4.345999999999999
 20
8.200000000000001
 30
0.0
 11
4.420999999999999
 21
8.200000000000001
 31
0.0
  0
ENDBLK
  8
0
  0
BLOCK
  8
0
  2
SHAPE040
 70
0
 10
0.0
 20
0.0
 30
0.0
  3
SHAPE040
  1

  0
LINE
  8
0
 62
0
 10
4.4959999999999996
 20
8.275
 30
0.0
 11
4.571
 21
8.275
 31
0.0
  0
ARC
  8
0
 62
0
 10
4.495999999999999
 20
8.200000000000001
 30
0.0
 40
0.07499999999999929
 50
89.99999999999933
 51
-89.99999999999933
  0
LINE
  8
0
 62
0
 10
4.4959999999999996
 20
8.125000000000002
 30
0.0
 11
4.571
 21
8.125000000000002
 31
0.0
  0
ARC
  8
0
 62
0
 10
4.571
 20
8.200000000000001
 30
0.0
 40
0.07499999999999958
 50
-90.0
 51
90.0
  0
ENDBLK
  8
0
  0
BLOCK
  8
0
  2
SHAPE041
 70
0
 10
0.0
 20
0.0
 30
0.0
  3
SHAPE041
  1

  0
LINE
  8
0
 62
0
 10
5.083970139157324
 20
7.975000000000001
 30
0.0
 11
5.09348983858868
 21
7.975000000000001
 31
0.0
  0
LINE
  8
0
 62
0
 10
5.09348983858868
 20
7.975000000000001
 30
0.0
 11
5.09348983858868
 21
8.350000000000001
 31
0.0
  0
LINE
  8
0
 62
0
 10
5.09348983858868
 20
8.350000000000001
 30
0.0
 11
5.083970139157324
 21
8.350000000000001
 31
0.0
  0
ENDBLK
  8
0
  0
BLOCK
  8
0
  2
WIRE045
 70
0
 10
0.0
 20
0.0
 30
0.0
  3
WIRE045
  1

  0
LINE
  8
0
 62
2
 10
3.8539999999999996
 20
0.39999999999999997
 30
0.0
 11
3.554
 21
1.1
 31
0.0
  0
LINE
  8
0
 62
2
 10
3.554
 20
1.0999999999999999
 30
0.0
 11
3.4789999999999996
 21
1.0999999999999999
 31
0.0
  0
ENDBLK
  8
0
  0
BLOCK
  8
0
  2
SHAPE042
 70
0
 10
0.0
 20
0.0
 30
0.0
  3
SHAPE042
  1

  0
LINE
  8
0
 62
0
 10
3.4039999999999995
 20
1.1749999999999998
 30
0.0
 11
3.3289999999999993
 21
1.1749999999999998
 31
0.0
  0
ARC
  8
0
 62
0
 10
3.404
 20
1.0999999999999999
 30
0.0
 40
0.07499999999999989
 50
-90.00000000000034
 51
90.00000000000034
  0
LINE
  8
0
 62
0
 10
3.4039999999999995
 20
1.025
 30
0.0
 11
3.3289999999999993
 21
1.025
 31
0.0
  0
ARC
  8
0
 62
0
 10
3.3289999999999993
 20
1.0999999999999999
 30
0.0
 40
0.07499999999999989
 50
90.0
 51
-90.0
  0
ENDBLK
  8
0
  0
BLOCK
  8
0
  2
CIRCLE221
 70
0
 10
0.0
 20
0.0
 30
0.0
  3
CIRCLE221
  1

  0
CIRCLE
  8
0
 62
1
 10
3.8539999999999996
 20
0.39999999999999997
 30
0.0
 40
0.008
  0
ENDBLK
  8
0
  0
BLOCK
  8
0
  2
CIRCLE222
 70
0
 10
0.0
 20
0.0
 30
0.0
  3
CIRCLE222
  1

  0
CIRCLE
  8
0
 62
1
 10
3.8539999999999996
 20
0.7
 30
0.0
 40
0.008
  0
ENDBLK
  8
0
  0
BLOCK
  8
0
  2
CIRCLE223
 70
0
 10
0.0
 20
0.0
 30
0.0
  3
CIRCLE223
  1

  0
CIRCLE
  8
0
 62
1
 10
3.8539999999999996
 20
1.0
 30
0.0
 40
0.008
  0
ENDBLK
  8
0
  0
BLOCK
  8
0
  2
CIRCLE224
 70
0
 10
0.0
 20
0.0
 30
0.0
  3
CIRCLE224
  1

  0
CIRCLE
  8
0
 62
1
 10
3.8539999999999996
 20
1.3
 30
0.0
 40
0.008
  0
ENDBLK
  8
0
  0
BLOCK
  8
0
  2
CIRCLE225
 70
0
 10
0.0
 20
0.0
 30
0.0
  3
CIRCLE225
  1

  0
CIRCLE
  8
0
 62
1
 10
3.8539999999999996
 20
1.6
 30
0.0
 40
0.008
  0
ENDBLK
  8
0
  0
BLOCK
  8
0
  2
CIRCLE226
 70
0
 10
0.0
 20
0.0
 30
0.0
  3
CIRCLE226
  1

  0
CIRCLE
  8
0
 62
1
 10
3.8539999999999996
 20
1.9000000000000001
 30
0.0
 40
0.008
  0
ENDBLK
  8
0
  0
BLOCK
  8
0
  2
CIRCLE227
 70
0
 10
0.0
 20
0.0
 30
0.0
  3
CIRCLE227
  1

  0
CIRCLE
  8
0
 62
1
 10
3.8539999999999996
 20
2.2
 30
0.0
 40
0.008
  0
ENDBLK
  8
0
  0
BLOCK
  8
0
  2
LINE045
 70
0
 10
0.0
 20
0.0
 30
0.0
  3
LINE045
  1

  0
LINE
  8
0
 62
2
 10
3.554
 20
1.0999999999999999
 30
0.0
 11
3.8539999999999996
 21
2.1999999999999993
 31
0.0
  0
ENDBLK
  8
0
  0
BLOCK
  8
0
  2
WIRE046
 70
0
 10
0.0
 20
0.0
 30
0.0
  3
WIRE046
  1

  0
LINE
  8
0
 62
3
 10
3.9789999999999996
 20
5.2379999999999995
 30
0.0
 11
3.8859999999999997
 21
5.2379999999999995
 31
0.0
  0
ARC
  8
0
 62
3
 10
3.886
 20
5.27
 30
0.0
 40
0.03200000000000023
 50
-180.0
 51
-90.0000000000008
  0
LINE
  8
0
 62
3
 10
3.8539999999999996
 20
5.27
 30
0.0
 11
3.854
 21
10.13
 31
0.0
  0
ARC
  8
0
 62
3
 10
3.885999999999999
 20
10.130000000000003
 30
0.0
 40
0.03199999999999842
 50
89.99999999999763
 51
-180.0
  0
LINE
  8
0
 62
3
 10
3.886
 20
10.162
 30
0.0
 11
3.979
 21
10.162
 31
0.0
  0
ENDBLK
  8
0
  0
BLOCK
  8
0
  2
LINE046
 70
0
 10
0.0
 20
0.0
 30
0.0
  3
LINE046
  1

  0
LINE
  8
0
 62
6
 10
3.9789999999999996
 20
5.2379999999999995
 30
0.0
 11
3.9548518543427735
 21
5.231529523872437
 31
0.0
  0
ENDBLK
  8
0
  0
BLOCK
  8
0
  2
LINE047
 70
0
 10
0.0
 20
0.0
 30
0.0
  3
LINE047
  1

  0
LINE
  8
0
 62
6
 10
3.979
 20
10.162
 30
0.0
 11
3.9548518543427726
 21
10.168470476127565
 31
0.0
  0
ENDBLK
  8
0
  0
BLOCK
  8
0
  2
WIRE047
 70
0
 10
0.0
 20
0.0
 30
0.0
  3
WIRE047
  1

  0
LINE
  8
0
 62
2
 10
3.8540000000000005
 20
7.700000000000001
 30
0.0
 11
3.5540000000000007
 21
8.200000000000001
 31
0.0
  0
LINE
  8
0
 62
2
 10
3.5540000000000007
 20
8.200000000000001
 30
0.0
 11
3.4790000000000005
 21
8.200000000000001
 31
0.0
  0
ENDBLK
  8
0
  0
BLOCK
  8
0
  2
SHAPE043
 70
0
 10
0.0
 20
0.0
 30
0.0
  3
SHAPE043
  1

  0
LINE
  8
0
 62
0
 10
3.4040000000000004
 20
8.275
 30
0.0
 11
3.329
 21
8.275
 31
0.0
  0
ARC
  8
0
 62
0
 10
3.4040000000000012
 20
8.200000000000001
 30
0.0
 40
0.07499999999999929
 50
-90.00000000000068
 51
90.00000000000068
  0
LINE
  8
0
 62
0
 10
3.4040000000000004
 20
8.125000000000002
 30
0.0
 11
3.329
 21
8.125000000000002
 31
0.0
  0
ARC
  8
0
 62
0
 10
3.3289999999999997
 20
8.200000000000001
 30
0.0
 40
0.07499999999999929
 50
89.99999999999967
 51
-89.99999999999967
  0
ENDBLK
  8
0
  0
BLOCK
  8
0
  2
SHAPE044
 70
0
 10
0.0
 20
0.0
 30
0.0
  3
SHAPE044
  1

  0
LINE
  8
0
 62
0
 10
2.763529860842675
 20
7.975000000000001
 30
0.0
 11
2.7540101614113186
 21
7.975000000000001
 31
0.0
  0
LINE
  8
0
 62
0
 10
2.754010161411318
 20
7.975000000000001
 30
0.0
 11
2.754010161411318
 21
8.350000000000001
 31
0.0
  0
LINE
  8
0
 62
0
 10
2.754010161411318
 20
8.350000000000001
 30
0.0
 11
2.7635298608426746
 21
8.350000000000001
 31
0.0
  0
ENDBLK
  8
0
  0
BLOCK
  8
0
  2
SHAPE045
 70
0
 10
0.0
 20
0.0
 30
0.0
  3
SHAPE045
  1

  0
LINE
  8
0
 62
4
 10
4.1
 20
5.199999999999999
 30
0.0
 11
3.8
 21
5.199999999999999
 31
0.0
  0
LINE
  8
0
 62
4
 10
3.8
 20
5.199999999999999
 30
0.0
 11
3.8000000000000003
 21
10.2
 31
0.0
  0
LINE
  8
0
 62
4
 10
3.8000000000000003
 20
10.2
 30
0.0
 11
4.1
 21
10.2
 31
0.0
  0
LINE
  8
0
 62
4
 10
4.1
 20
10.2
 30
0.0
 11
4.1
 21
5.199999999999999
 31
0.0
  0
ENDBLK
  8
0
  0
BLOCK
  8
0
  2
WIRE048
 70
0
 10
0.0
 20
0.0
 30
0.0
  3
WIRE048
  1

  0
LINE
  8
0
 62
2
 10
-0.03799999999999999
 20
20.1
 30
0.0
 11
2.962
 21
19.8
 31
0.0
  0
LINE
  8
0
 62
2
 10
2.962
 20
19.8
 30
0.0
 11
3.0370000000000004
 21
19.8
 31
0.0
  0
ENDBLK
  8
0
  0
BLOCK
  8
0
  2
SHAPE046
 70
0
 10
0.0
 20
0.0
 30
0.0
  3
SHAPE046
  1

  0
LINE
  8
0
 62
0
 10
3.1120000000000005
 20
19.875
 30
0.0
 11
3.1870000000000007
 21
19.875
 31
0.0
  0
ARC
  8
0
 62
0
 10
3.111999999999998
 20
19.8
 30
0.0
 40
0.07499999999999869
 50
89.99999999999797
 51
-89.99999999999797
  0
LINE
  8
0
 62
0
 10
3.1120000000000005
 20
19.725
 30
0.0
 11
3.1870000000000007
 21
19.725
 31
0.0
  0
ARC
  8
0
 62
0
 10
3.187000000000003
 20
19.8
 30
0.0
 40
0.07499999999999869
 50
-90.0000000000017
 51
90.0000000000017
  0
ENDBLK
  8
0
  0
BLOCK
  8
0
  2
CIRCLE228
 70
0
 10
0.0
 20
0.0
 30
0.0
  3
CIRCLE228
  1

  0
CIRCLE
  8
0
 62
1
 10
-0.03799999999999999
 20
20.1
 30
0.0
 40
0.008
  0
ENDBLK
  8
0
  0
BLOCK
  8
0
  2
CIRCLE229
 70
0
 10
0.0
 20
0.0
 30
0.0
  3
CIRCLE229
  1

  0
CIRCLE
  8
0
 62
1
 10
-0.03799999999999997
 20
20.400000000000002
 30
0.0
 40
0.008
  0
ENDBLK
  8
0
  0
BLOCK
  8
0
  2
CIRCLE230
 70
0
 10
0.0
 20
0.0
 30
0.0
  3
CIRCLE230
  1

  0
CIRCLE
  8
0
 62
1
 10
-0.03799999999999995
 20
20.700000000000003
 30
0.0
 40
0.008
  0
ENDBLK
  8
0
  0
BLOCK
  8
0
  2
CIRCLE231
 70
0
 10
0.0
 20
0.0
 30
0.0
  3
CIRCLE231
  1

  0
CIRCLE
  8
0
 62
1
 10
-0.03799999999999993
 20
21.000000000000004
 30
0.0
 40
0.008
  0
ENDBLK
  8
0
  0
BLOCK
  8
0
  2
CIRCLE232
 70
0
 10
0.0
 20
0.0
 30
0.0
  3
CIRCLE232
  1

  0
CIRCLE
  8
0
 62
1
 10
-0.03799999999999991
 20
21.300000000000004
 30
0.0
 40
0.008
  0
ENDBLK
  8
0
  0
BLOCK
  8
0
  2
CIRCLE233
 70
0
 10
0.0
 20
0.0
 30
0.0
  3
CIRCLE233
  1

  0
CIRCLE
  8
0
 62
1
 10
-0.03799999999999989
 20
21.600000000000005
 30
0.0
 40
0.008
  0
ENDBLK
  8
0
  0
BLOCK
  8
0
  2
CIRCLE234
 70
0
 10
0.0
 20
0.0
 30
0.0
  3
CIRCLE234
  1

  0
CIRCLE
  8
0
 62
1
 10
-0.03799999999999987
 20
21.900000000000006
 30
0.0
 40
0.008
  0
ENDBLK
  8
0
  0
BLOCK
  8
0
  2
CIRCLE235
 70
0
 10
0.0
 20
0.0
 30
0.0
  3
CIRCLE235
  1

  0
CIRCLE
  8
0
 62
1
 10
-0.037999999999999846
 20
22.200000000000006
 30
0.0
 40
0.008
  0
ENDBLK
  8
0
  0
BLOCK
  8
0
  2
CIRCLE236
 70
0
 10
0.0
 20
0.0
 30
0.0
  3
CIRCLE236
  1

  0
CIRCLE
  8
0
 62
1
 10
-0.037999999999999826
 20
22.500000000000007
 30
0.0
 40
0.008
  0
ENDBLK
  8
0
  0
BLOCK
  8
0
  2
CIRCLE237
 70
0
 10
0.0
 20
0.0
 30
0.0
  3
CIRCLE237
  1

  0
CIRCLE
  8
0
 62
1
 10
-0.037999999999999805
 20
22.800000000000008
 30
0.0
 40
0.008
  0
ENDBLK
  8
0
  0
BLOCK
  8
0
  2
CIRCLE238
 70
0
 10
0.0
 20
0.0
 30
0.0
  3
CIRCLE238
  1

  0
CIRCLE
  8
0
 62
1
 10
-0.037999999999999784
 20
23.10000000000001
 30
0.0
 40
0.008
  0
ENDBLK
  8
0
  0
BLOCK
  8
0
  2
CIRCLE239
 70
0
 10
0.0
 20
0.0
 30
0.0
  3
CIRCLE239
  1

  0
CIRCLE
  8
0
 62
1
 10
-0.03799999999999976
 20
23.40000000000001
 30
0.0
 40
0.008
  0
ENDBLK
  8
0
  0
BLOCK
  8
0
  2
CIRCLE240
 70
0
 10
0.0
 20
0.0
 30
0.0
  3
CIRCLE240
  1

  0
CIRCLE
  8
0
 62
1
 10
-0.03799999999999974
 20
23.70000000000001
 30
0.0
 40
0.008
  0
ENDBLK
  8
0
  0
BLOCK
  8
0
  2
CIRCLE241
 70
0
 10
0.0
 20
0.0
 30
0.0
  3
CIRCLE241
  1

  0
CIRCLE
  8
0
 62
1
 10
-0.03799999999999972
 20
24.00000000000001
 30
0.0
 40
0.008
  0
ENDBLK
  8
0
  0
BLOCK
  8
0
  2
CIRCLE242
 70
0
 10
0.0
 20
0.0
 30
0.0
  3
CIRCLE242
  1

  0
CIRCLE
  8
0
 62
1
 10
-0.0379999999999997
 20
24.30000000000001
 30
0.0
 40
0.008
  0
ENDBLK
  8
0
  0
BLOCK
  8
0
  2
CIRCLE243
 70
0
 10
0.0
 20
0.0
 30
0.0
  3
CIRCLE243
  1

  0
CIRCLE
  8
0
 62
1
 10
-0.03799999999999968
 20
24.600000000000012
 30
0.0
 40
0.008
  0
ENDBLK
  8
0
  0
BLOCK
  8
0
  2
CIRCLE244
 70
0
 10
0.0
 20
0.0
 30
0.0
  3
CIRCLE244
  1

  0
CIRCLE
  8
0
 62
1
 10
-0.03799999999999966
 20
24.900000000000013
 30
0.0
 40
0.008
  0
ENDBLK
  8
0
  0
BLOCK
  8
0
  2
LINE048
 70
0
 10
0.0
 20
0.0
 30
0.0
  3
LINE048
  1

  0
LINE
  8
0
 62
2
 10
2.962
 20
19.8
 30
0.0
 11
-0.03799999999999981
 21
24.900000000000002
 31
0.0
  0
ENDBLK
  8
0
  0
BLOCK
  8
0
  2
WIRE049
 70
0
 10
0.0
 20
0.0
 30
0.0
  3
WIRE049
  1

  0
LINE
  8
0
 62
3
 10
0.462
 20
0.06599999999999996
 30
0.0
 11
0.29400000000000004
 21
0.066
 31
0.0
  0
ARC
  8
0
 62
3
 10
0.294
 20
0.098
 30
0.0
 40
0.03199999999999999
 50
-180.0
 51
-89.9999999999999
  0
LINE
  8
0
 62
3
 10
0.262
 20
0.098
 30
0.0
 11
0.262
 21
1.1414875064422123
 31
0.0
  0
ENDBLK
  8
0
  0
BLOCK
  8
0
  2
LINE049
 70
0
 10
0.0
 20
0.0
 30
0.0
  3
LINE049
  1

  0
LINE
  8
0
 62
6
 10
0.462
 20
0.06599999999999996
 30
0.0
 11
0.4378518543427733
 21
0.059529523872436936
 31
0.0
  0
ENDBLK
  8
0
  0
BLOCK
  8
0
  2
LINE050
 70
0
 10
0.0
 20
0.0
 30
0.0
  3
LINE050
  1

  0
LINE
  8
0
 62
6
 10
0.2620000000000001
 20
1.1414875064422128
 30
0.0
 11
0.25552952387243705
 21
1.1173393607849862
 31
0.0
  0
ENDBLK
  8
0
  0
BLOCK
  8
0
  2
WIRE050
 70
0
 10
0.0
 20
0.0
 30
0.0
  3
WIRE050
  1

  0
LINE
  8
0
 62
2
 10
0.262
 20
0.6037437532211061
 30
0.0
 11
0.4620000000000001
 21
0.803743753221106
 31
0.0
  0
LINE
  8
0
 62
2
 10
0.462
 20
0.803743753221106
 30
0.0
 11
0.537
 21
0.803743753221106
 31
0.0
  0
ENDBLK
  8
0
  0
BLOCK
  8
0
  2
SHAPE047
 70
0
 10
0.0
 20
0.0
 30
0.0
  3
SHAPE047
  1

  0
LINE
  8
0
 62
0
 10
0.612
 20
0.878743753221106
 30
0.0
 11
0.6869999999999999
 21
0.878743753221106
 31
0.0
  0
ARC
  8
0
 62
0
 10
0.612
 20
0.803743753221106
 30
0.0
 40
0.07499999999999996
 50
90.0
 51
-90.0
  0
LINE
  8
0
 62
0
 10
0.612
 20
0.7287437532211061
 30
0.0
 11
0.6869999999999999
 21
0.7287437532211061
 31
0.0
  0
ARC
  8
0
 62
0
 10
0.687
 20
0.803743753221106
 30
0.0
 40
0.07499999999999996
 50
-90.00000000000009
 51
90.00000000000009
  0
ENDBLK
  8
0
  0
BLOCK
  8
0
  2
SHAPE048
 70
0
 10
0.0
 20
0.0
 30
0.0
  3
SHAPE048
  1

  0
LINE
  8
0
 62
0
 10
1.3036363402412197
 20
0.6081442764019256
 30
0.0
 11
1.2339005231808196
 21
0.6081442764019256
 31
0.0
  0
LINE
  8
0
 62
0
 10
1.2339005231808196
 20
0.6081442764019256
 30
0.0
 11
1.2339005231808196
 21
0.9831442764019256
 31
0.0
  0
ENDBLK
  8
0
  0
BLOCK
  8
0
  2
WIRE051
 70
0
 10
0.0
 20
0.0
 30
0.0
  3
WIRE051
  1

  0
LINE
  8
0
 62
2
 10
-0.262
 20
20.1
 30
0.0
 11
2.738
 21
20.400000000000002
 31
0.0
  0
LINE
  8
0
 62
2
 10
2.738
 20
20.400000000000002
 30
0.0
 11
2.813
 21
20.400000000000002
 31
0.0
  0
ENDBLK
  8
0
  0
BLOCK
  8
0
  2
SHAPE049
 70
0
 10
0.0
 20
0.0
 30
0.0
  3
SHAPE049
  1

  0
LINE
  8
0
 62
0
 10
2.8880000000000003
 20
20.475
 30
0.0
 11
2.9630000000000005
 21
20.475
 31
0.0
  0
ARC
  8
0
 62
0
 10
2.8879999999999977
 20
20.400000000000002
 30
0.0
 40
0.07499999999999869
 50
89.99999999999797
 51
-89.99999999999797
  0
LINE
  8
0
 62
0
 10
2.8880000000000003
 20
20.325000000000003
 30
0.0
 11
2.9630000000000005
 21
20.325000000000003
 31
0.0
  0
ARC
  8
0
 62
0
 10
2.9630000000000027
 20
20.400000000000002
 30
0.0
 40
0.07499999999999869
 50
-90.0000000000017
 51
90.0000000000017
  0
ENDBLK
  8
0
  0
BLOCK
  8
0
  2
CIRCLE245
 70
0
 10
0.0
 20
0.0
 30
0.0
  3
CIRCLE245
  1

  0
CIRCLE
  8
0
 62
1
 10
-0.262
 20
20.1
 30
0.0
 40
0.008
  0
ENDBLK
  8
0
  0
BLOCK
  8
0
  2
CIRCLE246
 70
0
 10
0.0
 20
0.0
 30
0.0
  3
CIRCLE246
  1

  0
CIRCLE
  8
0
 62
1
 10
-0.262
 20
20.400000000000002
 30
0.0
 40
0.008
  0
ENDBLK
  8
0
  0
BLOCK
  8
0
  2
CIRCLE247
 70
0
 10
0.0
 20
0.0
 30
0.0
  3
CIRCLE247
  1

  0
CIRCLE
  8
0
 62
1
 10
-0.262
 20
20.700000000000003
 30
0.0
 40
0.008
  0
ENDBLK
  8
0
  0
BLOCK
  8
0
  2
CIRCLE248
 70
0
 10
0.0
 20
0.0
 30
0.0
  3
CIRCLE248
  1

  0
CIRCLE
  8
0
 62
1
 10
-0.262
 20
21.000000000000004
 30
0.0
 40
0.008
  0
ENDBLK
  8
0
  0
BLOCK
  8
0
  2
CIRCLE249
 70
0
 10
0.0
 20
0.0
 30
0.0
  3
CIRCLE249
  1

  0
CIRCLE
  8
0
 62
1
 10
-0.262
 20
21.300000000000004
 30
0.0
 40
0.008
  0
ENDBLK
  8
0
  0
BLOCK
  8
0
  2
CIRCLE250
 70
0
 10
0.0
 20
0.0
 30
0.0
  3
CIRCLE250
  1

  0
CIRCLE
  8
0
 62
1
 10
-0.262
 20
21.600000000000005
 30
0.0
 40
0.008
  0
ENDBLK
  8
0
  0
BLOCK
  8
0
  2
CIRCLE251
 70
0
 10
0.0
 20
0.0
 30
0.0
  3
CIRCLE251
  1

  0
CIRCLE
  8
0
 62
1
 10
-0.262
 20
21.900000000000006
 30
0.0
 40
0.008
  0
ENDBLK
  8
0
  0
BLOCK
  8
0
  2
CIRCLE252
 70
0
 10
0.0
 20
0.0
 30
0.0
  3
CIRCLE252
  1

  0
CIRCLE
  8
0
 62
1
 10
-0.262
 20
22.200000000000006
 30
0.0
 40
0.008
  0
ENDBLK
  8
0
  0
BLOCK
  8
0
  2
CIRCLE253
 70
0
 10
0.0
 20
0.0
 30
0.0
  3
CIRCLE253
  1

  0
CIRCLE
  8
0
 62
1
 10
-0.262
 20
22.500000000000007
 30
0.0
 40
0.008
  0
ENDBLK
  8
0
  0
BLOCK
  8
0
  2
CIRCLE254
 70
0
 10
0.0
 20
0.0
 30
0.0
  3
CIRCLE254
  1

  0
CIRCLE
  8
0
 62
1
 10
-0.262
 20
22.800000000000008
 30
0.0
 40
0.008
  0
ENDBLK
  8
0
  0
BLOCK
  8
0
  2
CIRCLE255
 70
0
 10
0.0
 20
0.0
 30
0.0
  3
CIRCLE255
  1

  0
CIRCLE
  8
0
 62
1
 10
-0.262
 20
23.10000000000001
 30
0.0
 40
0.008
  0
ENDBLK
  8
0
  0
BLOCK
  8
0
  2
CIRCLE256
 70
0
 10
0.0
 20
0.0
 30
0.0
  3
CIRCLE256
  1

  0
CIRCLE
  8
0
 62
1
 10
-0.262
 20
23.40000000000001
 30
0.0
 40
0.008
  0
ENDBLK
  8
0
  0
BLOCK
  8
0
  2
CIRCLE257
 70
0
 10
0.0
 20
0.0
 30
0.0
  3
CIRCLE257
  1

  0
CIRCLE
  8
0
 62
1
 10
-0.262
 20
23.70000000000001
 30
0.0
 40
0.008
  0
ENDBLK
  8
0
  0
BLOCK
  8
0
  2
CIRCLE258
 70
0
 10
0.0
 20
0.0
 30
0.0
  3
CIRCLE258
  1

  0
CIRCLE
  8
0
 62
1
 10
-0.262
 20
24.00000000000001
 30
0.0
 40
0.008
  0
ENDBLK
  8
0
  0
BLOCK
  8
0
  2
CIRCLE259
 70
0
 10
0.0
 20
0.0
 30
0.0
  3
CIRCLE259
  1

  0
CIRCLE
  8
0
 62
1
 10
-0.262
 20
24.30000000000001
 30
0.0
 40
0.008
  0
ENDBLK
  8
0
  0
BLOCK
  8
0
  2
CIRCLE260
 70
0
 10
0.0
 20
0.0
 30
0.0
  3
CIRCLE260
  1

  0
CIRCLE
  8
0
 62
1
 10
-0.262
 20
24.600000000000012
 30
0.0
 40
0.008
  0
ENDBLK
  8
0
  0
BLOCK
  8
0
  2
CIRCLE261
 70
0
 10
0.0
 20
0.0
 30
0.0
  3
CIRCLE261
  1

  0
CIRCLE
  8
0
 62
1
 10
-0.262
 20
24.900000000000013
 30
0.0
 40
0.008
  0
ENDBLK
  8
0
  0
BLOCK
  8
0
  2
LINE051
 70
0
 10
0.0
 20
0.0
 30
0.0
  3
LINE051
  1

  0
LINE
  8
0
 62
2
 10
2.738
 20
20.400000000000002
 30
0.0
 11
-0.26200000000000045
 21
24.900000000000002
 31
0.0
  0
ENDBLK
  8
0
  0
BLOCK
  8
0
  2
WIRE052
 70
0
 10
0.0
 20
0.0
 30
0.0
  3
WIRE052
  1

  0
LINE
  8
0
 62
3
 10
0.23800000000000002
 20
0.06599999999999996
 30
0.0
 11
0.07
 21
0.066
 31
0.0
  0
ARC
  8
0
 62
3
 10
0.07
 20
0.098
 30
0.0
 40
0.032
 50
-180.0
 51
-90.0
  0
LINE
  8
0
 62
3
 10
0.038000000000000006
 20
0.098
 30
0.0
 11
0.03800000000000007
 21
1.1414875064422123
 31
0.0
  0
ENDBLK
  8
0
  0
BLOCK
  8
0
  2
LINE052
 70
0
 10
0.0
 20
0.0
 30
0.0
  3
LINE052
  1

  0
LINE
  8
0
 62
6
 10
0.23800000000000002
 20
0.06599999999999996
 30
0.0
 11
0.21385185434277332
 21
0.05952952387243694
 31
0.0
  0
ENDBLK
  8
0
  0
BLOCK
  8
0
  2
LINE053
 70
0
 10
0.0
 20
0.0
 30
0.0
  3
LINE053
  1

  0
LINE
  8
0
 62
6
 10
0.03800000000000009
 20
1.141487506442212
 30
0.0
 11
0.031529523872437085
 21
1.1173393607849855
 31
0.0
  0
ENDBLK
  8
0
  0
BLOCK
  8
0
  2
WIRE053
 70
0
 10
0.0
 20
0.0
 30
0.0
  3
WIRE053
  1

  0
LINE
  8
0
 62
2
 10
0.038000000000000034
 20
0.6037437532211061
 30
0.0
 11
-0.162
 21
0.803743753221106
 31
0.0
  0
LINE
  8
0
 62
2
 10
-0.16199999999999998
 20
0.803743753221106
 30
0.0
 11
-0.237
 21
0.803743753221106
 31
0.0
  0
ENDBLK
  8
0
  0
BLOCK
  8
0
  2
SHAPE050
 70
0
 10
0.0
 20
0.0
 30
0.0
  3
SHAPE050
  1

  0
LINE
  8
0
 62
0
 10
-0.312
 20
0.878743753221106
 30
0.0
 11
-0.387
 21
0.878743753221106
 31
0.0
  0
ARC
  8
0
 62
0
 10
-0.31199999999999994
 20
0.803743753221106
 30
0.0
 40
0.07499999999999996
 50
-90.00000000000006
 51
90.00000000000006
  0
LINE
  8
0
 62
0
 10
-0.312
 20
0.7287437532211061
 30
0.0
 11
-0.387
 21
0.7287437532211061
 31
0.0
  0
ARC
  8
0
 62
0
 10
-0.387
 20
0.803743753221106
 30
0.0
 40
0.07499999999999996
 50
90.0
 51
-90.0
  0
ENDBLK
  8
0
  0
BLOCK
  8
0
  2
SHAPE051
 70
0
 10
0.0
 20
0.0
 30
0.0
  3
SHAPE051
  1

  0
LINE
  8
0
 62
0
 10
-0.9275994768191805
 20
0.6081442764019256
 30
0.0
 11
-0.9973352938795806
 21
0.6081442764019256
 31
0.0
  0
LINE
  8
0
 62
0
 10
-0.9973352938795806
 20
0.6081442764019256
 30
0.0
 11
-0.9973352938795806
 21
0.9831442764019256
 31
0.0
  0
ENDBLK
  8
0
  0
BLOCK
  8
0
  2
WIRE054
 70
0
 10
0.0
 20
0.0
 30
0.0
  3
WIRE054
  1

  0
LINE
  8
0
 62
2
 10
4.061999999999999
 20
20.1
 30
0.0
 11
7.061999999999999
 21
19.8
 31
0.0
  0
LINE
  8
0
 62
2
 10
7.061999999999999
 20
19.8
 30
0.0
 11
7.137
 21
19.8
 31
0.0
  0
ENDBLK
  8
0
  0
BLOCK
  8
0
  2
SHAPE052
 70
0
 10
0.0
 20
0.0
 30
0.0
  3
SHAPE052
  1

  0
LINE
  8
0
 62
0
 10
7.212
 20
19.875
 30
0.0
 11
7.287
 21
19.875
 31
0.0
  0
ARC
  8
0
 62
0
 10
7.211999999999998
 20
19.8
 30
0.0
 40
0.074999999999999
 50
89.99999999999865
 51
-89.99999999999865
  0
LINE
  8
0
 62
0
 10
7.212
 20
19.725
 30
0.0
 11
7.287
 21
19.725
 31
0.0
  0
ARC
  8
0
 62
0
 10
7.287000000000003
 20
19.8
 30
0.0
 40
0.07499999999999869
 50
-90.00000000000203
 51
90.00000000000203
  0
ENDBLK
  8
0
  0
BLOCK
  8
0
  2
CIRCLE262
 70
0
 10
0.0
 20
0.0
 30
0.0
  3
CIRCLE262
  1

  0
CIRCLE
  8
0
 62
1
 10
4.061999999999999
 20
20.1
 30
0.0
 40
0.008
  0
ENDBLK
  8
0
  0
BLOCK
  8
0
  2
CIRCLE263
 70
0
 10
0.0
 20
0.0
 30
0.0
  3
CIRCLE263
  1

  0
CIRCLE
  8
0
 62
1
 10
4.061999999999999
 20
20.400000000000002
 30
0.0
 40
0.008
  0
ENDBLK
  8
0
  0
BLOCK
  8
0
  2
CIRCLE264
 70
0
 10
0.0
 20
0.0
 30
0.0
  3
CIRCLE264
  1

  0
CIRCLE
  8
0
 62
1
 10
4.061999999999999
 20
20.700000000000003
 30
0.0
 40
0.008
  0
ENDBLK
  8
0
  0
BLOCK
  8
0
  2
CIRCLE265
 70
0
 10
0.0
 20
0.0
 30
0.0
  3
CIRCLE265
  1

  0
CIRCLE
  8
0
 62
1
 10
4.061999999999999
 20
21.000000000000004
 30
0.0
 40
0.008
  0
ENDBLK
  8
0
  0
BLOCK
  8
0
  2
CIRCLE266
 70
0
 10
0.0
 20
0.0
 30
0.0
  3
CIRCLE266
  1

  0
CIRCLE
  8
0
 62
1
 10
4.061999999999999
 20
21.300000000000004
 30
0.0
 40
0.008
  0
ENDBLK
  8
0
  0
BLOCK
  8
0
  2
CIRCLE267
 70
0
 10
0.0
 20
0.0
 30
0.0
  3
CIRCLE267
  1

  0
CIRCLE
  8
0
 62
1
 10
4.061999999999999
 20
21.600000000000005
 30
0.0
 40
0.008
  0
ENDBLK
  8
0
  0
BLOCK
  8
0
  2
CIRCLE268
 70
0
 10
0.0
 20
0.0
 30
0.0
  3
CIRCLE268
  1

  0
CIRCLE
  8
0
 62
1
 10
4.061999999999999
 20
21.900000000000006
 30
0.0
 40
0.008
  0
ENDBLK
  8
0
  0
BLOCK
  8
0
  2
CIRCLE269
 70
0
 10
0.0
 20
0.0
 30
0.0
  3
CIRCLE269
  1

  0
CIRCLE
  8
0
 62
1
 10
4.061999999999999
 20
22.200000000000006
 30
0.0
 40
0.008
  0
ENDBLK
  8
0
  0
BLOCK
  8
0
  2
CIRCLE270
 70
0
 10
0.0
 20
0.0
 30
0.0
  3
CIRCLE270
  1

  0
CIRCLE
  8
0
 62
1
 10
4.061999999999999
 20
22.500000000000007
 30
0.0
 40
0.008
  0
ENDBLK
  8
0
  0
BLOCK
  8
0
  2
CIRCLE271
 70
0
 10
0.0
 20
0.0
 30
0.0
  3
CIRCLE271
  1

  0
CIRCLE
  8
0
 62
1
 10
4.061999999999999
 20
22.800000000000008
 30
0.0
 40
0.008
  0
ENDBLK
  8
0
  0
BLOCK
  8
0
  2
CIRCLE272
 70
0
 10
0.0
 20
0.0
 30
0.0
  3
CIRCLE272
  1

  0
CIRCLE
  8
0
 62
1
 10
4.061999999999999
 20
23.10000000000001
 30
0.0
 40
0.008
  0
ENDBLK
  8
0
  0
BLOCK
  8
0
  2
CIRCLE273
 70
0
 10
0.0
 20
0.0
 30
0.0
  3
CIRCLE273
  1

  0
CIRCLE
  8
0
 62
1
 10
4.061999999999999
 20
23.40000000000001
 30
0.0
 40
0.008
  0
ENDBLK
  8
0
  0
BLOCK
  8
0
  2
CIRCLE274
 70
0
 10
0.0
 20
0.0
 30
0.0
  3
CIRCLE274
  1

  0
CIRCLE
  8
0
 62
1
 10
4.061999999999999
 20
23.70000000000001
 30
0.0
 40
0.008
  0
ENDBLK
  8
0
  0
BLOCK
  8
0
  2
CIRCLE275
 70
0
 10
0.0
 20
0.0
 30
0.0
  3
CIRCLE275
  1

  0
CIRCLE
  8
0
 62
1
 10
4.061999999999999
 20
24.00000000000001
 30
0.0
 40
0.008
  0
ENDBLK
  8
0
  0
BLOCK
  8
0
  2
CIRCLE276
 70
0
 10
0.0
 20
0.0
 30
0.0
  3
CIRCLE276
  1

  0
CIRCLE
  8
0
 62
1
 10
4.061999999999999
 20
24.30000000000001
 30
0.0
 40
0.008
  0
ENDBLK
  8
0
  0
BLOCK
  8
0
  2
CIRCLE277
 70
0
 10
0.0
 20
0.0
 30
0.0
  3
CIRCLE277
  1

  0
CIRCLE
  8
0
 62
1
 10
4.061999999999999
 20
24.600000000000012
 30
0.0
 40
0.008
  0
ENDBLK
  8
0
  0
BLOCK
  8
0
  2
CIRCLE278
 70
0
 10
0.0
 20
0.0
 30
0.0
  3
CIRCLE278
  1

  0
CIRCLE
  8
0
 62
1
 10
4.061999999999999
 20
24.900000000000013
 30
0.0
 40
0.008
  0
ENDBLK
  8
0
  0
BLOCK
  8
0
  2
LINE054
 70
0
 10
0.0
 20
0.0
 30
0.0
  3
LINE054
  1

  0
LINE
  8
0
 62
2
 10
7.061999999999999
 20
19.8
 30
0.0
 11
4.061999999999999
 21
24.900000000000002
 31
0.0
  0
ENDBLK
  8
0
  0
BLOCK
  8
0
  2
WIRE055
 70
0
 10
0.0
 20
0.0
 30
0.0
  3
WIRE055
  1

  0
LINE
  8
0
 62
3
 10
3.861999999999999
 20
0.06600000000000002
 30
0.0
 11
4.029999999999999
 21
0.066
 31
0.0
  0
ARC
  8
0
 62
3
 10
4.029999999999999
 20
0.09800000000000018
 30
0.0
 40
0.03200000000000009
 50
-90.0
 51
-0.0
  0
LINE
  8
0
 62
3
 10
4.061999999999999
 20
0.09800000000000002
 30
0.0
 11
4.061999999999999
 21
1.1414875064422123
 31
0.0
  0
ENDBLK
  8
0
  0
BLOCK
  8
0
  2
LINE055
 70
0
 10
0.0
 20
0.0
 30
0.0
  3
LINE055
  1

  0
LINE
  8
0
 62
6
 10
3.8619999999999988
 20
0.06599999999999961
 30
0.0
 11
3.8861481456572258
 21
0.07247047612756262
 31
0.0
  0
ENDBLK
  8
0
  0
BLOCK
  8
0
  2
LINE056
 70
0
 10
0.0
 20
0.0
 30
0.0
  3
LINE056
  1

  0
LINE
  8
0
 62
6
 10
4.0619999999999985
 20
1.1414875064422128
 30
0.0
 11
4.055529523872435
 21
1.1173393607849857
 31
0.0
  0
ENDBLK
  8
0
  0
BLOCK
  8
0
  2
WIRE056
 70
0
 10
0.0
 20
0.0
 30
0.0
  3
WIRE056
  1

  0
LINE
  8
0
 62
2
 10
4.061999999999999
 20
0.6037437532211061
 30
0.0
 11
4.262
 21
0.803743753221106
 31
0.0
  0
LINE
  8
0
 62
2
 10
4.262
 20
0.803743753221106
 30
0.0
 11
4.337
 21
0.803743753221106
 31
0.0
  0
ENDBLK
  8
0
  0
BLOCK
  8
0
  2
SHAPE053
 70
0
 10
0.0
 20
0.0
 30
0.0
  3
SHAPE053
  1

  0
LINE
  8
0
 62
0
 10
4.412
 20
0.878743753221106
 30
0.0
 11
4.487
 21
0.878743753221106
 31
0.0
  0
ARC
  8
0
 62
0
 10
4.411999999999999
 20
0.803743753221106
 30
0.0
 40
0.07499999999999973
 50
89.99999999999933
 51
-89.99999999999933
  0
LINE
  8
0
 62
0
 10
4.412
 20
0.7287437532211061
 30
0.0
 11
4.487
 21
0.7287437532211061
 31
0.0
  0
ARC
  8
0
 62
0
 10
4.487
 20
0.803743753221106
 30
0.0
 40
0.07500000000000002
 50
-90.0
 51
90.0
  0
ENDBLK
  8
0
  0
BLOCK
  8
0
  2
SHAPE054
 70
0
 10
0.0
 20
0.0
 30
0.0
  3
SHAPE054
  1

  0
LINE
  8
0
 62
0
 10
4.97509947681918
 20
0.6081442764019257
 30
0.0
 11
5.04483529387958
 21
0.6081442764019257
 31
0.0
  0
LINE
  8
0
 62
0
 10
5.044835293879579
 20
0.6081442764019256
 30
0.0
 11
5.044835293879579
 21
0.9831442764019256
 31
0.0
  0
ENDBLK
  8
0
  0
BLOCK
  8
0
  2
WIRE057
 70
0
 10
0.0
 20
0.0
 30
0.0
  3
WIRE057
  1

  0
LINE
  8
0
 62
2
 10
3.8379999999999996
 20
20.1
 30
0.0
 11
6.837999999999999
 21
20.400000000000002
 31
0.0
  0
LINE
  8
0
 62
2
 10
6.837999999999999
 20
20.400000000000002
 30
0.0
 11
6.912999999999999
 21
20.400000000000002
 31
0.0
  0
ENDBLK
  8
0
  0
BLOCK
  8
0
  2
SHAPE055
 70
0
 10
0.0
 20
0.0
 30
0.0
  3
SHAPE055
  1

  0
LINE
  8
0
 62
0
 10
6.9879999999999995
 20
20.475
 30
0.0
 11
7.063
 21
20.475
 31
0.0
  0
ARC
  8
0
 62
0
 10
6.987999999999998
 20
20.400000000000002
 30
0.0
 40
0.074999999999999
 50
89.99999999999865
 51
-89.99999999999865
  0
LINE
  8
0
 62
0
 10
6.9879999999999995
 20
20.325000000000003
 30
0.0
 11
7.063
 21
20.325000000000003
 31
0.0
  0
ARC
  8
0
 62
0
 10
7.063000000000002
 20
20.400000000000002
 30
0.0
 40
0.07499999999999869
 50
-90.00000000000203
 51
90.00000000000203
  0
ENDBLK
  8
0
  0
BLOCK
  8
0
  2
CIRCLE279
 70
0
 10
0.0
 20
0.0
 30
0.0
  3
CIRCLE279
  1

  0
CIRCLE
  8
0
 62
1
 10
3.8379999999999996
 20
20.1
 30
0.0
 40
0.008
  0
ENDBLK
  8
0
  0
BLOCK
  8
0
  2
CIRCLE280
 70
0
 10
0.0
 20
0.0
 30
0.0
  3
CIRCLE280
  1

  0
CIRCLE
  8
0
 62
1
 10
3.8379999999999996
 20
20.400000000000002
 30
0.0
 40
0.008
  0
ENDBLK
  8
0
  0
BLOCK
  8
0
  2
CIRCLE281
 70
0
 10
0.0
 20
0.0
 30
0.0
  3
CIRCLE281
  1

  0
CIRCLE
  8
0
 62
1
 10
3.8379999999999996
 20
20.700000000000003
 30
0.0
 40
0.008
  0
ENDBLK
  8
0
  0
BLOCK
  8
0
  2
CIRCLE282
 70
0
 10
0.0
 20
0.0
 30
0.0
  3
CIRCLE282
  1

  0
CIRCLE
  8
0
 62
1
 10
3.8379999999999996
 20
21.000000000000004
 30
0.0
 40
0.008
  0
ENDBLK
  8
0
  0
BLOCK
  8
0
  2
CIRCLE283
 70
0
 10
0.0
 20
0.0
 30
0.0
  3
CIRCLE283
  1

  0
CIRCLE
  8
0
 62
1
 10
3.8379999999999996
 20
21.300000000000004
 30
0.0
 40
0.008
  0
ENDBLK
  8
0
  0
BLOCK
  8
0
  2
CIRCLE284
 70
0
 10
0.0
 20
0.0
 30
0.0
  3
CIRCLE284
  1

  0
CIRCLE
  8
0
 62
1
 10
3.8379999999999996
 20
21.600000000000005
 30
0.0
 40
0.008
  0
ENDBLK
  8
0
  0
BLOCK
  8
0
  2
CIRCLE285
 70
0
 10
0.0
 20
0.0
 30
0.0
  3
CIRCLE285
  1

  0
CIRCLE
  8
0
 62
1
 10
3.8379999999999996
 20
21.900000000000006
 30
0.0
 40
0.008
  0
ENDBLK
  8
0
  0
BLOCK
  8
0
  2
CIRCLE286
 70
0
 10
0.0
 20
0.0
 30
0.0
  3
CIRCLE286
  1

  0
CIRCLE
  8
0
 62
1
 10
3.8379999999999996
 20
22.200000000000006
 30
0.0
 40
0.008
  0
ENDBLK
  8
0
  0
BLOCK
  8
0
  2
CIRCLE287
 70
0
 10
0.0
 20
0.0
 30
0.0
  3
CIRCLE287
  1

  0
CIRCLE
  8
0
 62
1
 10
3.8379999999999996
 20
22.500000000000007
 30
0.0
 40
0.008
  0
ENDBLK
  8
0
  0
BLOCK
  8
0
  2
CIRCLE288
 70
0
 10
0.0
 20
0.0
 30
0.0
  3
CIRCLE288
  1

  0
CIRCLE
  8
0
 62
1
 10
3.8379999999999996
 20
22.800000000000008
 30
0.0
 40
0.008
  0
ENDBLK
  8
0
  0
BLOCK
  8
0
  2
CIRCLE289
 70
0
 10
0.0
 20
0.0
 30
0.0
  3
CIRCLE289
  1

  0
CIRCLE
  8
0
 62
1
 10
3.8379999999999996
 20
23.10000000000001
 30
0.0
 40
0.008
  0
ENDBLK
  8
0
  0
BLOCK
  8
0
  2
CIRCLE290
 70
0
 10
0.0
 20
0.0
 30
0.0
  3
CIRCLE290
  1

  0
CIRCLE
  8
0
 62
1
 10
3.8379999999999996
 20
23.40000000000001
 30
0.0
 40
0.008
  0
ENDBLK
  8
0
  0
BLOCK
  8
0
  2
CIRCLE291
 70
0
 10
0.0
 20
0.0
 30
0.0
  3
CIRCLE291
  1

  0
CIRCLE
  8
0
 62
1
 10
3.8379999999999996
 20
23.70000000000001
 30
0.0
 40
0.008
  0
ENDBLK
  8
0
  0
BLOCK
  8
0
  2
CIRCLE292
 70
0
 10
0.0
 20
0.0
 30
0.0
  3
CIRCLE292
  1

  0
CIRCLE
  8
0
 62
1
 10
3.8379999999999996
 20
24.00000000000001
 30
0.0
 40
0.008
  0
ENDBLK
  8
0
  0
BLOCK
  8
0
  2
CIRCLE293
 70
0
 10
0.0
 20
0.0
 30
0.0
  3
CIRCLE293
  1

  0
CIRCLE
  8
0
 62
1
 10
3.8379999999999996
 20
24.30000000000001
 30
0.0
 40
0.008
  0
ENDBLK
  8
0
  0
BLOCK
  8
0
  2
CIRCLE294
 70
0
 10
0.0
 20
0.0
 30
0.0
  3
CIRCLE294
  1

  0
CIRCLE
  8
0
 62
1
 10
3.8379999999999996
 20
24.600000000000012
 30
0.0
 40
0.008
  0
ENDBLK
  8
0
  0
BLOCK
  8
0
  2
CIRCLE295
 70
0
 10
0.0
 20
0.0
 30
0.0
  3
CIRCLE295
  1

  0
CIRCLE
  8
0
 62
1
 10
3.8379999999999996
 20
24.900000000000013
 30
0.0
 40
0.008
  0
ENDBLK
  8
0
  0
BLOCK
  8
0
  2
LINE057
 70
0
 10
0.0
 20
0.0
 30
0.0
  3
LINE057
  1

  0
LINE
  8
0
 62
2
 10
6.837999999999999
 20
20.400000000000002
 30
0.0
 11
3.8379999999999987
 21
24.900000000000002
 31
0.0
  0
ENDBLK
  8
0
  0
BLOCK
  8
0
  2
WIRE058
 70
0
 10
0.0
 20
0.0
 30
0.0
  3
WIRE058
  1

  0
LINE
  8
0
 62
3
 10
3.6379999999999995
 20
0.06600000000000003
 30
0.0
 11
3.8059999999999996
 21
0.06600000000000002
 31
0.0
  0
ARC
  8
0
 62
3
 10
3.8059999999999996
 20
0.09800000000000018
 30
0.0
 40
0.032000000000000084
 50
-90.0
 51
-0.0
  0
LINE
  8
0
 62
3
 10
3.8379999999999996
 20
0.09800000000000003
 30
0.0
 11
3.8379999999999996
 21
1.1414875064422123
 31
0.0
  0
ENDBLK
  8
0
  0
BLOCK
  8
0
  2
LINE058
 70
0
 10
0.0
 20
0.0
 30
0.0
  3
LINE058
  1

  0
LINE
  8
0
 62
6
 10
3.637999999999999
 20
0.06599999999999984
 30
0.0
 11
3.662148145657226
 21
0.07247047612756305
 31
0.0
  0
ENDBLK
  8
0
  0
BLOCK
  8
0
  2
LINE059
 70
0
 10
0.0
 20
0.0
 30
0.0
  3
LINE059
  1

  0
LINE
  8
0
 62
6
 10
3.8379999999999983
 20
1.1414875064422123
 30
0.0
 11
3.8315295238724354
 21
1.1173393607849857
 31
0.0
  0
ENDBLK
  8
0
  0
BLOCK
  8
0
  2
WIRE059
 70
0
 10
0.0
 20
0.0
 30
0.0
  3
WIRE059
  1

  0
LINE
  8
0
 62
2
 10
3.837999999999999
 20
0.6037437532211061
 30
0.0
 11
3.637999999999999
 21
0.803743753221106
 31
0.0
  0
LINE
  8
0
 62
2
 10
3.637999999999999
 20
0.803743753221106
 30
0.0
 11
3.562999999999999
 21
0.803743753221106
 31
0.0
  0
ENDBLK
  8
0
  0
BLOCK
  8
0
  2
SHAPE056
 70
0
 10
0.0
 20
0.0
 30
0.0
  3
SHAPE056
  1

  0
LINE
  8
0
 62
0
 10
3.4879999999999987
 20
0.878743753221106
 30
0.0
 11
3.4129999999999985
 21
0.878743753221106
 31
0.0
  0
ARC
  8
0
 62
0
 10
3.4879999999999987
 20
0.803743753221106
 30
0.0
 40
0.07500000000000002
 50
-90.0
 51
90.0
  0
LINE
  8
0
 62
0
 10
3.4879999999999987
 20
0.7287437532211061
 30
0.0
 11
3.4129999999999985
 21
0.7287437532211061
 31
0.0
  0
ARC
  8
0
 62
0
 10
3.412999999999999
 20
0.803743753221106
 30
0.0
 40
0.07500000000000002
 50
90.00000000000034
 51
-90.00000000000034
  0
ENDBLK
  8
0
  0
BLOCK
  8
0
  2
SHAPE057
 70
0
 10
0.0
 20
0.0
 30
0.0
  3
SHAPE057
  1

  0
LINE
  8
0
 62
0
 10
2.743863659758779
 20
0.6081442764019257
 30
0.0
 11
2.813599476819179
 21
0.6081442764019257
 31
0.0
  0
LINE
  8
0
 62
0
 10
2.8135994768191788
 20
0.6081442764019257
 30
0.0
 11
2.8135994768191788
 21
0.9831442764019257
 31
0.0
  0
ENDBLK
  8
0
  0
ENDSEC
  0
SECTION
  2
ENTITIES
  0
INSERT
  8
color_0
 62
0
  2
SHAPE
 10
0.0
 20
0.0
 30
0.0
  0
INSERT
  8
color_0
 62
0
  2
SHAPE001
 10
0.0
 20
0.0
 30
0.0
  0
INSERT
  8
color_2
 62
2
  2
WIRE
 10
0.0
 20
0.0
 30
0.0
  0
INSERT
  8
color_2
 62
2
  2
CIRCLE
 10
0.0
 20
0.0
 30
0.0
  0
TEXT
  8
color_0
 62
0
 10
8.312499999999998
 20
-0.2995
 30
0.0
 40
0.06
  1
3  %%C16c/0.3
  7
STANDARD
  0
INSERT
  8
color_1
 62
1
  2
CIRCLE001
 10
0.0
 20
0.0
 30
0.0
  0
INSERT
  8
color_1
 62
1
  2
CIRCLE002
 10
0.0
 20
0.0
 30
0.0
  0
INSERT
  8
color_1
 62
1
  2
CIRCLE003
 10
0.0
 20
0.0
 30
0.0
  0
INSERT
  8
color_1
 62
1
  2
CIRCLE004
 10
0.0
 20
0.0
 30
0.0
  0
INSERT
  8
color_1
 62
1
  2
CIRCLE005
 10
0.0
 20
0.0
 30
0.0
  0
INSERT
  8
color_1
 62
1
  2
CIRCLE006
 10
0.0
 20
0.0
 30
0.0
  0
INSERT
  8
color_1
 62
1
  2
CIRCLE007
 10
0.0
 20
0.0
 30
0.0
  0
INSERT
  8
color_1
 62
1
  2
CIRCLE008
 10
0.0
 20
0.0
 30
0.0
  0
INSERT
  8
color_1
 62
1
  2
CIRCLE009
 10
0.0
 20
0.0
 30
0.0
  0
INSERT
  8
color_1
 62
1
  2
CIRCLE010
 10
0.0
 20
0.0
 30
0.0
  0
INSERT
  8
color_1
 62
1
  2
CIRCLE011
 10
0.0
 20
0.0
 30
0.0
  0
INSERT
  8
color_1
 62
1
  2
CIRCLE012
 10
0.0
 20
0.0
 30
0.0
  0
INSERT
  8
color_1
 62
1
  2
CIRCLE013
 10
0.0
 20
0.0
 30
0.0
  0
INSERT
  8
color_1
 62
1
  2
CIRCLE014
 10
0.0
 20
0.0
 30
0.0
  0
INSERT
  8
color_1
 62
1
  2
CIRCLE015
 10
0.0
 20
0.0
 30
0.0
  0
INSERT
  8
color_1
 62
1
  2
CIRCLE016
 10
0.0
 20
0.0
 30
0.0
  0
INSERT
  8
color_1
 62
1
  2
CIRCLE017
 10
0.0
 20
0.0
 30
0.0
  0
INSERT
  8
color_2
 62
2
  2
LINE
 10
0.0
 20
0.0
 30
0.0
  0
INSERT
  8
color_3
 62
3
  2
WIRE001
 10
0.0
 20
0.0
 30
0.0
  0
INSERT
  8
color_6
 62
6
  2
LINE001
 10
0.0
 20
0.0
 30
0.0
  0
INSERT
  8
color_6
 62
6
  2
LINE002
 10
0.0
 20
0.0
 30
0.0
  0
INSERT
  8
color_2
 62
2
  2
WIRE002
 10
0.0
 20
0.0
 30
0.0
  0
INSERT
  8
color_2
 62
2
  2
CIRCLE018
 10
0.0
 20
0.0
 30
0.0
  0
TEXT
  8
color_0
 62
0
 10
1.6374999999999997
 20
-0.3995
 30
0.0
 40
0.06
  1
%%C16c/0.3   3
  7
STANDARD
  0
INSERT
  8
color_0
 62
0
  2
SHAPE002
 10
0.0
 20
0.0
 30
0.0
  0
INSERT
  8
color_2
 62
2
  2
WIRE003
 10
0.0
 20
0.0
 30
0.0
  0
INSERT
  8
color_2
 62
2
  2
CIRCLE019
 10
0.0
 20
0.0
 30
0.0
  0
TEXT
  8
color_0
 62
0
 10
8.312499999999998
 20
0.5245000000000001
 30
0.0
 40
0.06
  1
4  %%C16c/0.3
  7
STANDARD
  0
INSERT
  8
color_1
 62
1
  2
CIRCLE020
 10
0.0
 20
0.0
 30
0.0
  0
INSERT
  8
color_1
 62
1
  2
CIRCLE021
 10
0.0
 20
0.0
 30
0.0
  0
INSERT
  8
color_1
 62
1
  2
CIRCLE022
 10
0.0
 20
0.0
 30
0.0
  0
INSERT
  8
color_1
 62
1
  2
CIRCLE023
 10
0.0
 20
0.0
 30
0.0
  0
INSERT
  8
color_1
 62
1
  2
CIRCLE024
 10
0.0
 20
0.0
 30
0.0
  0
INSERT
  8
color_1
 62
1
  2
CIRCLE025
 10
0.0
 20
0.0
 30
0.0
  0
INSERT
  8
color_1
 62
1
  2
CIRCLE026
 10
0.0
 20
0.0
 30
0.0
  0
INSERT
  8
color_1
 62
1
  2
CIRCLE027
 10
0.0
 20
0.0
 30
0.0
  0
INSERT
  8
color_1
 62
1
  2
CIRCLE028
 10
0.0
 20
0.0
 30
0.0
  0
INSERT
  8
color_1
 62
1
  2
CIRCLE029
 10
0.0
 20
0.0
 30
0.0
  0
INSERT
  8
color_1
 62
1
  2
CIRCLE030
 10
0.0
 20
0.0
 30
0.0
  0
INSERT
  8
color_1
 62
1
  2
CIRCLE031
 10
0.0
 20
0.0
 30
0.0
  0
INSERT
  8
color_1
 62
1
  2
CIRCLE032
 10
0.0
 20
0.0
 30
0.0
  0
INSERT
  8
color_1
 62
1
  2
CIRCLE033
 10
0.0
 20
0.0
 30
0.0
  0
INSERT
  8
color_1
 62
1
  2
CIRCLE034
 10
0.0
 20
0.0
 30
0.0
  0
INSERT
  8
color_1
 62
1
  2
CIRCLE035
 10
0.0
 20
0.0
 30
0.0
  0
INSERT
  8
color_1
 62
1
  2
CIRCLE036
 10
0.0
 20
0.0
 30
0.0
  0
INSERT
  8
color_2
 62
2
  2
LINE003
 10
0.0
 20
0.0
 30
0.0
  0
INSERT
  8
color_3
 62
3
  2
WIRE004
 10
0.0
 20
0.0
 30
0.0
  0
INSERT
  8
color_6
 62
6
  2
LINE004
 10
0.0
 20
0.0
 30
0.0
  0
INSERT
  8
color_6
 62
6
  2
LINE005
 10
0.0
 20
0.0
 30
0.0
  0
INSERT
  8
color_2
 62
2
  2
WIRE005
 10
0.0
 20
0.0
 30
0.0
  0
INSERT
  8
color_2
 62
2
  2
CIRCLE037
 10
0.0
 20
0.0
 30
0.0
  0
TEXT
  8
color_0
 62
0
 10
1.6374999999999997
 20
0.6245
 30
0.0
 40
0.06
  1
%%C16c/0.3   4
  7
STANDARD
  0
INSERT
  8
color_0
 62
0
  2
SHAPE003
 10
0.0
 20
0.0
 30
0.0
  0
INSERT
  8
color_2
 62
2
  2
WIRE006
 10
0.0
 20
0.0
 30
0.0
  0
INSERT
  8
color_2
 62
2
  2
CIRCLE038
 10
0.0
 20
0.0
 30
0.0
  0
TEXT
  8
color_0
 62
0
 10
2.6725
 20
-0.2855
 30
0.0
 40
0.06
  1
1  %%C12c/0.3
  7
STANDARD
  0
INSERT
  8
color_1
 62
1
  2
CIRCLE039
 10
0.0
 20
0.0
 30
0.0
  0
INSERT
  8
color_1
 62
1
  2
CIRCLE040
 10
0.0
 20
0.0
 30
0.0
  0
INSERT
  8
color_1
 62
1
  2
CIRCLE041
 10
0.0
 20
0.0
 30
0.0
  0
INSERT
  8
color_1
 62
1
  2
CIRCLE042
 10
0.0
 20
0.0
 30
0.0
  0
INSERT
  8
color_1
 62
1
  2
CIRCLE043
 10
0.0
 20
0.0
 30
0.0
  0
INSERT
  8
color_1
 62
1
  2
CIRCLE044
 10
0.0
 20
0.0
 30
0.0
  0
INSERT
  8
color_1
 62
1
  2
CIRCLE045
 10
0.0
 20
0.0
 30
0.0
  0
INSERT
  8
color_1
 62
1
  2
CIRCLE046
 10
0.0
 20
0.0
 30
0.0
  0
INSERT
  8
color_1
 62
1
  2
CIRCLE047
 10
0.0
 20
0.0
 30
0.0
  0
INSERT
  8
color_1
 62
1
  2
CIRCLE048
 10
0.0
 20
0.0
 30
0.0
  0
INSERT
  8
color_1
 62
1
  2
CIRCLE049
 10
0.0
 20
0.0
 30
0.0
  0
INSERT
  8
color_1
 62
1
  2
CIRCLE050
 10
0.0
 20
0.0
 30
0.0
  0
INSERT
  8
color_1
 62
1
  2
CIRCLE051
 10
0.0
 20
0.0
 30
0.0
  0
INSERT
  8
color_1
 62
1
  2
CIRCLE052
 10
0.0
 20
0.0
 30
0.0
  0
INSERT
  8
color_2
 62
2
  2
LINE006
 10
0.0
 20
0.0
 30
0.0
  0
INSERT
  8
color_3
 62
3
  2
WIRE007
 10
0.0
 20
0.0
 30
0.0
  0
INSERT
  8
color_6
 62
6
  2
LINE007
 10
0.0
 20
0.0
 30
0.0
  0
INSERT
  8
color_6
 62
6
  2
LINE008
 10
0.0
 20
0.0
 30
0.0
  0
INSERT
  8
color_2
 62
2
  2
WIRE008
 10
0.0
 20
0.0
 30
0.0
  0
INSERT
  8
color_2
 62
2
  2
CIRCLE053
 10
0.0
 20
0.0
 30
0.0
  0
TEXT
  8
color_0
 62
0
 10
7.1875
 20
-0.3855
 30
0.0
 40
0.06
  1
%%C12c/0.3   1
  7
STANDARD
  0
INSERT
  8
color_0
 62
0
  2
SHAPE004
 10
0.0
 20
0.0
 30
0.0
  0
INSERT
  8
color_2
 62
2
  2
WIRE009
 10
0.0
 20
0.0
 30
0.0
  0
INSERT
  8
color_2
 62
2
  2
CIRCLE054
 10
0.0
 20
0.0
 30
0.0
  0
TEXT
  8
color_0
 62
0
 10
2.9724999999999997
 20
0.5085000000000001
 30
0.0
 40
0.06
  1
2  %%C16c/0.3
  7
STANDARD
  0
INSERT
  8
color_1
 62
1
  2
CIRCLE055
 10
0.0
 20
0.0
 30
0.0
  0
INSERT
  8
color_1
 62
1
  2
CIRCLE056
 10
0.0
 20
0.0
 30
0.0
  0
INSERT
  8
color_1
 62
1
  2
CIRCLE057
 10
0.0
 20
0.0
 30
0.0
  0
INSERT
  8
color_1
 62
1
  2
CIRCLE058
 10
0.0
 20
0.0
 30
0.0
  0
INSERT
  8
color_1
 62
1
  2
CIRCLE059
 10
0.0
 20
0.0
 30
0.0
  0
INSERT
  8
color_1
 62
1
  2
CIRCLE060
 10
0.0
 20
0.0
 30
0.0
  0
INSERT
  8
color_1
 62
1
  2
CIRCLE061
 10
0.0
 20
0.0
 30
0.0
  0
INSERT
  8
color_1
 62
1
  2
CIRCLE062
 10
0.0
 20
0.0
 30
0.0
  0
INSERT
  8
color_1
 62
1
  2
CIRCLE063
 10
0.0
 20
0.0
 30
0.0
  0
INSERT
  8
color_1
 62
1
  2
CIRCLE064
 10
0.0
 20
0.0
 30
0.0
  0
INSERT
  8
color_1
 62
1
  2
CIRCLE065
 10
0.0
 20
0.0
 30
0.0
  0
INSERT
  8
color_1
 62
1
  2
CIRCLE066
 10
0.0
 20
0.0
 30
0.0
  0
INSERT
  8
color_2
 62
2
  2
LINE009
 10
0.0
 20
0.0
 30
0.0
  0
INSERT
  8
color_3
 62
3
  2
WIRE010
 10
0.0
 20
0.0
 30
0.0
  0
INSERT
  8
color_6
 62
6
  2
LINE010
 10
0.0
 20
0.0
 30
0.0
  0
INSERT
  8
color_6
 62
6
  2
LINE011
 10
0.0
 20
0.0
 30
0.0
  0
INSERT
  8
color_2
 62
2
  2
WIRE011
 10
0.0
 20
0.0
 30
0.0
  0
INSERT
  8
color_2
 62
2
  2
CIRCLE067
 10
0.0
 20
0.0
 30
0.0
  0
TEXT
  8
color_0
 62
0
 10
7.1875
 20
0.6085
 30
0.0
 40
0.06
  1
%%C16c/0.3   2
  7
STANDARD
  0
INSERT
  8
color_0
 62
0
  2
SHAPE005
 10
0.0
 20
0.0
 30
0.0
  0
INSERT
  8
color_4
 62
4
  2
SHAPE006
 10
0.0
 20
0.0
 30
0.0
  0
INSERT
  8
color_2
 62
2
  2
WIRE012
 10
0.0
 20
0.0
 30
0.0
  0
INSERT
  8
color_0
 62
0
  2
SHAPE007
 10
0.0
 20
0.0
 30
0.0
  0
TEXT
  8
color_0
 62
0
 10
8.312499999999998
 20
2.0004999999999997
 30
0.0
 40
0.06
  1
13  %%C16c/0.3
  7
STANDARD
  0
INSERT
  8
color_1
 62
1
  2
CIRCLE068
 10
0.0
 20
0.0
 30
0.0
  0
INSERT
  8
color_1
 62
1
  2
CIRCLE069
 10
0.0
 20
0.0
 30
0.0
  0
INSERT
  8
color_1
 62
1
  2
CIRCLE070
 10
0.0
 20
0.0
 30
0.0
  0
INSERT
  8
color_1
 62
1
  2
CIRCLE071
 10
0.0
 20
0.0
 30
0.0
  0
INSERT
  8
color_1
 62
1
  2
CIRCLE072
 10
0.0
 20
0.0
 30
0.0
  0
INSERT
  8
color_1
 62
1
  2
CIRCLE073
 10
0.0
 20
0.0
 30
0.0
  0
INSERT
  8
color_1
 62
1
  2
CIRCLE074
 10
0.0
 20
0.0
 30
0.0
  0
INSERT
  8
color_1
 62
1
  2
CIRCLE075
 10
0.0
 20
0.0
 30
0.0
  0
INSERT
  8
color_1
 62
1
  2
CIRCLE076
 10
0.0
 20
0.0
 30
0.0
  0
INSERT
  8
color_1
 62
1
  2
CIRCLE077
 10
0.0
 20
0.0
 30
0.0
  0
INSERT
  8
color_1
 62
1
  2
CIRCLE078
 10
0.0
 20
0.0
 30
0.0
  0
INSERT
  8
color_1
 62
1
  2
CIRCLE079
 10
0.0
 20
0.0
 30
0.0
  0
INSERT
  8
color_1
 62
1
  2
CIRCLE080
 10
0.0
 20
0.0
 30
0.0
  0
INSERT
  8
color_1
 62
1
  2
CIRCLE081
 10
0.0
 20
0.0
 30
0.0
  0
INSERT
  8
color_1
 62
1
  2
CIRCLE082
 10
0.0
 20
0.0
 30
0.0
  0
INSERT
  8
color_1
 62
1
  2
CIRCLE083
 10
0.0
 20
0.0
 30
0.0
  0
INSERT
  8
color_1
 62
1
  2
CIRCLE084
 10
0.0
 20
0.0
 30
0.0
  0
INSERT
  8
color_2
 62
2
  2
LINE012
 10
0.0
 20
0.0
 30
0.0
  0
INSERT
  8
color_3
 62
3
  2
WIRE013
 10
0.0
 20
0.0
 30
0.0
  0
INSERT
  8
color_6
 62
6
  2
LINE013
 10
0.0
 20
0.0
 30
0.0
  0
INSERT
  8
color_6
 62
6
  2
LINE014
 10
0.0
 20
0.0
 30
0.0
  0
INSERT
  8
color_2
 62
2
  2
WIRE014
 10
0.0
 20
0.0
 30
0.0
  0
INSERT
  8
color_0
 62
0
  2
SHAPE008
 10
0.0
 20
0.0
 30
0.0
  0
TEXT
  8
color_0
 62
0
 10
1.6374999999999997
 20
1.9004999999999996
 30
0.0
 40
0.06
  1
%%C16c/0.3   13
  7
STANDARD
  0
INSERT
  8
color_0
 62
0
  2
SHAPE009
 10
0.0
 20
0.0
 30
0.0
  0
INSERT
  8
color_2
 62
2
  2
WIRE015
 10
0.0
 20
0.0
 30
0.0
  0
INSERT
  8
color_0
 62
0
  2
SHAPE010
 10
0.0
 20
0.0
 30
0.0
  0
TEXT
  8
color_0
 62
0
 10
8.312499999999998
 20
2.8244999999999996
 30
0.0
 40
0.06
  1
14  %%C16c/0.3
  7
STANDARD
  0
INSERT
  8
color_1
 62
1
  2
CIRCLE085
 10
0.0
 20
0.0
 30
0.0
  0
INSERT
  8
color_1
 62
1
  2
CIRCLE086
 10
0.0
 20
0.0
 30
0.0
  0
INSERT
  8
color_1
 62
1
  2
CIRCLE087
 10
0.0
 20
0.0
 30
0.0
  0
INSERT
  8
color_1
 62
1
  2
CIRCLE088
 10
0.0
 20
0.0
 30
0.0
  0
INSERT
  8
color_1
 62
1
  2
CIRCLE089
 10
0.0
 20
0.0
 30
0.0
  0
INSERT
  8
color_1
 62
1
  2
CIRCLE090
 10
0.0
 20
0.0
 30
0.0
  0
INSERT
  8
color_1
 62
1
  2
CIRCLE091
 10
0.0
 20
0.0
 30
0.0
  0
INSERT
  8
color_1
 62
1
  2
CIRCLE092
 10
0.0
 20
0.0
 30
0.0
  0
INSERT
  8
color_1
 62
1
  2
CIRCLE093
 10
0.0
 20
0.0
 30
0.0
  0
INSERT
  8
color_1
 62
1
  2
CIRCLE094
 10
0.0
 20
0.0
 30
0.0
  0
INSERT
  8
color_1
 62
1
  2
CIRCLE095
 10
0.0
 20
0.0
 30
0.0
  0
INSERT
  8
color_1
 62
1
  2
CIRCLE096
 10
0.0
 20
0.0
 30
0.0
  0
INSERT
  8
color_1
 62
1
  2
CIRCLE097
 10
0.0
 20
0.0
 30
0.0
  0
INSERT
  8
color_1
 62
1
  2
CIRCLE098
 10
0.0
 20
0.0
 30
0.0
  0
INSERT
  8
color_1
 62
1
  2
CIRCLE099
 10
0.0
 20
0.0
 30
0.0
  0
INSERT
  8
color_1
 62
1
  2
CIRCLE100
 10
0.0
 20
0.0
 30
0.0
  0
INSERT
  8
color_1
 62
1
  2
CIRCLE101
 10
0.0
 20
0.0
 30
0.0
  0
INSERT
  8
color_2
 62
2
  2
LINE015
 10
0.0
 20
0.0
 30
0.0
  0
INSERT
  8
color_3
 62
3
  2
WIRE016
 10
0.0
 20
0.0
 30
0.0
  0
INSERT
  8
color_6
 62
6
  2
LINE016
 10
0.0
 20
0.0
 30
0.0
  0
INSERT
  8
color_6
 62
6
  2
LINE017
 10
0.0
 20
0.0
 30
0.0
  0
INSERT
  8
color_2
 62
2
  2
WIRE017
 10
0.0
 20
0.0
 30
0.0
  0
INSERT
  8
color_0
 62
0
  2
SHAPE011
 10
0.0
 20
0.0
 30
0.0
  0
TEXT
  8
color_0
 62
0
 10
1.6374999999999997
 20
2.9244999999999997
 30
0.0
 40
0.06
  1
%%C16c/0.3   14
  7
STANDARD
  0
INSERT
  8
color_0
 62
0
  2
SHAPE012
 10
0.0
 20
0.0
 30
0.0
  0
INSERT
  8
color_2
 62
2
  2
WIRE018
 10
0.0
 20
0.0
 30
0.0
  0
INSERT
  8
color_0
 62
0
  2
SHAPE013
 10
0.0
 20
0.0
 30
0.0
  0
TEXT
  8
color_0
 62
0
 10
2.9724999999999997
 20
2.0164999999999997
 30
0.0
 40
0.06
  1
11  %%C16c/0.3
  7
STANDARD
  0
INSERT
  8
color_1
 62
1
  2
CIRCLE102
 10
0.0
 20
0.0
 30
0.0
  0
INSERT
  8
color_1
 62
1
  2
CIRCLE103
 10
0.0
 20
0.0
 30
0.0
  0
INSERT
  8
color_1
 62
1
  2
CIRCLE104
 10
0.0
 20
0.0
 30
0.0
  0
INSERT
  8
color_1
 62
1
  2
CIRCLE105
 10
0.0
 20
0.0
 30
0.0
  0
INSERT
  8
color_1
 62
1
  2
CIRCLE106
 10
0.0
 20
0.0
 30
0.0
  0
INSERT
  8
color_1
 62
1
  2
CIRCLE107
 10
0.0
 20
0.0
 30
0.0
  0
INSERT
  8
color_1
 62
1
  2
CIRCLE108
 10
0.0
 20
0.0
 30
0.0
  0
INSERT
  8
color_1
 62
1
  2
CIRCLE109
 10
0.0
 20
0.0
 30
0.0
  0
INSERT
  8
color_1
 62
1
  2
CIRCLE110
 10
0.0
 20
0.0
 30
0.0
  0
INSERT
  8
color_1
 62
1
  2
CIRCLE111
 10
0.0
 20
0.0
 30
0.0
  0
INSERT
  8
color_1
 62
1
  2
CIRCLE112
 10
0.0
 20
0.0
 30
0.0
  0
INSERT
  8
color_1
 62
1
  2
CIRCLE113
 10
0.0
 20
0.0
 30
0.0
  0
INSERT
  8
color_2
 62
2
  2
LINE018
 10
0.0
 20
0.0
 30
0.0
  0
INSERT
  8
color_3
 62
3
  2
WIRE019
 10
0.0
 20
0.0
 30
0.0
  0
INSERT
  8
color_6
 62
6
  2
LINE019
 10
0.0
 20
0.0
 30
0.0
  0
INSERT
  8
color_6
 62
6
  2
LINE020
 10
0.0
 20
0.0
 30
0.0
  0
INSERT
  8
color_2
 62
2
  2
WIRE020
 10
0.0
 20
0.0
 30
0.0
  0
INSERT
  8
color_0
 62
0
  2
SHAPE014
 10
0.0
 20
0.0
 30
0.0
  0
TEXT
  8
color_0
 62
0
 10
7.1875
 20
1.9164999999999996
 30
0.0
 40
0.06
  1
%%C16c/0.3   11
  7
STANDARD
  0
INSERT
  8
color_0
 62
0
  2
SHAPE015
 10
0.0
 20
0.0
 30
0.0
  0
INSERT
  8
color_2
 62
2
  2
WIRE021
 10
0.0
 20
0.0
 30
0.0
  0
INSERT
  8
color_0
 62
0
  2
SHAPE016
 10
0.0
 20
0.0
 30
0.0
  0
TEXT
  8
color_0
 62
0
 10
2.6725
 20
2.8084999999999996
 30
0.0
 40
0.06
  1
12  %%C16c/0.3
  7
STANDARD
  0
INSERT
  8
color_1
 62
1
  2
CIRCLE114
 10
0.0
 20
0.0
 30
0.0
  0
INSERT
  8
color_1
 62
1
  2
CIRCLE115
 10
0.0
 20
0.0
 30
0.0
  0
INSERT
  8
color_1
 62
1
  2
CIRCLE116
 10
0.0
 20
0.0
 30
0.0
  0
INSERT
  8
color_1
 62
1
  2
CIRCLE117
 10
0.0
 20
0.0
 30
0.0
  0
INSERT
  8
color_1
 62
1
  2
CIRCLE118
 10
0.0
 20
0.0
 30
0.0
  0
INSERT
  8
color_1
 62
1
  2
CIRCLE119
 10
0.0
 20
0.0
 30
0.0
  0
INSERT
  8
color_1
 62
1
  2
CIRCLE120
 10
0.0
 20
0.0
 30
0.0
  0
INSERT
  8
color_1
 62
1
  2
CIRCLE121
 10
0.0
 20
0.0
 30
0.0
  0
INSERT
  8
color_1
 62
1
  2
CIRCLE122
 10
0.0
 20
0.0
 30
0.0
  0
INSERT
  8
color_1
 62
1
  2
CIRCLE123
 10
0.0
 20
0.0
 30
0.0
  0
INSERT
  8
color_1
 62
1
  2
CIRCLE124
 10
0.0
 20
0.0
 30
0.0
  0
INSERT
  8
color_1
 62
1
  2
CIRCLE125
 10
0.0
 20
0.0
 30
0.0
  0
INSERT
  8
color_1
 62
1
  2
CIRCLE126
 10
0.0
 20
0.0
 30
0.0
  0
INSERT
  8
color_1
 62
1
  2
CIRCLE127
 10
0.0
 20
0.0
 30
0.0
  0
INSERT
  8
color_2
 62
2
  2
LINE021
 10
0.0
 20
0.0
 30
0.0
  0
INSERT
  8
color_3
 62
3
  2
WIRE022
 10
0.0
 20
0.0
 30
0.0
  0
INSERT
  8
color_6
 62
6
  2
LINE022
 10
0.0
 20
0.0
 30
0.0
  0
INSERT
  8
color_6
 62
6
  2
LINE023
 10
0.0
 20
0.0
 30
0.0
  0
INSERT
  8
color_2
 62
2
  2
WIRE023
 10
0.0
 20
0.0
 30
0.0
  0
INSERT
  8
color_0
 62
0
  2
SHAPE017
 10
0.0
 20
0.0
 30
0.0
  0
TEXT
  8
color_0
 62
0
 10
7.1875
 20
2.9084999999999996
 30
0.0
 40
0.06
  1
%%C16c/0.3   12
  7
STANDARD
  0
INSERT
  8
color_0
 62
0
  2
SHAPE018
 10
0.0
 20
0.0
 30
0.0
  0
INSERT
  8
color_4
 62
4
  2
SHAPE019
 10
0.0
 20
0.0
 30
0.0
  0
INSERT
  8
color_2
 62
2
  2
WIRE024
 10
0.0
 20
0.0
 30
0.0
  0
INSERT
  8
color_0
 62
0
  2
SHAPE020
 10
0.0
 20
0.0
 30
0.0
  0
TEXT
  8
color_0
 62
0
 10
0.3745
 20
7.762499999999999
 30
0.0
 40
0.06
  1
9l  %%C16c/0.3
  7
STANDARD
  0
INSERT
  8
color_1
 62
1
  2
CIRCLE128
 10
0.0
 20
0.0
 30
0.0
  0
INSERT
  8
color_1
 62
1
  2
CIRCLE129
 10
0.0
 20
0.0
 30
0.0
  0
INSERT
  8
color_1
 62
1
  2
CIRCLE130
 10
0.0
 20
0.0
 30
0.0
  0
INSERT
  8
color_1
 62
1
  2
CIRCLE131
 10
0.0
 20
0.0
 30
0.0
  0
INSERT
  8
color_1
 62
1
  2
CIRCLE132
 10
0.0
 20
0.0
 30
0.0
  0
INSERT
  8
color_1
 62
1
  2
CIRCLE133
 10
0.0
 20
0.0
 30
0.0
  0
INSERT
  8
color_1
 62
1
  2
CIRCLE134
 10
0.0
 20
0.0
 30
0.0
  0
INSERT
  8
color_1
 62
1
  2
CIRCLE135
 10
0.0
 20
0.0
 30
0.0
  0
INSERT
  8
color_1
 62
1
  2
CIRCLE136
 10
0.0
 20
0.0
 30
0.0
  0
INSERT
  8
color_1
 62
1
  2
CIRCLE137
 10
0.0
 20
0.0
 30
0.0
  0
INSERT
  8
color_1
 62
1
  2
CIRCLE138
 10
0.0
 20
0.0
 30
0.0
  0
INSERT
  8
color_1
 62
1
  2
CIRCLE139
 10
0.0
 20
0.0
 30
0.0
  0
INSERT
  8
color_1
 62
1
  2
CIRCLE140
 10
0.0
 20
0.0
 30
0.0
  0
INSERT
  8
color_1
 62
1
  2
CIRCLE141
 10
0.0
 20
0.0
 30
0.0
  0
INSERT
  8
color_1
 62
1
  2
CIRCLE142
 10
0.0
 20
0.0
 30
0.0
  0
INSERT
  8
color_1
 62
1
  2
CIRCLE143
 10
0.0
 20
0.0
 30
0.0
  0
INSERT
  8
color_1
 62
1
  2
CIRCLE144
 10
0.0
 20
0.0
 30
0.0
  0
INSERT
  8
color_2
 62
2
  2
LINE024
 10
0.0
 20
0.0
 30
0.0
  0
INSERT
  8
color_3
 62
3
  2
WIRE025
 10
0.0
 20
0.0
 30
0.0
  0
INSERT
  8
color_6
 62
6
  2
LINE025
 10
0.0
 20
0.0
 30
0.0
  0
INSERT
  8
color_6
 62
6
  2
LINE026
 10
0.0
 20
0.0
 30
0.0
  0
INSERT
  8
color_2
 62
2
  2
WIRE026
 10
0.0
 20
0.0
 30
0.0
  0
INSERT
  8
color_0
 62
0
  2
SHAPE021
 10
0.0
 20
0.0
 30
0.0
  0
TEXT
  8
color_0
 62
0
 10
0.6745
 20
1.6775
 30
0.0
 40
0.06
  1
9l  %%C16c/0.3
  7
STANDARD
  0
INSERT
  8
color_0
 62
0
  2
SHAPE022
 10
0.0
 20
0.0
 30
0.0
  0
INSERT
  8
color_2
 62
2
  2
WIRE027
 10
0.0
 20
0.0
 30
0.0
  0
INSERT
  8
color_0
 62
0
  2
SHAPE023
 10
0.0
 20
0.0
 30
0.0
  0
TEXT
  8
color_0
 62
0
 10
-0.6745
 20
7.762499999999999
 30
0.0
 40
0.06
  1
%%C16c/0.3   10l
  7
STANDARD
  0
INSERT
  8
color_1
 62
1
  2
CIRCLE145
 10
0.0
 20
0.0
 30
0.0
  0
INSERT
  8
color_1
 62
1
  2
CIRCLE146
 10
0.0
 20
0.0
 30
0.0
  0
INSERT
  8
color_1
 62
1
  2
CIRCLE147
 10
0.0
 20
0.0
 30
0.0
  0
INSERT
  8
color_1
 62
1
  2
CIRCLE148
 10
0.0
 20
0.0
 30
0.0
  0
INSERT
  8
color_1
 62
1
  2
CIRCLE149
 10
0.0
 20
0.0
 30
0.0
  0
INSERT
  8
color_1
 62
1
  2
CIRCLE150
 10
0.0
 20
0.0
 30
0.0
  0
INSERT
  8
color_1
 62
1
  2
CIRCLE151
 10
0.0
 20
0.0
 30
0.0
  0
INSERT
  8
color_1
 62
1
  2
CIRCLE152
 10
0.0
 20
0.0
 30
0.0
  0
INSERT
  8
color_1
 62
1
  2
CIRCLE153
 10
0.0
 20
0.0
 30
0.0
  0
INSERT
  8
color_1
 62
1
  2
CIRCLE154
 10
0.0
 20
0.0
 30
0.0
  0
INSERT
  8
color_1
 62
1
  2
CIRCLE155
 10
0.0
 20
0.0
 30
0.0
  0
INSERT
  8
color_1
 62
1
  2
CIRCLE156
 10
0.0
 20
0.0
 30
0.0
  0
INSERT
  8
color_1
 62
1
  2
CIRCLE157
 10
0.0
 20
0.0
 30
0.0
  0
INSERT
  8
color_1
 62
1
  2
CIRCLE158
 10
0.0
 20
0.0
 30
0.0
  0
INSERT
  8
color_1
 62
1
  2
CIRCLE159
 10
0.0
 20
0.0
 30
0.0
  0
INSERT
  8
color_1
 62
1
  2
CIRCLE160
 10
0.0
 20
0.0
 30
0.0
  0
INSERT
  8
color_1
 62
1
  2
CIRCLE161
 10
0.0
 20
0.0
 30
0.0
  0
INSERT
  8
color_2
 62
2
  2
LINE027
 10
0.0
 20
0.0
 30
0.0
  0
INSERT
  8
color_3
 62
3
  2
WIRE028
 10
0.0
 20
0.0
 30
0.0
  0
INSERT
  8
color_6
 62
6
  2
LINE028
 10
0.0
 20
0.0
 30
0.0
  0
INSERT
  8
color_6
 62
6
  2
LINE029
 10
0.0
 20
0.0
 30
0.0
  0
INSERT
  8
color_2
 62
2
  2
WIRE029
 10
0.0
 20
0.0
 30
0.0
  0
INSERT
  8
color_0
 62
0
  2
SHAPE024
 10
0.0
 20
0.0
 30
0.0
  0
TEXT
  8
color_0
 62
0
 10
-0.3744999999999999
 20
1.7934999999999999
 30
0.0
 40
0.06
  1
%%C16c/0.3   10l
  7
STANDARD
  0
INSERT
  8
color_0
 62
0
  2
SHAPE025
 10
0.0
 20
0.0
 30
0.0
  0
INSERT
  8
color_2
 62
2
  2
WIRE030
 10
0.0
 20
0.0
 30
0.0
  0
INSERT
  8
color_0
 62
0
  2
SHAPE026
 10
0.0
 20
0.0
 30
0.0
  0
TEXT
  8
color_0
 62
0
 10
0.6585
 20
1.0624999999999998
 30
0.0
 40
0.06
  1
8l  %%C16c/0.3
  7
STANDARD
  0
INSERT
  8
color_1
 62
1
  2
CIRCLE162
 10
0.0
 20
0.0
 30
0.0
  0
INSERT
  8
color_1
 62
1
  2
CIRCLE163
 10
0.0
 20
0.0
 30
0.0
  0
INSERT
  8
color_1
 62
1
  2
CIRCLE164
 10
0.0
 20
0.0
 30
0.0
  0
INSERT
  8
color_1
 62
1
  2
CIRCLE165
 10
0.0
 20
0.0
 30
0.0
  0
INSERT
  8
color_1
 62
1
  2
CIRCLE166
 10
0.0
 20
0.0
 30
0.0
  0
INSERT
  8
color_1
 62
1
  2
CIRCLE167
 10
0.0
 20
0.0
 30
0.0
  0
INSERT
  8
color_1
 62
1
  2
CIRCLE168
 10
0.0
 20
0.0
 30
0.0
  0
INSERT
  8
color_2
 62
2
  2
LINE030
 10
0.0
 20
0.0
 30
0.0
  0
INSERT
  8
color_3
 62
3
  2
WIRE031
 10
0.0
 20
0.0
 30
0.0
  0
INSERT
  8
color_6
 62
6
  2
LINE031
 10
0.0
 20
0.0
 30
0.0
  0
INSERT
  8
color_6
 62
6
  2
LINE032
 10
0.0
 20
0.0
 30
0.0
  0
INSERT
  8
color_2
 62
2
  2
WIRE032
 10
0.0
 20
0.0
 30
0.0
  0
INSERT
  8
color_0
 62
0
  2
SHAPE027
 10
0.0
 20
0.0
 30
0.0
  0
TEXT
  8
color_0
 62
0
 10
0.3585000000000001
 20
8.162500000000001
 30
0.0
 40
0.06
  1
8l  %%C16c/0.3
  7
STANDARD
  0
INSERT
  8
color_0
 62
0
  2
SHAPE028
 10
0.0
 20
0.0
 30
0.0
  0
INSERT
  8
color_2
 62
2
  2
WIRE033
 10
0.0
 20
0.0
 30
0.0
  0
INSERT
  8
color_0
 62
0
  2
SHAPE029
 10
0.0
 20
0.0
 30
0.0
  0
TEXT
  8
color_0
 62
0
 10
-0.3585
 20
1.0624999999999998
 30
0.0
 40
0.06
  1
%%C16c/0.3   7l
  7
STANDARD
  0
INSERT
  8
color_1
 62
1
  2
CIRCLE169
 10
0.0
 20
0.0
 30
0.0
  0
INSERT
  8
color_1
 62
1
  2
CIRCLE170
 10
0.0
 20
0.0
 30
0.0
  0
INSERT
  8
color_1
 62
1
  2
CIRCLE171
 10
0.0
 20
0.0
 30
0.0
  0
INSERT
  8
color_1
 62
1
  2
CIRCLE172
 10
0.0
 20
0.0
 30
0.0
  0
INSERT
  8
color_1
 62
1
  2
CIRCLE173
 10
0.0
 20
0.0
 30
0.0
  0
INSERT
  8
color_1
 62
1
  2
CIRCLE174
 10
0.0
 20
0.0
 30
0.0
  0
INSERT
  8
color_1
 62
1
  2
CIRCLE175
 10
0.0
 20
0.0
 30
0.0
  0
INSERT
  8
color_1
 62
1
  2
CIRCLE176
 10
0.0
 20
0.0
 30
0.0
  0
INSERT
  8
color_1
 62
1
  2
CIRCLE177
 10
0.0
 20
0.0
 30
0.0
  0
INSERT
  8
color_2
 62
2
  2
LINE033
 10
0.0
 20
0.0
 30
0.0
  0
INSERT
  8
color_3
 62
3
  2
WIRE034
 10
0.0
 20
0.0
 30
0.0
  0
INSERT
  8
color_6
 62
6
  2
LINE034
 10
0.0
 20
0.0
 30
0.0
  0
INSERT
  8
color_6
 62
6
  2
LINE035
 10
0.0
 20
0.0
 30
0.0
  0
INSERT
  8
color_2
 62
2
  2
WIRE035
 10
0.0
 20
0.0
 30
0.0
  0
INSERT
  8
color_0
 62
0
  2
SHAPE030
 10
0.0
 20
0.0
 30
0.0
  0
TEXT
  8
color_0
 62
0
 10
-0.6584999999999998
 20
8.162500000000001
 30
0.0
 40
0.06
  1
%%C16c/0.3   7l
  7
STANDARD
  0
INSERT
  8
color_0
 62
0
  2
SHAPE031
 10
0.0
 20
0.0
 30
0.0
  0
INSERT
  8
color_4
 62
4
  2
SHAPE032
 10
0.0
 20
0.0
 30
0.0
  0
INSERT
  8
color_2
 62
2
  2
WIRE036
 10
0.0
 20
0.0
 30
0.0
  0
INSERT
  8
color_0
 62
0
  2
SHAPE033
 10
0.0
 20
0.0
 30
0.0
  0
TEXT
  8
color_0
 62
0
 10
4.474499999999999
 20
7.762499999999999
 30
0.0
 40
0.06
  1
10r  %%C16c/0.3
  7
STANDARD
  0
INSERT
  8
color_1
 62
1
  2
CIRCLE178
 10
0.0
 20
0.0
 30
0.0
  0
INSERT
  8
color_1
 62
1
  2
CIRCLE179
 10
0.0
 20
0.0
 30
0.0
  0
INSERT
  8
color_1
 62
1
  2
CIRCLE180
 10
0.0
 20
0.0
 30
0.0
  0
INSERT
  8
color_1
 62
1
  2
CIRCLE181
 10
0.0
 20
0.0
 30
0.0
  0
INSERT
  8
color_1
 62
1
  2
CIRCLE182
 10
0.0
 20
0.0
 30
0.0
  0
INSERT
  8
color_1
 62
1
  2
CIRCLE183
 10
0.0
 20
0.0
 30
0.0
  0
INSERT
  8
color_1
 62
1
  2
CIRCLE184
 10
0.0
 20
0.0
 30
0.0
  0
INSERT
  8
color_1
 62
1
  2
CIRCLE185
 10
0.0
 20
0.0
 30
0.0
  0
INSERT
  8
color_1
 62
1
  2
CIRCLE186
 10
0.0
 20
0.0
 30
0.0
  0
INSERT
  8
color_1
 62
1
  2
CIRCLE187
 10
0.0
 20
0.0
 30
0.0
  0
INSERT
  8
color_1
 62
1
  2
CIRCLE188
 10
0.0
 20
0.0
 30
0.0
  0
INSERT
  8
color_1
 62
1
  2
CIRCLE189
 10
0.0
 20
0.0
 30
0.0
  0
INSERT
  8
color_1
 62
1
  2
CIRCLE190
 10
0.0
 20
0.0
 30
0.0
  0
INSERT
  8
color_1
 62
1
  2
CIRCLE191
 10
0.0
 20
0.0
 30
0.0
  0
INSERT
  8
color_1
 62
1
  2
CIRCLE192
 10
0.0
 20
0.0
 30
0.0
  0
INSERT
  8
color_1
 62
1
  2
CIRCLE193
 10
0.0
 20
0.0
 30
0.0
  0
INSERT
  8
color_1
 62
1
  2
CIRCLE194
 10
0.0
 20
0.0
 30
0.0
  0
INSERT
  8
color_2
 62
2
  2
LINE036
 10
0.0
 20
0.0
 30
0.0
  0
INSERT
  8
color_3
 62
3
  2
WIRE037
 10
0.0
 20
0.0
 30
0.0
  0
INSERT
  8
color_6
 62
6
  2
LINE037
 10
0.0
 20
0.0
 30
0.0
  0
INSERT
  8
color_6
 62
6
  2
LINE038
 10
0.0
 20
0.0
 30
0.0
  0
INSERT
  8
color_2
 62
2
  2
WIRE038
 10
0.0
 20
0.0
 30
0.0
  0
INSERT
  8
color_0
 62
0
  2
SHAPE034
 10
0.0
 20
0.0
 30
0.0
  0
TEXT
  8
color_0
 62
0
 10
4.474499999999999
 20
1.6934999999999998
 30
0.0
 40
0.06
  1
10r  %%C16c/0.3
  7
STANDARD
  0
INSERT
  8
color_0
 62
0
  2
SHAPE035
 10
0.0
 20
0.0
 30
0.0
  0
INSERT
  8
color_2
 62
2
  2
WIRE039
 10
0.0
 20
0.0
 30
0.0
  0
INSERT
  8
color_0
 62
0
  2
SHAPE036
 10
0.0
 20
0.0
 30
0.0
  0
TEXT
  8
color_0
 62
0
 10
3.4254999999999995
 20
7.762499999999999
 30
0.0
 40
0.06
  1
%%C16c/0.3   9r
  7
STANDARD
  0
INSERT
  8
color_1
 62
1
  2
CIRCLE195
 10
0.0
 20
0.0
 30
0.0
  0
INSERT
  8
color_1
 62
1
  2
CIRCLE196
 10
0.0
 20
0.0
 30
0.0
  0
INSERT
  8
color_1
 62
1
  2
CIRCLE197
 10
0.0
 20
0.0
 30
0.0
  0
INSERT
  8
color_1
 62
1
  2
CIRCLE198
 10
0.0
 20
0.0
 30
0.0
  0
INSERT
  8
color_1
 62
1
  2
CIRCLE199
 10
0.0
 20
0.0
 30
0.0
  0
INSERT
  8
color_1
 62
1
  2
CIRCLE200
 10
0.0
 20
0.0
 30
0.0
  0
INSERT
  8
color_1
 62
1
  2
CIRCLE201
 10
0.0
 20
0.0
 30
0.0
  0
INSERT
  8
color_1
 62
1
  2
CIRCLE202
 10
0.0
 20
0.0
 30
0.0
  0
INSERT
  8
color_1
 62
1
  2
CIRCLE203
 10
0.0
 20
0.0
 30
0.0
  0
INSERT
  8
color_1
 62
1
  2
CIRCLE204
 10
0.0
 20
0.0
 30
0.0
  0
INSERT
  8
color_1
 62
1
  2
CIRCLE205
 10
0.0
 20
0.0
 30
0.0
  0
INSERT
  8
color_1
 62
1
  2
CIRCLE206
 10
0.0
 20
0.0
 30
0.0
  0
INSERT
  8
color_1
 62
1
  2
CIRCLE207
 10
0.0
 20
0.0
 30
0.0
  0
INSERT
  8
color_1
 62
1
  2
CIRCLE208
 10
0.0
 20
0.0
 30
0.0
  0
INSERT
  8
color_1
 62
1
  2
CIRCLE209
 10
0.0
 20
0.0
 30
0.0
  0
INSERT
  8
color_1
 62
1
  2
CIRCLE210
 10
0.0
 20
0.0
 30
0.0
  0
INSERT
  8
color_1
 62
1
  2
CIRCLE211
 10
0.0
 20
0.0
 30
0.0
  0
INSERT
  8
color_2
 62
2
  2
LINE039
 10
0.0
 20
0.0
 30
0.0
  0
INSERT
  8
color_3
 62
3
  2
WIRE040
 10
0.0
 20
0.0
 30
0.0
  0
INSERT
  8
color_6
 62
6
  2
LINE040
 10
0.0
 20
0.0
 30
0.0
  0
INSERT
  8
color_6
 62
6
  2
LINE041
 10
0.0
 20
0.0
 30
0.0
  0
INSERT
  8
color_2
 62
2
  2
WIRE041
 10
0.0
 20
0.0
 30
0.0
  0
INSERT
  8
color_0
 62
0
  2
SHAPE037
 10
0.0
 20
0.0
 30
0.0
  0
TEXT
  8
color_0
 62
0
 10
3.425499999999999
 20
1.7774999999999999
 30
0.0
 40
0.06
  1
%%C16c/0.3   9r
  7
STANDARD
  0
INSERT
  8
color_0
 62
0
  2
SHAPE038
 10
0.0
 20
0.0
 30
0.0
  0
INSERT
  8
color_2
 62
2
  2
WIRE042
 10
0.0
 20
0.0
 30
0.0
  0
INSERT
  8
color_0
 62
0
  2
SHAPE039
 10
0.0
 20
0.0
 30
0.0
  0
TEXT
  8
color_0
 62
0
 10
4.458499999999999
 20
1.0624999999999998
 30
0.0
 40
0.06
  1
7r  %%C16c/0.3
  7
STANDARD
  0
INSERT
  8
color_1
 62
1
  2
CIRCLE212
 10
0.0
 20
0.0
 30
0.0
  0
INSERT
  8
color_1
 62
1
  2
CIRCLE213
 10
0.0
 20
0.0
 30
0.0
  0
INSERT
  8
color_1
 62
1
  2
CIRCLE214
 10
0.0
 20
0.0
 30
0.0
  0
INSERT
  8
color_1
 62
1
  2
CIRCLE215
 10
0.0
 20
0.0
 30
0.0
  0
INSERT
  8
color_1
 62
1
  2
CIRCLE216
 10
0.0
 20
0.0
 30
0.0
  0
INSERT
  8
color_1
 62
1
  2
CIRCLE217
 10
0.0
 20
0.0
 30
0.0
  0
INSERT
  8
color_1
 62
1
  2
CIRCLE218
 10
0.0
 20
0.0
 30
0.0
  0
INSERT
  8
color_1
 62
1
  2
CIRCLE219
 10
0.0
 20
0.0
 30
0.0
  0
INSERT
  8
color_1
 62
1
  2
CIRCLE220
 10
0.0
 20
0.0
 30
0.0
  0
INSERT
  8
color_2
 62
2
  2
LINE042
 10
0.0
 20
0.0
 30
0.0
  0
INSERT
  8
color_3
 62
3
  2
WIRE043
 10
0.0
 20
0.0
 30
0.0
  0
INSERT
  8
color_6
 62
6
  2
LINE043
 10
0.0
 20
0.0
 30
0.0
  0
INSERT
  8
color_6
 62
6
  2
LINE044
 10
0.0
 20
0.0
 30
0.0
  0
INSERT
  8
color_2
 62
2
  2
WIRE044
 10
0.0
 20
0.0
 30
0.0
  0
INSERT
  8
color_0
 62
0
  2
SHAPE040
 10
0.0
 20
0.0
 30
0.0
  0
TEXT
  8
color_0
 62
0
 10
4.458499999999999
 20
8.162500000000001
 30
0.0
 40
0.06
  1
7r  %%C16c/0.3
  7
STANDARD
  0
INSERT
  8
color_0
 62
0
  2
SHAPE041
 10
0.0
 20
0.0
 30
0.0
  0
INSERT
  8
color_2
 62
2
  2
WIRE045
 10
0.0
 20
0.0
 30
0.0
  0
INSERT
  8
color_0
 62
0
  2
SHAPE042
 10
0.0
 20
0.0
 30
0.0
  0
TEXT
  8
color_0
 62
0
 10
3.4414999999999996
 20
1.0624999999999998
 30
0.0
 40
0.06
  1
%%C16c/0.3   8r
  7
STANDARD
  0
INSERT
  8
color_1
 62
1
  2
CIRCLE221
 10
0.0
 20
0.0
 30
0.0
  0
INSERT
  8
color_1
 62
1
  2
CIRCLE222
 10
0.0
 20
0.0
 30
0.0
  0
INSERT
  8
color_1
 62
1
  2
CIRCLE223
 10
0.0
 20
0.0
 30
0.0
  0
INSERT
  8
color_1
 62
1
  2
CIRCLE224
 10
0.0
 20
0.0
 30
0.0
  0
INSERT
  8
color_1
 62
1
  2
CIRCLE225
 10
0.0
 20
0.0
 30
0.0
  0
INSERT
  8
color_1
 62
1
  2
CIRCLE226
 10
0.0
 20
0.0
 30
0.0
  0
INSERT
  8
color_1
 62
1
  2
CIRCLE227
 10
0.0
 20
0.0
 30
0.0
  0
INSERT
  8
color_2
 62
2
  2
LINE045
 10
0.0
 20
0.0
 30
0.0
  0
INSERT
  8
color_3
 62
3
  2
WIRE046
 10
0.0
 20
0.0
 30
0.0
  0
INSERT
  8
color_6
 62
6
  2
LINE046
 10
0.0
 20
0.0
 30
0.0
  0
INSERT
  8
color_6
 62
6
  2
LINE047
 10
0.0
 20
0.0
 30
0.0
  0
INSERT
  8
color_2
 62
2
  2
WIRE047
 10
0.0
 20
0.0
 30
0.0
  0
INSERT
  8
color_0
 62
0
  2
SHAPE043
 10
0.0
 20
0.0
 30
0.0
  0
TEXT
  8
color_0
 62
0
 10
3.4415000000000004
 20
8.162500000000001
 30
0.0
 40
0.06
  1
%%C16c/0.3   8r
  7
STANDARD
  0
INSERT
  8
color_0
 62
0
  2
SHAPE044
 10
0.0
 20
0.0
 30
0.0
  0
INSERT
  8
color_4
 62
4
  2
SHAPE045
 10
0.0
 20
0.0
 30
0.0
  0
INSERT
  8
color_2
 62
2
  2
WIRE048
 10
0.0
 20
0.0
 30
0.0
  0
INSERT
  8
color_0
 62
0
  2
SHAPE046
 10
0.0
 20
0.0
 30
0.0
  0
TEXT
  8
color_0
 62
0
 10
3.0745000000000005
 20
19.7625
 30
0.0
 40
0.06
  1
5l  %%C16c/0.3
  7
STANDARD
  0
INSERT
  8
color_1
 62
1
  2
CIRCLE228
 10
0.0
 20
0.0
 30
0.0
  0
INSERT
  8
color_1
 62
1
  2
CIRCLE229
 10
0.0
 20
0.0
 30
0.0
  0
INSERT
  8
color_1
 62
1
  2
CIRCLE230
 10
0.0
 20
0.0
 30
0.0
  0
INSERT
  8
color_1
 62
1
  2
CIRCLE231
 10
0.0
 20
0.0
 30
0.0
  0
INSERT
  8
color_1
 62
1
  2
CIRCLE232
 10
0.0
 20
0.0
 30
0.0
  0
INSERT
  8
color_1
 62
1
  2
CIRCLE233
 10
0.0
 20
0.0
 30
0.0
  0
INSERT
  8
color_1
 62
1
  2
CIRCLE234
 10
0.0
 20
0.0
 30
0.0
  0
INSERT
  8
color_1
 62
1
  2
CIRCLE235
 10
0.0
 20
0.0
 30
0.0
  0
INSERT
  8
color_1
 62
1
  2
CIRCLE236
 10
0.0
 20
0.0
 30
0.0
  0
INSERT
  8
color_1
 62
1
  2
CIRCLE237
 10
0.0
 20
0.0
 30
0.0
  0
INSERT
  8
color_1
 62
1
  2
CIRCLE238
 10
0.0
 20
0.0
 30
0.0
  0
INSERT
  8
color_1
 62
1
  2
CIRCLE239
 10
0.0
 20
0.0
 30
0.0
  0
INSERT
  8
color_1
 62
1
  2
CIRCLE240
 10
0.0
 20
0.0
 30
0.0
  0
INSERT
  8
color_1
 62
1
  2
CIRCLE241
 10
0.0
 20
0.0
 30
0.0
  0
INSERT
  8
color_1
 62
1
  2
CIRCLE242
 10
0.0
 20
0.0
 30
0.0
  0
INSERT
  8
color_1
 62
1
  2
CIRCLE243
 10
0.0
 20
0.0
 30
0.0
  0
INSERT
  8
color_1
 62
1
  2
CIRCLE244
 10
0.0
 20
0.0
 30
0.0
  0
INSERT
  8
color_2
 62
2
  2
LINE048
 10
0.0
 20
0.0
 30
0.0
  0
INSERT
  8
color_3
 62
3
  2
WIRE049
 10
0.0
 20
0.0
 30
0.0
  0
INSERT
  8
color_6
 62
6
  2
LINE049
 10
0.0
 20
0.0
 30
0.0
  0
INSERT
  8
color_6
 62
6
  2
LINE050
 10
0.0
 20
0.0
 30
0.0
  0
INSERT
  8
color_2
 62
2
  2
WIRE050
 10
0.0
 20
0.0
 30
0.0
  0
INSERT
  8
color_0
 62
0
  2
SHAPE047
 10
0.0
 20
0.0
 30
0.0
  0
TEXT
  8
color_0
 62
0
 10
0.5745
 20
0.766243753221106
 30
0.0
 40
0.06
  1
5l  %%C16c/0.3
  7
STANDARD
  0
INSERT
  8
color_0
 62
0
  2
SHAPE048
 10
0.0
 20
0.0
 30
0.0
  0
INSERT
  8
color_2
 62
2
  2
WIRE051
 10
0.0
 20
0.0
 30
0.0
  0
INSERT
  8
color_0
 62
0
  2
SHAPE049
 10
0.0
 20
0.0
 30
0.0
  0
TEXT
  8
color_0
 62
0
 10
2.8505000000000003
 20
20.3625
 30
0.0
 40
0.06
  1
6l  %%C16c/0.3
  7
STANDARD
  0
INSERT
  8
color_1
 62
1
  2
CIRCLE245
 10
0.0
 20
0.0
 30
0.0
  0
INSERT
  8
color_1
 62
1
  2
CIRCLE246
 10
0.0
 20
0.0
 30
0.0
  0
INSERT
  8
color_1
 62
1
  2
CIRCLE247
 10
0.0
 20
0.0
 30
0.0
  0
INSERT
  8
color_1
 62
1
  2
CIRCLE248
 10
0.0
 20
0.0
 30
0.0
  0
INSERT
  8
color_1
 62
1
  2
CIRCLE249
 10
0.0
 20
0.0
 30
0.0
  0
INSERT
  8
color_1
 62
1
  2
CIRCLE250
 10
0.0
 20
0.0
 30
0.0
  0
INSERT
  8
color_1
 62
1
  2
CIRCLE251
 10
0.0
 20
0.0
 30
0.0
  0
INSERT
  8
color_1
 62
1
  2
CIRCLE252
 10
0.0
 20
0.0
 30
0.0
  0
INSERT
  8
color_1
 62
1
  2
CIRCLE253
 10
0.0
 20
0.0
 30
0.0
  0
INSERT
  8
color_1
 62
1
  2
CIRCLE254
 10
0.0
 20
0.0
 30
0.0
  0
INSERT
  8
color_1
 62
1
  2
CIRCLE255
 10
0.0
 20
0.0
 30
0.0
  0
INSERT
  8
color_1
 62
1
  2
CIRCLE256
 10
0.0
 20
0.0
 30
0.0
  0
INSERT
  8
color_1
 62
1
  2
CIRCLE257
 10
0.0
 20
0.0
 30
0.0
  0
INSERT
  8
color_1
 62
1
  2
CIRCLE258
 10
0.0
 20
0.0
 30
0.0
  0
INSERT
  8
color_1
 62
1
  2
CIRCLE259
 10
0.0
 20
0.0
 30
0.0
  0
INSERT
  8
color_1
 62
1
  2
CIRCLE260
 10
0.0
 20
0.0
 30
0.0
  0
INSERT
  8
color_1
 62
1
  2
CIRCLE261
 10
0.0
 20
0.0
 30
0.0
  0
INSERT
  8
color_2
 62
2
  2
LINE051
 10
0.0
 20
0.0
 30
0.0
  0
INSERT
  8
color_3
 62
3
  2
WIRE052
 10
0.0
 20
0.0
 30
0.0
  0
INSERT
  8
color_6
 62
6
  2
LINE052
 10
0.0
 20
0.0
 30
0.0
  0
INSERT
  8
color_6
 62
6
  2
LINE053
 10
0.0
 20
0.0
 30
0.0
  0
INSERT
  8
color_2
 62
2
  2
WIRE053
 10
0.0
 20
0.0
 30
0.0
  0
INSERT
  8
color_0
 62
0
  2
SHAPE050
 10
0.0
 20
0.0
 30
0.0
  0
TEXT
  8
color_0
 62
0
 10
-0.27449999999999997
 20
0.766243753221106
 30
0.0
 40
0.06
  1
%%C16c/0.3   6l
  7
STANDARD
  0
INSERT
  8
color_0
 62
0
  2
SHAPE051
 10
0.0
 20
0.0
 30
0.0
  0
INSERT
  8
color_2
 62
2
  2
WIRE054
 10
0.0
 20
0.0
 30
0.0
  0
INSERT
  8
color_0
 62
0
  2
SHAPE052
 10
0.0
 20
0.0
 30
0.0
  0
TEXT
  8
color_0
 62
0
 10
7.174499999999999
 20
19.7625
 30
0.0
 40
0.06
  1
6r  %%C16c/0.3
  7
STANDARD
  0
INSERT
  8
color_1
 62
1
  2
CIRCLE262
 10
0.0
 20
0.0
 30
0.0
  0
INSERT
  8
color_1
 62
1
  2
CIRCLE263
 10
0.0
 20
0.0
 30
0.0
  0
INSERT
  8
color_1
 62
1
  2
CIRCLE264
 10
0.0
 20
0.0
 30
0.0
  0
INSERT
  8
color_1
 62
1
  2
CIRCLE265
 10
0.0
 20
0.0
 30
0.0
  0
INSERT
  8
color_1
 62
1
  2
CIRCLE266
 10
0.0
 20
0.0
 30
0.0
  0
INSERT
  8
color_1
 62
1
  2
CIRCLE267
 10
0.0
 20
0.0
 30
0.0
  0
INSERT
  8
color_1
 62
1
  2
CIRCLE268
 10
0.0
 20
0.0
 30
0.0
  0
INSERT
  8
color_1
 62
1
  2
CIRCLE269
 10
0.0
 20
0.0
 30
0.0
  0
INSERT
  8
color_1
 62
1
  2
CIRCLE270
 10
0.0
 20
0.0
 30
0.0
  0
INSERT
  8
color_1
 62
1
  2
CIRCLE271
 10
0.0
 20
0.0
 30
0.0
  0
INSERT
  8
color_1
 62
1
  2
CIRCLE272
 10
0.0
 20
0.0
 30
0.0
  0
INSERT
  8
color_1
 62
1
  2
CIRCLE273
 10
0.0
 20
0.0
 30
0.0
  0
INSERT
  8
color_1
 62
1
  2
CIRCLE274
 10
0.0
 20
0.0
 30
0.0
  0
INSERT
  8
color_1
 62
1
  2
CIRCLE275
 10
0.0
 20
0.0
 30
0.0
  0
INSERT
  8
color_1
 62
1
  2
CIRCLE276
 10
0.0
 20
0.0
 30
0.0
  0
INSERT
  8
color_1
 62
1
  2
CIRCLE277
 10
0.0
 20
0.0
 30
0.0
  0
INSERT
  8
color_1
 62
1
  2
CIRCLE278
 10
0.0
 20
0.0
 30
0.0
  0
INSERT
  8
color_2
 62
2
  2
LINE054
 10
0.0
 20
0.0
 30
0.0
  0
INSERT
  8
color_3
 62
3
  2
WIRE055
 10
0.0
 20
0.0
 30
0.0
  0
INSERT
  8
color_6
 62
6
  2
LINE055
 10
0.0
 20
0.0
 30
0.0
  0
INSERT
  8
color_6
 62
6
  2
LINE056
 10
0.0
 20
0.0
 30
0.0
  0
INSERT
  8
color_2
 62
2
  2
WIRE056
 10
0.0
 20
0.0
 30
0.0
  0
INSERT
  8
color_0
 62
0
  2
SHAPE053
 10
0.0
 20
0.0
 30
0.0
  0
TEXT
  8
color_0
 62
0
 10
4.374499999999999
 20
0.766243753221106
 30
0.0
 40
0.06
  1
6r  %%C16c/0.3
  7
STANDARD
  0
INSERT
  8
color_0
 62
0
  2
SHAPE054
 10
0.0
 20
0.0
 30
0.0
  0
INSERT
  8
color_2
 62
2
  2
WIRE057
 10
0.0
 20
0.0
 30
0.0
  0
INSERT
  8
color_0
 62
0
  2
SHAPE055
 10
0.0
 20
0.0
 30
0.0
  0
TEXT
  8
color_0
 62
0
 10
6.950499999999999
 20
20.3625
 30
0.0
 40
0.06
  1
5r  %%C16c/0.3
  7
STANDARD
  0
INSERT
  8
color_1
 62
1
  2
CIRCLE279
 10
0.0
 20
0.0
 30
0.0
  0
INSERT
  8
color_1
 62
1
  2
CIRCLE280
 10
0.0
 20
0.0
 30
0.0
  0
INSERT
  8
color_1
 62
1
  2
CIRCLE281
 10
0.0
 20
0.0
 30
0.0
  0
INSERT
  8
color_1
 62
1
  2
CIRCLE282
 10
0.0
 20
0.0
 30
0.0
  0
INSERT
  8
color_1
 62
1
  2
CIRCLE283
 10
0.0
 20
0.0
 30
0.0
  0
INSERT
  8
color_1
 62
1
  2
CIRCLE284
 10
0.0
 20
0.0
 30
0.0
  0
INSERT
  8
color_1
 62
1
  2
CIRCLE285
 10
0.0
 20
0.0
 30
0.0
  0
INSERT
  8
color_1
 62
1
  2
CIRCLE286
 10
0.0
 20
0.0
 30
0.0
  0
INSERT
  8
color_1
 62
1
  2
CIRCLE287
 10
0.0
 20
0.0
 30
0.0
  0
INSERT
  8
color_1
 62
1
  2
CIRCLE288
 10
0.0
 20
0.0
 30
0.0
  0
INSERT
  8
color_1
 62
1
  2
CIRCLE289
 10
0.0
 20
0.0
 30
0.0
  0
INSERT
  8
color_1
 62
1
  2
CIRCLE290
 10
0.0
 20
0.0
 30
0.0
  0
INSERT
  8
color_1
 62
1
  2
CIRCLE291
 10
0.0
 20
0.0
 30
0.0
  0
INSERT
  8
color_1
 62
1
  2
CIRCLE292
 10
0.0
 20
0.0
 30
0.0
  0
INSERT
  8
color_1
 62
1
  2
CIRCLE293
 10
0.0
 20
0.0
 30
0.0
  0
INSERT
  8
color_1
 62
1
  2
CIRCLE294
 10
0.0
 20
0.0
 30
0.0
  0
INSERT
  8
color_1
 62
1
  2
CIRCLE295
 10
0.0
 20
0.0
 30
0.0
  0
INSERT
  8
color_2
 62
2
  2
LINE057
 10
0.0
 20
0.0
 30
0.0
  0
INSERT
  8
color_3
 62
3
  2
WIRE058
 10
0.0
 20
0.0
 30
0.0
  0
INSERT
  8
color_6
 62
6
  2
LINE058
 10
0.0
 20
0.0
 30
0.0
  0
INSERT
  8
color_6
 62
6
  2
LINE059
 10
0.0
 20
0.0
 30
0.0
  0
INSERT
  8
color_2
 62
2
  2
WIRE059
 10
0.0
 20
0.0
 30
0.0
  0
INSERT
  8
color_0
 62
0
  2
SHAPE056
 10
0.0
 20
0.0
 30
0.0
  0
TEXT
  8
color_0
 62
0
 10
3.5254999999999987
 20
0.766243753221106
 30
0.0
 40
0.06
  1
%%C16c/0.3   5r
  7
STANDARD
  0
INSERT
  8
color_0
 62
0
  2
SHAPE057
 10
0.0
 20
0.0
 30
0.0
  0
ENDSEC
  0
EOF
